SplineFontDB: 3.0
FontName: Aenniway-BoldItalic
FullName: Aenniway BoldItalic
FamilyName: Aenniway
Weight: Bold
Copyright: Anna-Lisa Wehmann & Christoph Pfeiffer
UComments: "Aenniway, liebevoll fontifizierte Handschrift.+AAoACgAA-Perfectly different artifacts of a summer emerge from the glyphs, from their loveable, purple lines through their rough edges and spikes.+AAoACgAA-https://maybegeek.github.io/Aenniway/"
Version: 1.7.1
ItalicAngle: -23.1
UnderlinePosition: -153
UnderlineWidth: 51
Ascent: 819
Descent: 205
InvalidEm: 0
LayerCount: 2
Layer: 0 0 "Back" 1
Layer: 1 0 "Zeichen" 0
XUID: [1021 862 158305084 7697856]
StyleMap: 0x0021
FSType: 0
OS2Version: 4
OS2_WeightWidthSlopeOnly: 0
OS2_UseTypoMetrics: 1
CreationTime: 1502261341
ModificationTime: 1531240854
PfmFamily: 65
TTFWeight: 700
TTFWidth: 5
LineGap: 92
VLineGap: 0
Panose: 3 0 8 0 0 0 0 0 0 0
OS2TypoAscent: 0
OS2TypoAOffset: 1
OS2TypoDescent: 0
OS2TypoDOffset: 1
OS2TypoLinegap: 92
OS2WinAscent: 0
OS2WinAOffset: 1
OS2WinDescent: 0
OS2WinDOffset: 1
HheadAscent: 0
HheadAOffset: 1
HheadDescent: 0
HheadDOffset: 1
OS2Vendor: 'CLGR'
OS2CodePages: 00000001.00000000
OS2UnicodeRanges: 00000003.00000000.00000000.00000000
Lookup: 4 0 1 "'liga' Standard Ligatures in Latin lookup 0" { "'liga' Standard Ligatures in Latin lookup 0 subtable"  } ['liga' ('DFLT' <'dflt' > 'latn' <'dflt' > ) ]

StartChar: .notdef
Encoding: 1114112 -1 0
Width: 372
VWidth: 1004
Flags: HW
HStem: -20 34<68 271> 628 34<68 271>
VStem: 34 34<14 628> 271 34<14 628>
LayerCount: 2
Fore
SplineSet
34 -20 m 1
 34 662 l 1
 305 662 l 1
 305 -20 l 1
 34 -20 l 1
68 14 m 1
 271 14 l 1
 271 628 l 1
 68 628 l 1
 68 14 l 1
EndSplineSet
EndChar

StartChar: exclam
Encoding: 33 33 5
Width: 201
VWidth: 968
Flags: HW
HStem: -8 63.9337<52.0748 123.576> 657 20G<257.457 261.689>
VStem: 50 80.7313<-3.24031 32.0237> 109.699 51.8016<162.708 193.713 200.915 235.345>
LayerCount: 2
Fore
SplineSet
50 27.3456432936 m 1xe0
 50 30 l 1
 50.2304792387 32.0237355603 l 2
 50.575405592 33.5184164243 51.0428287108 34.9492878029 51.6327485951 36.3163496962 c 0
 52.2226684794 37.6834115895 52.9338868693 38.9840086233 53.7664037646 40.2181407978 c 0
 54.5989206599 41.4522729723 55.5511345317 42.6174566933 56.6230453799 43.7136919608 c 2
 67.495459308 51.0889822724 l 2
 68.4825262689 51.5023929331 69.5039004641 51.8897941153 70.5595818934 52.2511858189 c 0
 71.6152633227 52.6125775225 72.7044977922 52.947758559 73.8272853018 53.2567289285 c 0
 74.9500728115 53.565699298 76.1060885201 53.8486971405 77.2953324277 54.1057224561 c 0
 78.4845763354 54.3627477717 79.7083347899 54.5941480843 80.9666077914 54.7999233939 c 0
 82.2611201157 55.1496271662 83.391164227 55.4111674379 84.3567401252 55.5845442088 c 0
 85.3879858774 55.7697126657 86.2977088094 55.886108166 87.0859089213 55.9337307095 c 0
 87.4557294844 55.95607503 87.8824768072 55.9727059918 88.3661508896 55.9836235951 c 0
 88.8498249721 55.9945411984 89.3944413422 56 90 56 c 0
 105.899201545 56 117.312009894 48.2077829532 124.238425047 32.6233488596 c 0
 129.729988609 20.0712035743 131.894274427 11.4691470794 130.731282501 6.81717937477 c 0
 129.120387216 0.37359823091 120.76488355 -4.18055516863 105.664771503 -6.84528082384 c 0
 103.767854373 -7.22466424982 101.925981862 -7.51178355816 100.139153971 -7.70663874885 c 0
 98.3457330408 -7.90221291628 96.6326817171 -8 95 -8 c 0
 85.7021820927 -8 76.7018318553 -5.69026788207 67.9989492877 -1.0708036462 c 0
 55.0591678183 5.64722903816 49.0595180557 15.1193780181 50 27.3456432936 c 1xe0
116 29 m 1025
233.701477393 649.484451163 m 0
 237.419429688 658.572778996 241.460327403 665.43078576 245.824170539 670.058471456 c 0
 250.188013675 674.686157152 254.913290162 677 260 677 c 2
 261 677 l 1
 261.689258762 676.919746968 l 1
 264.372540335 676.286310114 l 1
 265.024922359 676.049844719 l 2
 271.433624796 672.8454935 274.075989364 666.185438036 272.952016063 656.069678326 c 0
 272.82755945 654.690560275 272.765115865 653.382009852 272.764685307 652.144027055 c 0
 272.764685307 650.938586226 272.821453135 649.84876184 272.934988791 648.874553896 c 2
 274.30329956 643.472876284 l 2
 276.556013728 638.205272769 277.781879358 634.246124557 277.980896449 631.595431647 c 0
 278.826865321 630.600794884 278.711734014 629.551201326 277.635502527 628.446650973 c 0
 275.764620999 621.24372378 273.63486335 613.514911835 271.24622958 605.260215138 c 0
 268.82503217 596.892984252 266.14000488 587.991139808 263.191147711 578.554681806 c 0
 260.242261976 569.117928276 257.026605666 559.136102188 253.544178783 548.609203542 c 0
 250.061737172 538.082153576 246.316481461 527.020654361 242.30841165 515.424705897 c 0
 238.301149368 503.831035926 234.026866036 491.689731581 229.485561653 479.000792864 c 0
 215.870308345 440.479588383 204.166713597 405.119712213 194.374777408 372.921164355 c 0
 189.480761038 356.8289032 185.066564285 341.536994448 181.132187148 327.045438099 c 0
 177.198186713 312.555392814 173.746189565 298.87538347 170.776195702 286.005410067 c 0
 167.489773091 271.54515058 164.864227585 258.17641024 162.899559182 245.899189049 c 0
 161.916019899 239.753761641 161.097440319 233.882962213 160.443820442 228.286790766 c 0
 159.790200565 222.690619318 159.29925342 217.348406901 158.970979008 212.260153514 c 0
 158.670196119 209.376684201 158.559674434 207.056387631 158.639413954 205.299263802 c 2
 159.491916989 200.914932445 l 1
 159.528116254 200.806981134 l 1
 161.465291451 193.713332356 l 1
 161.50009149 193.482261725 l 2
 161.558117961 191.690530748 161.306112178 189.984265171 160.744074142 188.363464992 c 0
 160.298972578 186.425006292 159.592667637 184.326903926 158.62515932 182.069157893 c 0
 157.660187523 179.81733138 156.430174491 177.37657494 154.935120223 174.746888575 c 0
 154.043978731 172.98494256 153.091904967 171.377673879 152.078898932 169.925082532 c 0
 151.054375808 168.455980571 149.96224234 167.144620972 148.802498528 165.991003733 c 0
 147.533109143 164.728322009 146.112691242 163.72300438 144.541244827 162.975050845 c 0
 142.971326674 162.22782471 141.288872977 161.754489891 139.493883735 161.555046388 c 0
 138.772707625 161.474816597 138.054275217 161.449712992 137.338586511 161.479735572 c 0
 136.622897806 161.509758152 135.912782912 161.594888599 135.20824183 161.735126914 c 0
 134.504849749 161.875136521 133.813055942 162.06818899 133.13286041 162.314284321 c 0
 132.452664878 162.560379653 131.785726984 162.858616873 131.132046729 163.20899598 c 0
 129.93144817 163.852528729 128.832158423 164.557686636 127.834177486 165.324469701 c 0
 126.827706445 166.097776006 125.928393473 166.935377535 125.136238572 167.837274288 c 0
 123.722335549 169.447053565 122.169374394 171.520957669 120.477355107 174.058986599 c 0
 113.29147782 185.164433316 109.698539177 201.478048548 109.698539177 222.999832297 c 0xd0
 109.698539177 226.672559235 109.803172629 230.496958303 110.012439536 234.473029498 c 0
 109.537783826 234.557435887 109.568522221 234.85593094 110.104654721 235.368514659 c 0
 111.113511507 241.926083768 112.205804825 248.585360945 113.381534675 255.34634619 c 0
 114.557261806 262.107341267 115.816939526 268.972886189 117.160567833 275.942980954 c 0
 118.504193375 282.913081553 119.93175225 289.98773772 121.443244458 297.166949456 c 0
 122.199458907 300.758787764 122.976334205 304.375307669 123.773870354 308.016509171 c 0
 124.571406503 311.657710672 125.391062089 315.330216477 126.232837114 319.034026586 c 0
 129.590268159 333.359065713 133.281391664 348.04939419 137.306207628 363.105012018 c 0
 141.330974677 378.160667488 145.686534237 393.573253042 150.372886308 409.342768679 c 0
 155.058367601 425.109503539 160.076582374 441.242249525 165.427530627 457.741006638 c 0
 172.108897875 478.78731347 178.536832957 498.552600207 184.711335874 517.036866848 c 0
 190.885957313 535.521405075 196.817438678 552.75399484 202.505779969 568.734636141 c 0
 208.195701216 584.719567954 213.639864871 599.440115789 218.838270934 612.896279646 c 0
 220.572491493 617.385339511 222.278747035 621.732249133 223.95703756 625.937008512 c 0
 225.635328085 630.141767892 227.286538115 634.206519588 228.910667652 638.1312636 c 0
 230.534797189 642.056007612 232.13173377 645.840403466 233.701477393 649.484451163 c 0
119 234 m 1025
EndSplineSet
EndChar

StartChar: comma
Encoding: 44 44 6
Width: 130
VWidth: 968
Flags: HW
HStem: -85 154
VStem: 6.77913 101.901
LayerCount: 2
Fore
SplineSet
33.0326764553 3.42603268556 m 0
 46.2390338301 30.5338188759 57.3141363808 48.1869755124 66.2579841073 56.3855025951 c 0
 69.1748073684 59.0371601052 72.1423944575 61.2819102395 75.1607453745 63.1197529978 c 0
 78.1790962914 64.9575957562 81.381877638 66.3970976128 84.7690894143 67.4382585677 c 0
 88.1563011906 68.4794195226 91.5666047191 69 95 69 c 0
 105.306825333 69 110.460237999 63.5146410241 110.460237999 52.5439230723 c 0
 110.460237999 48.8782333592 109.884882561 44.6001278893 108.734171683 39.7096066627 c 2
 108.68009806 39.4797937637 l 2
 107.170920978 34.1976739761 103.289388961 24.6078508031 97.0355020098 10.7103242446 c 0
 95.5268475876 7.69301540025 84.70665667 -10.5920785327 64.5749292571 -44.1449575543 c 0
 63.5247787428 -45.8952084116 62.5289943984 -47.5203800286 61.5875762241 -49.0204724054 c 0
 60.6461580498 -50.5205647821 59.7277372453 -51.943482924 58.8323138105 -53.2892268311 c 0
 57.9368903758 -54.6349707381 57.0715204275 -55.8863312434 56.2362039657 -57.043308347 c 0
 55.4008875039 -58.2002854505 54.5917155468 -59.26816616 53.8086880944 -60.2469504755 c 0
 51.3227514548 -63.3543712751 48.8266897378 -66.7877217707 46.3205029434 -70.5470019623 c 2
 45.5841185782 -71.65157851 l 1
 44.5850460787 -72.5257669471 l 1
 36.5850460787 -79.5257669471 l 2
 30.6794483814 -83.175255649 26.4844330218 -85 24 -85 c 0
 12.5194171923 -85 6.77912578846 -78.6473383898 6.77912578846 -65.9420151694 c 0
 6.77912578846 -61.0822987831 7.61894219182 -55.2931749765 9.29857499855 -48.5746437496 c 0
 10.8093995058 -42.5313457207 18.720766658 -25.1977869089 33.0326764553 3.42603268556 c 0
EndSplineSet
EndChar

StartChar: period
Encoding: 46 46 7
Width: 166
VWidth: 968
Flags: HW
HStem: -8 75<42.8117 100.846>
VStem: 36 82.5713<22.8763 39.4588>
LayerCount: 2
Fore
SplineSet
69.4727931995 62.6441111317 m 0
 78.2245174429 65.5480364891 85.4002530431 66.9999994452 91 67 c 0
 94.6403326277 67 97.922349259 66.5127165608 100.846049894 65.5381496825 c 2
 101.073888176 65.4517731334 l 2
 108.631761611 62.2296522217 113.802337056 55.9797960057 116.585614512 46.7022044854 c 0
 118.03996618 39.5842835842 l 1
 118.057344455 39.4587783587 l 1
 118.571295746 32.5447272694 l 1
 118.573986209 32.481636765 l 1
 118.603683403 29.7916651712 l 2
 118.603551638 29.4368873628 118.58419301 29.2297307375 118.545607517 29.1701952954 c 2
 117.756171698 25.2231290738 l 1
 117.469895101 23.7625931091 l 2
 117.78210677 23.4784963402 117.670957904 23.1781065595 117.136448501 22.8614237671 c 0
 115.922285394 20.7172034518 114.718650923 18.7310988264 113.52554509 16.903109891 c 0
 112.332439257 15.0751209555 111.148348142 13.4037563425 109.973271747 11.8890160519 c 0
 108.791705375 10.365909813 107.609334995 8.99532156587 106.426160607 7.77725131038 c 0
 105.242986219 6.55918105489 104.056045781 5.49266269894 102.865339293 4.57769624254 c 0
 98.2833513957 1.05679056836 91.9210019911 -1.98935349718 83.7782910793 -4.56073595408 c 0
 76.8997629874 -6.85357865136 70.6403326277 -8 65 -8 c 0
 60.2582670035 -8 55.8209525583 -7.1963236095 51.6880566644 -5.5889708285 c 0
 49.6051161112 -4.77888018582 47.6401528666 -3.77000897728 45.7931669305 -2.56235720287 c 2
 40.6360389694 1.63603896929 l 2
 39.9964420008 2.27563593785 39.414145667 2.945378007 38.8891499681 3.64526517673 c 0
 38.6152358192 4.01042816536 38.3581981518 4.38745891625 38.1180369659 4.77635742942 c 0
 37.8779801946 5.16509059459 37.6553529663 5.56466399828 37.450155281 5.9750776405 c 0
 36.4833850937 7.90861801517 36 10.2502588017 36 13 c 2
 36 22 l 1
 36.3351288443 26.6966500362 l 2
 36.5580148866 28.291225463 36.8814491323 29.8658143335 37.3054315816 31.4204166478 c 0
 37.7617887387 33.4283881388 38.295069516 35.3212737065 38.9052739136 37.0990733508 c 0
 39.5154783112 38.8768729952 40.1971054337 40.5188226648 40.950155281 42.0249223595 c 0
 46.0902062197 48.924786731 l 2
 47.0826252832 49.9785468987 48.1154192545 50.9793193432 49.1885881336 51.9271040647 c 0
 50.2614597997 52.8747833153 51.3985970885 53.7990819604 52.6 54.7 c 0
 57.506873698 58.3801552735 63.1311380978 61.0281923174 69.4727931995 62.6441111317 c 0
EndSplineSet
EndChar

StartChar: question
Encoding: 63 63 8
Width: 358
VWidth: 968
Flags: HW
HStem: -1.99831 55.7296<137.434 207.846> 188 53<203.238 304.27> 632 44<276.658 401.61>
VStem: 134 76<0.499058 51.6464> 147.63 55.3702<243.883 332.818>
LayerCount: 2
Fore
SplineSet
137.14631285 29.6227398704 m 0xf0
 137.543799281 32.0076584601 137.931167793 33.9613549218 138.308418385 35.4838292555 c 0
 138.720271004 37.1459473673 139.267516636 38.6596450684 139.950155281 40.0249223589 c 0
 140.16658486 40.4577815169 140.416121566 40.8702847823 140.698765401 41.2624321551 c 2
 141.647615288 42.3755373495 l 1
 143.686759856 44.2853475209 l 1
 146.231900822 46.4687658624 l 1
 149.377744572 49.027819285 l 2
 149.628077991 49.2280860195 149.89152498 49.4152345993 150.168085539 49.5892650242 c 0
 150.444646098 49.7632954491 150.733634621 49.9240560808 151.035051106 50.0715469193 c 0
 152.712018496 50.6987471369 l 1
 164.817179375 53.7312825013 l 2
 165.584870204 53.8501706316 166.144578451 53.9259228791 166.496304114 53.9585392438 c 0
 166.848029777 53.9911556085 167.146240079 54.0021443356 167.390935019 53.9915054252 c 2
 190.390935019 52.9915054252 l 1
 191.250113625 52.8264578846 l 1
 194.518520465 51.6845374403 l 1
 195.293545279 51.2786247587 l 1
 206.293545279 43.2786247585 l 1
 208.908367049 40.1671833687 l 2
 209.149148209 39.7148552708 209.328970137 39.3262226716 209.447832834 39.0012855713 c 0
 209.566695531 38.6763484709 209.667229042 38.3487576419 209.749433368 38.0185130844 c 0
 209.832682131 37.6840726442 209.895255428 37.3483765845 209.937153257 37.0114249054 c 0
 209.979051086 36.6744732263 210 36.3373315911 210 36 c 0
 210 35.0365963178 209.826032383 33.2944625689 209.47809715 30.7735987534 c 0
 209.130161917 28.2527349378 208.596644638 24.8350050581 207.877545314 20.5204091143 c 2
 207.852166257 20.3868671869 l 2
 207.069789776 16.7245154751 205.679393396 13.4943736551 203.680977117 10.6964417268 c 0
 201.678834104 7.89329209279 199.105159015 5.58627095322 195.95995185 3.77537830809 c 0
 189.658882444 0.564584651797 182.082863505 -1.35997906986 173.231895033 -1.99831285688 c 0
 166.870424306 -1.99943761896 161.546774238 -1.88211880804 157.260944827 -1.64635642412 c 0
 152.94747794 -1.40907370967 149.249676289 -0.98967026477 146.167539876 -0.38814608941 c 0
 142.997572749 0.230519539383 140.614856657 1.07832180993 139.019391602 2.15526072223 c 0
 137.926916324 3.0904149814 137.065004155 3.97991697236 136.433655096 4.82376669513 c 0
 136.111680027 5.25411274294 135.825631697 5.69587916888 135.575510104 6.14906597297 c 0
 135.325388512 6.60225277706 135.112342147 7.06584326963 134.93637101 7.5398374507 c 0
 134.31212367 9.22130414637 134 11.0413583295 134 13 c 2
 134 18 l 2
 134 19.1554944217 134.214569927 20.2696664507 134.643709782 21.342516087 c 0
 135.772454197 24.1643771235 136.606655219 26.924451718 137.14631285 29.6227398704 c 0xf0
378 676 m 0
 393.175709655 676 406.389047723 674.121254787 417.640014204 670.36376436 c 0
 421.398622915 669.108500088 424.935997108 667.638402673 428.252136783 665.953472114 c 0
 431.568276458 664.268541555 434.6608713 662.369152419 437.52992131 660.255304704 c 0
 440.39897132 658.14145699 443.03750984 655.817150486 445.445536869 653.282385193 c 0
 453.781375527 644.946546535 457.949294856 633.530758533 457.949294856 619.035021187 c 0
 457.949294856 614.841468393 457.600473624 610.39014868 456.902831161 605.68106205 c 2
 456.868882928 605.493311533 l 2
 452.560041847 585.345472001 444.056120215 566.452800721 431.357118034 548.815297692 c 0
 417.721641089 529.043856122 399.707605205 508.301119664 377.31501038 486.587088319 c 0
 373.123404345 482.395482284 368.612668606 477.989761656 363.782803161 473.369926434 c 0
 358.954729242 468.751804831 353.814477916 463.926323789 348.362049183 458.893483308 c 0
 342.90952023 453.860502556 337.144869684 448.619997854 331.068097545 443.171969201 c 0
 329.039484864 441.353240896 326.978705328 439.513680962 324.885758938 437.653289399 c 0
 322.792810199 435.792895522 320.663666252 433.908101249 318.498327099 431.998906581 c 0
 316.333016623 430.089736975 314.127450387 428.152605049 311.881628391 426.187510803 c 0
 294.142712871 411.076582767 278.720932786 396.313564192 265.616288137 381.898455077 c 0
 256.122779422 371.750221624 247.710206512 362.119598313 240.378569406 353.006585144 c 0
 233.046932301 343.893571975 226.804254536 335.310722872 221.650536112 327.258037834 c 0
 215.121130784 316.375695621 210.304067937 305.925761696 207.199347572 295.908236061 c 0
 204.094627207 285.890710425 202.694844683 276.304617857 203 267.149958357 c 0
 203 263.816021244 203.425468549 260.923926489 204.276405646 258.473674094 c 0
 205.097790894 256.108515523 206.379487158 254.001040021 208.121494439 252.151247588 c 0
 208.723150365 251.512364737 209.388097392 250.893671854 210.116335519 250.295168941 c 0
 210.844573646 249.696666028 211.647180753 249.111197122 212.524156838 248.538762223 c 0
 213.401132923 247.966327324 214.351336756 247.409201515 215.374768339 246.867384794 c 0
 216.377510383 246.282451935 217.544400111 245.738305208 218.875437522 245.234944612 c 0
 219.546708792 244.981088857 220.269207375 244.735208767 221.042933272 244.497304341 c 0
 221.816659169 244.259399915 222.640528017 244.030053868 223.514539818 243.809266201 c 0
 225.270388317 243.365714186 227.205681036 242.96681872 229.320417973 242.612579801 c 0
 232.510706698 242.07817554 236.079006138 241.67597841 240.025316292 241.405988409 c 0
 242.002195338 241.27073863 244.071970864 241.169261451 246.234642871 241.10155687 c 0
 248.397314878 241.03385229 250.652433921 241 253 241 c 0
 264.261366246 241 274.804397081 242.228086928 284.629092504 244.684260784 c 2
 338.297810653 260.586103198 l 2
 340.048581796 261.169693579 341.748491893 261.518088453 343.397540944 261.631287818 c 0
 345.046589995 261.744487184 346.622186292 261.616026311 348.124329835 261.245905199 c 2
 349.610085016 260.937311062 l 2
 351.749129881 260.493027432 353.209868798 260.010074628 353.992301766 259.488452649 c 0
 359.39942754 255.883702133 360.527108677 247.827019931 357.375345178 235.318406043 c 2
 356.796953146 232.371278934 l 2
 356.490492671 230.790110034 356.136637867 229.510655816 355.735388732 228.532916279 c 0
 355.334139597 227.555176742 354.817171006 226.826161707 354.184482959 226.345871174 c 0
 353.878125971 226.113307335 353.604618661 225.876696599 353.363961028 225.636038967 c 0
 352.498270427 224.877338921 l 2
 343.628909114 218.134702528 334.069305988 212.377516844 323.819461051 207.60578187 c 0
 318.705042224 205.224804271 313.421645338 203.087805022 307.969270393 201.194784123 c 0
 302.518052566 199.30208894 296.915639809 197.658334357 291.162032123 196.263520373 c 0
 280.128116378 193.505041436 268.431281717 191.43819709 256.071528141 190.062987334 c 0
 243.715606441 188.687662328 230.695765954 187.999999826 217.01200668 187.999999826 c 0
 215.342174181 188.00002409 213.70279283 188.02604072 212.09403852 188.078499113 c 0
 210.489137571 188.130831855 208.913574275 188.209422044 207.367348634 188.314269681 c 0
 205.821122992 188.419117318 204.305208922 188.55021665 202.819606424 188.707567677 c 0
 201.334003927 188.864918704 199.877793247 189.048665562 198.450974384 189.258808249 c 0
 197.024155521 189.468950936 195.627540259 189.705430643 194.261128596 189.96824737 c 0
 187.411303263 191.285748325 181.315952945 193.279717629 175.975077641 195.950155281 c 0
 172.654933695 197.610227254 169.651652618 199.551808086 166.965234411 201.774897779 c 0
 164.278816204 203.997987472 161.916496837 206.496232055 159.878276312 209.26963153 c 0
 157.840055787 212.043031005 156.131577305 215.084214467 154.752840868 218.393181916 c 0
 150.004173183 228.75391141 147.629839341 240.760835619 147.629839341 254.413954543 c 0xe8
 147.629839341 264.090541186 148.822515164 274.59404467 151.207866811 285.924464992 c 0
 152.951417432 293.596087725 155.29014138 301.581670669 158.224038653 309.881213822 c 0
 161.157935926 318.180756975 164.687882181 326.800356724 168.813877417 335.740013069 c 0
 172.416344473 343.665440592 177.525530003 352.153911943 184.141434007 361.205427124 c 0
 190.70679095 370.187786601 198.807885328 379.841554811 208.444717143 390.166731755 c 0
 219.924028322 402.321296532 233.487190086 415.466475645 249.134202435 429.602269095 c 0
 264.781214784 443.738062546 282.522648564 458.87478173 302.358503776 475.012426648 c 0
 315.478039909 485.508055555 327.935557044 496.405745222 339.73105518 507.70549565 c 0
 351.526553316 519.005246078 362.646689464 530.693506353 373.091463623 542.770276474 c 0
 377.045872225 547.673743141 380.636383964 552.37851705 383.86299884 556.884598201 c 0
 387.089613715 561.390679352 389.939816447 565.680209919 392.413607035 569.753189901 c 0
 397.309000221 577.813224794 400.630985687 584.757538483 402.379563433 590.58613097 c 0
 403.905714766 595.673302081 404.202099455 600.08365155 403.268717499 603.817179375 c 0
 403.02906653 604.998451398 402.773562734 606.095496927 402.502206111 607.108315962 c 0
 402.230849488 608.121134996 401.93360969 609.095042218 401.610486717 610.030037627 c 0
 400.966556468 611.8933277 400.222261407 613.60469485 399.377601532 615.164139077 c 0
 398.535533203 616.718798689 397.581731925 618.174379019 396.516197698 619.530880066 c 0
 395.45066347 620.887381113 394.271703376 622.147205319 392.979317415 623.310352684 c 0
 390.186073438 626.092779831 386.31212233 628.221411372 381.357464091 629.696247307 c 0
 378.788762054 630.460863934 375.889755411 631.035976873 372.660444163 631.421586124 c 0
 369.431132915 631.807195375 365.877651527 632 362 632 c 0
 358.065716656 632 353.977595757 631.696760414 349.735637302 631.090281241 c 0
 347.599035874 630.784808125 345.406780762 630.398175893 343.158871965 629.930384544 c 0
 340.910963169 629.462593195 338.593482785 628.910423925 336.206430813 628.273876732 c 0
 332.846212483 627.470346262 329.478696916 626.626496174 326.103884112 625.742326468 c 0
 322.729071308 624.858156761 319.346428061 623.933523717 315.955954372 622.968427335 c 0
 312.565480683 622.003330953 309.167299671 620.997774163 305.761411337 619.951756966 c 0
 302.355523003 618.905739769 298.941592445 617.819184903 295.519619663 616.692092369 c 0
 292.097646881 615.564999835 288.667543471 614.397301673 285.229309434 613.188997883 c 0
 281.791075397 611.980694093 278.344587354 610.731778304 274.889845305 609.442250517 c 0
 271.435103256 608.15272273 267.971807275 606.822444095 264.49995736 605.451414611 c 0
 261.028107445 604.080385128 257.547791744 602.668669315 254.059010255 601.216267174 c 0
 250.570228767 599.763865033 247.07248326 598.270571253 243.565773735 596.736385836 c 0
 227.647595284 589.962692879 215.149442003 584.677398297 206.071313892 580.880502091 c 0
 196.964415129 577.071572658 190.994014156 574.635751095 188.160110975 573.573037402 c 0
 184.534317776 572.213364953 180.900692387 572.44875764 177.25923481 574.279215463 c 0
 173.743837446 576.046306379 170.273214102 579.132183546 166.847364777 583.536846964 c 0
 166.246998362 584.337335517 165.714260822 585.170901882 165.249152158 586.037546058 c 0
 164.784043493 586.904190234 164.382870716 587.809957261 164.045633825 588.754847138 c 0
 163.375812534 590.631591278 162.968208866 592.614942104 162.822822823 594.704899616 c 0
 162.678971569 596.772794181 162.768182147 598.962091711 163.090454557 601.272792206 c 2
 166.186519827 606.870476568 l 2
 168.028976174 608.429478092 169.935240328 609.969083113 171.905312289 611.489291632 c 0
 173.875149412 613.009401719 175.907652025 614.509865008 178.002820128 615.990681499 c 0
 180.097925023 617.471523046 182.26054745 618.936425658 184.490687408 620.385389336 c 0
 186.720485404 621.834199968 189.014078299 623.26547728 191.371466092 624.679221271 c 0
 193.727454614 626.09217862 196.160702351 627.496020336 198.671209303 628.89074642 c 0
 206.942298212 633.370919579 216.119327415 637.665291402 226.202296913 641.773861889 c 0
 236.285266411 645.882432376 247.266163067 649.803389933 259.144986882 653.53673456 c 0
 280.174021867 660.9986502 300.234439726 666.434233085 319.326240458 669.843483216 c 0
 329.563604475 671.890956019 339.57732956 673.428806584 349.367415714 674.457034909 c 0
 359.159399838 675.485462574 368.7035946 675.999784271 378 676 c 0
341 252 m 1025
448 607 m 1025
348 231 m 1025
341 253 m 1025
449 607 m 1025
341 255 m 1025
341 257 m 1025
EndSplineSet
EndChar

StartChar: A
Encoding: 65 65 9
Width: 473
VWidth: 1084
Flags: HW
HStem: -29 44.9998<-38.3154 59.8885> 687 20G<568.653 585.53>
LayerCount: 2
Fore
SplineSet
156 195.392664539 m 2
 156 205 l 1
 156.116253762 205.827047539 l 1
 157.028263938 209.007041179 l 2
 156.769988673 209.225593248 156.883239115 209.479909675 157.368015264 209.76999046 c 2
 162.368015264 217.769990461 l 2
 162.730178448 218.349451554 163.152853016 218.880775078 163.636038969 219.363961031 c 2
 164.636038969 220.363961031 l 1
 165.513934842 220.972823023 l 1
 169.340909937 222.715766862 l 1
 170.376501612 222.978376789 l 1
 216.383109939 226.173280145 257.045542584 231.896682386 292.363799549 240.148583513 c 1
 311.336013324 259.779665468 321.760731719 271.491296025 323.637954736 275.283475184 c 0
 325.002075383 278.039135988 330.051935015 291.466040604 338.787533633 315.564189031 c 0
 340.390176287 319.985262187 341.965145839 324.387759095 343.512442289 328.771679755 c 0
 345.05973926 333.155601073 346.578892313 337.519587365 348.069901448 341.863638631 c 0
 349.560926885 346.207736462 351.023482185 350.530913124 352.45756735 354.833168617 c 0
 396.832194484 488.629392856 448.756032782 589.994840458 508.229082243 658.929511424 c 0
 536.715297695 690.976503808 559.805603614 707 577.5 707 c 0
 593.560726572 707 601.591089859 696.59594922 601.591089859 675.787847661 c 0
 601.591089859 667.49250476 600.314830437 657.543654121 597.762311594 645.941295747 c 0
 593.663951881 629.547856896 589.156595892 614.314949564 584.240243625 600.242573752 c 0
 579.315666091 586.146654254 573.931006485 573.08204866 568.086264806 561.04875697 c 0
 564.487760184 553.684375418 560.952681709 546.545927427 557.481029381 539.633412996 c 0
 554.009345746 532.720851217 550.597205426 526.026708025 547.24460842 519.550983418 c 0
 543.891940507 513.075140776 540.601383667 506.823488575 537.372937902 500.796026814 c 0
 534.14447267 494.7685548 530.975695464 488.96054286 527.866606283 483.371990993 c 0
 524.757395144 477.783254026 521.708754698 472.416663302 518.720684947 467.272218819 c 0
 515.732577336 462.1277572 512.804119343 457.203640943 509.935310967 452.499870048 c 0
 507.066331286 447.795884367 504.256125508 443.311810267 501.504693633 439.047647749 c 0
 500.131340519 436.919275836 498.771340558 434.84386976 497.424693751 432.821429522 c 0
 496.078046944 430.798989284 494.750806458 428.838534689 493.442972291 426.940065737 c 0
 476.259036066 401.494621712 457.744215831 374.844332762 437.898511587 346.989198889 c 0
 428.028506876 333.135787402 417.83403601 318.991794215 407.31509899 304.557219326 c 0
 396.79616197 290.122644437 386.05453632 275.535582287 375.09022204 260.796032876 c 0
 374.724757261 259.66450609 374.41240927 258.68048422 374.153178067 257.843967265 c 0
 373.893946864 257.00745031 373.625857374 256.120242005 373.348909597 255.182342351 c 2
 373.064370171 254.202238099 l 1
 383.937676992 256.193226479 396.633909068 258.728631295 411.153066401 261.808452547 c 2
 473.226596361 274.82387012 l 2
 482.819398194 276.668639703 489.878528214 277.990208345 494.403986423 278.788576046 c 0
 498.98186741 279.596192015 501.847205269 280 503 280 c 0
 511.381363415 279.388307317 517.458588009 278.85990471 521.231673783 278.414792179 c 0
 525.064311177 277.962654317 529.693950501 277.126306461 535.120591754 275.905748612 c 0
 541.013935103 274.241593286 545.222004945 272.211650281 547.74480128 269.815919598 c 0
 550.412578131 266.879581681 551.474478001 263.235504277 550.93050089 258.883687388 c 0
 550.712311112 257.138169164 550.040141321 255.589720169 548.913991517 254.238340403 c 0
 544.310895767 248.714625504 487.338805971 232.796198808 377.997722128 206.483060316 c 2
 370.417459182 204.658791608 l 1
 363.414748303 202.973060516 l 1
 362.333672533 202.712768355 l 1
 361.151870749 202.42819914 l 1
 359.910158734 202.12918476 l 1
 358.656159429 201.827195153 l 1
 357.243793015 201.487036962 l 1
 350.439668406 176.949863919 343.953631915 150.803393558 337.785683542 123.04762588 c 0
 331.151957133 93.1958570379 325.150417542 65.5209919032 319.781064771 40.0230304758 c 2
 318.937396359 35.949826175 l 2
 318.603959979 34.3221840692 318.227278204 32.467201621 317.807351035 30.3848788304 c 0
 316.963641556 26.2011077262 316.338035759 23.159146424 315.930533643 21.2589949237 c 0
 315.52096052 19.3491864786 314.956695382 16.8821542178 314.237738228 13.8578981413 c 2
 312.218887845 6.79462715064 l 2
 311.64127446 5.27929296784 310.936447296 3.60798808563 310.104406353 1.78071250401 c 0
 307.090871704 -3.00956945397 l 1
 303.024922359 -6.04984471904 l 1
 300.674094695 -6.81505654074 l 1
 300.189473481 -6.92105110615 l 1
 285.189473481 -8.92105110615 l 2
 278.55399776 -8.90205559462 273.863549916 -7.7501304628 271.11812995 -5.46527571071 c 0
 268.372709983 -3.18042095862 267 0.308004278287 267 5 c 2
 267.044665288 5.89553347123 l 2
 267.72833175 12.7321980867 269.083487758 22.5682413167 271.110133312 35.4036631612 c 0
 273.101993491 48.0187776287 274.767518632 58.0169561321 276.106708737 65.3981986715 c 0
 276.425480412 67.8010086605 276.711849194 70.1682408716 276.965815083 72.4998953047 c 0
 277.220616746 74.8391670734 277.44274511 77.1417347726 277.632200176 79.4075984024 c 0
 277.821663839 81.6734805515 277.978573323 83.9027446513 278.102928628 86.0953907018 c 0
 278.227293587 88.2880639641 278.31916994 90.4445685884 278.378557686 92.5649045746 c 0
 278.45798503 95.3954759469 278.480103358 98.152214577 278.444912671 100.835120465 c 0
 278.409750483 103.518097222 278.317803409 106.124670271 278.169071449 108.654839611 c 0
 278.020429598 111.184125086 277.814972393 113.641667673 277.552699833 116.027467372 c 0
 276.936571507 121.695847965 275.317437021 126.867493723 272.695296376 131.542404647 c 0
 271.977327796 132.822442453 271.129375117 134.134118286 270.151438339 135.477432147 c 0
 269.173501561 136.820746007 268.128070422 138.121672655 267.015144921 139.38021209 c 0
 265.90221942 140.638751525 264.74247879 141.839636961 263.535923031 142.982868397 c 0
 242.248660397 122.36242079 224.90637638 105.75062195 211.50907098 93.1474718777 c 0
 206.974767947 88.8819498269 202.852979093 85.0385507555 199.143704418 81.6172746634 c 0
 195.434429743 78.1959985714 192.129405113 75.189415667 189.228630528 72.5975259502 c 0
 186.327855943 70.0056362335 183.832822591 67.8299894307 181.743530473 66.0705855418 c 0
 104.051439062 2.6901951806 44.4702622381 -29 3 -29 c 0
 -14.0553475502 -29 -28.8148891364 -20.4311817597 -41.2786247587 -3.29354527909 c 0
 -41.847765355 -2.51097695925 -42.2769463776 -1.67498824013 -42.5661678265 -0.785579121718 c 0
 -42.8553892755 0.10382999669 -43 1.0323563706 -43 2 c 0
 -43 5.81861470758 -41.7879870102 8.93993505115 -39.3639610306 11.3639610307 c 0
 -38.2166907969 12.5112312644 -36.8593256006 13.2910134813 -35.2918654417 13.7033076815 c 2
 -30.7405731185 15.1775469107 l 1
 -28.7716548779 15.8221583481 l 2
 -28.5762022498 15.8613720769 -28.3800003752 15.8941172401 -28.1830492539 15.9203938376 c 0
 -27.5896243693 15.9732425377 -27.1937877342 15.9996969322 -26.9955393487 15.9997570209 c 0
 -26.7972909632 15.9998171096 -26.5992208154 15.9932535762 -26.4013289053 15.9800664207 c 2
 -11.7012208161 15.0000592148 l 1
 39.6882952697 15.0613733699 112.800715198 62.1826739753 207.636038969 156.363961031 c 2
 222.014112734 170.742034795 l 1
 206.802908248 177.612620088 190.379156257 181.047912735 172.742856762 181.047912735 c 0
 171.54034191 181.047912735 170.332189842 181.031941823 169.118400557 181 c 0
 159.839738536 181 155.46693835 185.797554846 156 195.392664539 c 2
284.641806656 -8.99668591459 m 1
 285.246311405 -9 l 2
 284.909504177 -8.99779060973 284.708002594 -8.99668591459 284.641806656 -8.99668591459 c 1
417.624700821 396.432417765 m 1
 423.406782757 404.845418854 429.288227905 413.407554471 435.269036266 422.118824614 c 0
 442.875068357 433.197293653 450.64453638 444.520937182 458.577440333 456.0897552 c 0
 474.353913218 479.097111491 493.652733077 513.09121492 516.473899909 558.072065487 c 0
 524.012109931 572.929986689 530.527854423 586.237951018 536.021133385 597.995958475 c 0
 541.503362779 609.730315047 545.836716342 619.601159938 549.021194073 627.608493147 c 0
 549.652442859 629.195761074 550.240743542 630.713116302 550.786096123 632.160558831 c 0
 551.331448703 633.60800136 551.832886058 634.982703227 552.290408188 636.284664431 c 0
 552.747930318 637.586625635 553.162561812 638.818411101 553.534302671 639.980020828 c 0
 553.906043529 641.141630556 554.234340021 642.231082935 554.519192148 643.248377964 c 0
 554.804044275 644.265672993 555.046063233 645.212529245 555.245249022 646.088946719 c 0
 555.475785521 647.011092713 555.687867613 647.896781677 555.881495298 648.74601361 c 0
 556.075018445 649.59478705 556.256121575 650.432570859 556.424804688 651.259365037 c 0
 556.674282269 652.482131499 556.89339117 653.665827127 557.082131391 654.810451921 c 2
 554.495853863 652.365321065 l 2
 553.8016301 651.6630826 553.080611088 650.894671335 552.332796825 650.060087269 c 0
 551.584982563 649.225503204 550.81898673 648.334275187 550.034809325 647.386403218 c 0
 540.006267602 634.727424322 530.48647142 621.896874884 521.475420779 608.894754904 c 0
 512.464370138 595.892634925 503.968980987 582.72873129 495.989253326 569.403043999 c 0
 480.026071288 542.745446017 466.127892971 515.446927017 454.294718376 487.507487 c 0
 445.203332666 465.915445938 436.824882718 445.447303137 429.159368533 426.103058596 c 0
 427.792456026 422.653622211 426.444195518 419.229692664 425.114587009 415.831269955 c 0
 423.7849785 412.432847246 422.496962197 409.119331551 421.250538099 405.890722872 c 0
 420.004114 402.662114193 418.795501574 399.509345824 417.624700821 396.432417765 c 1
302.457689212 181.729767151 m 2
 298.507852086 177.779930025 l 2
 299.222369495 176.951229349 299.925693532 176.118481541 300.617824195 175.281686601 c 1
 300.859841252 176.027103532 301.110418756 176.789482548 301.369556706 177.56882365 c 0
 301.532642565 178.189065587 301.714518232 178.882967669 301.915183705 179.650529896 c 0
 302.115849178 180.418092123 302.296684347 181.111171208 302.457689212 181.729767151 c 2
301.369556706 177.56882365 m 1
 301.369556706 177.56882365 l 1
302.328559631 177.283630198 m 1025
304.246502997 176.713023091 m 1025
EndSplineSet
EndChar

StartChar: B
Encoding: 66 66 10
Width: 511
VWidth: 875
Flags: HW
HStem: -7 57.5041<180.198 370.347> 640.818 46.1822<287.629 525.015>
VStem: 458.907 52.0926<140.622 187.18>
LayerCount: 2
Fore
SplineSet
455.644967155 170.328194833 m 1
 455.644967155 170.328194833 l 1
451.185368275 176.623058059 m 1
 451.185368275 176.623058059 l 1
240.293472854 264.189887563 m 1
 220.490099977 218.073072359 204.194694803 180.07290419 191.407257332 150.189383057 c 0
 178.619819861 120.305861924 169.297952765 98.4408411515 163.441656045 84.5943207404 c 0
 164.888449673 83.3657910882 166.143858672 82.3372986038 167.207883042 81.5088432872 c 0
 168.271907412 80.6803879705 169.430183135 79.8255595191 170.68271021 78.9443579328 c 0
 171.951631523 78.0516223617 173.305133657 77.1496644808 174.743216613 76.2384842899 c 0
 176.18129957 75.327304099 177.703499843 74.4073330971 179.309817434 73.4785712842 c 0
 182.661277443 71.5407800956 186.294752509 69.6458277151 190.210242631 67.7937141426 c 0
 194.125534359 65.9419807772 198.320493075 64.1357739181 202.79511878 62.3750935653 c 0
 212.439429491 58.5806106624 221.447318376 55.7361410091 229.818785433 53.8416846055 c 0
 238.190252491 51.9472282018 245.917324013 51 253 51 c 0
 257.483454487 51 262.494032462 50.8346908189 268.031733925 50.5040724566 c 0
 279.676698808 50.6663599151 291.811883419 51.7630848897 304.437287758 53.7942473806 c 0
 310.76719662 54.8129271366 317.139305451 56.0577088273 323.553614252 57.5285924527 c 0
 326.757497333 58.2633026894 329.970434956 59.0542248648 333.192427121 59.9013589791 c 0
 336.414419286 60.7484930934 339.636472437 61.6494103931 342.858586574 62.6041108782 c 0
 377.322243614 73.5551794705 405.083171395 87.9644949574 426.141369916 105.832057339 c 0
 443.997712093 121.225455768 454.704539933 136.33322478 458.261853435 151.155364373 c 0
 458.518224922 152.180850318 458.697681171 153.117618022 458.800222184 153.965667484 c 0
 458.851721053 154.391580859 458.887453867 154.810689718 458.907420626 155.222994061 c 0
 458.927516937 155.636775245 458.932635175 156.075751208 458.922775339 156.53992195 c 0
 458.926835579 157.826705647 458.862692481 159.070450246 458.730346044 160.271155745 c 0
 458.597999608 161.471861245 458.396633336 162.643340645 458.126247228 163.785593946 c 0
 457.859539421 164.912308165 457.517454847 166.024734507 457.099993506 167.122872972 c 0
 456.689673108 168.202081201 456.204664324 169.270521821 455.644967155 170.328194833 c 2
 451.185368275 176.623058059 l 2
 450.295362004 177.607517995 449.312035628 178.583787826 448.235389149 179.551867553 c 0
 447.143148094 180.533570781 445.954501602 181.504782952 444.669449674 182.465504066 c 0
 443.381659191 183.427983708 441.994466596 184.376446466 440.507871888 185.310892341 c 0
 439.019864703 186.246005314 437.438809368 187.161982377 435.764705882 188.05882353 c 0
 432.743077528 189.670358652 426.96103776 191.940418736 418.418586578 194.869003781 c 0
 409.837802689 197.810730323 398.415604428 201.423933993 384.151991795 205.708614791 c 0
 369.881043962 209.995499028 353.006198605 214.87471964 333.527455725 220.346276629 c 0
 315.639751578 225.500360875 298.86011861 231.76888691 283.188556821 239.151854733 c 0
 267.516995032 246.534822556 253.218633709 254.8808335 240.293472854 264.189887563 c 1
448 687 m 0
 463.229551557 687 477.17271165 686.428161637 489.829480279 685.284484912 c 0
 502.486248908 684.140808187 513.863481668 682.423014093 523.961178557 680.131102628 c 0
 565.809648306 670.63260127 586.73388318 651.599583101 586.73388318 623.032048119 c 0
 586.73388318 617.975719411 586.078380232 612.620698591 584.767374333 606.966985662 c 2
 584.632032792 606.452842783 l 2
 583.350842784 602.111032201 581.604007678 597.636365115 579.391527473 593.028841525 c 0
 577.179047268 588.421317936 574.504995308 583.685541379 571.369371592 578.821511854 c 0
 568.233747876 573.957482329 564.632312407 568.957100031 560.565065186 563.82036496 c 0
 556.497817965 558.683629889 551.973008021 553.418052357 546.990635355 548.023632365 c 0
 542.008262688 542.629212374 536.559911615 537.09494334 530.645582135 531.420825263 c 0
 501.117532464 503.092061879 459.917783679 471.134404451 407.046335778 435.547852979 c 0
 381.786461461 418.442741237 359.590730063 402.828506591 340.459141585 388.705149041 c 0
 321.353708909 374.601100278 307.274434777 363.665535362 298.221319189 355.898454293 c 0
 294.262334048 352.501860243 290.980053121 349.476719911 288.374476408 346.823033297 c 0
 286.045827855 344.451388102 284.587039804 342.812496754 283.998112255 341.906359254 c 0
 283.77583428 338.769445287 281.685358151 334.974234019 277.726683868 330.52072545 c 0
 277.150021896 329.871980732 276.622461592 329.272187319 276.144002957 328.72134521 c 0
 275.665544322 328.170503101 275.236847766 327.669412417 274.857913291 327.21807316 c 0
 274.115951813 326.334341635 273.659464932 325.764216659 273.488452649 325.507698234 c 2
 270.689751539 321.309646568 l 1
 270.10840341 319.814383692 l 1
 270.735180505 318.131898138 l 2
 271.54293103 316.247146912 272.460688412 314.533948121 273.488452649 312.992301766 c 0
 289.830152513 288.479751971 318.451502196 273.114916069 359.352501698 266.897794062 c 2
 359.597617062 266.850022166 l 2
 374.734684011 263.239996487 388.358434365 259.819654841 400.468868125 256.588997228 c 0
 412.58308463 253.357283419 423.215553421 250.305068378 432.366274498 247.432352105 c 0
 441.52931724 244.55576765 449.193978241 241.861381499 455.3602575 239.349193653 c 0
 473.887185235 231.938422559 487.79853171 220.229253623 497.094296925 204.221686845 c 0
 506.364765642 188.257681342 511 168.183785727 511 144 c 2
 511 143 l 1
 510.653362161 140.622086674 l 1
 510.538149682 140.153950106 l 1
 497.739114928 103.928362525 468.215332403 70.3752492059 421.966802108 39.4946101484 c 0
 398.610855965 24.0384693189 371.969908347 12.4107310776 342.043959253 4.61139542435 c 0
 312.082271762 -3.12953485855 279.067618677 -7 243 -7 c 2
 234 -7 l 2
 224.726334343 -7 214.648759164 -5.77811608269 203.767274462 -3.33434824806 c 0
 192.909089124 -0.895812993327 181.223040519 2.75671527573 168.709128648 7.62323655911 c 0
 163.835224594 9.5379845803 159.059655802 11.6326151127 154.382422272 13.9071281563 c 0
 149.705667412 16.1814674922 145.13944295 18.6291059441 140.683748887 21.250043512 c 0
 136.228497062 23.8707778655 131.884142162 26.6639535138 127.650684185 29.6295704569 c 0
 123.417321279 32.5951331461 119.311157678 35.7213997438 115.332193381 39.00837025 c 0
 84.5221805887 63.5163349708 65.9530120697 91.2622308879 65.9530120697 121.527987344 c 0
 65.9530120697 133.866139629 72.2588422001 153.310647624 84.8705024608 179.861511331 c 1
 90.6596265284 188.20742058 l 1
 91.5793100682 189.30226501 l 1
 92.6360389693 190.363961031 l 1
 96.9208866638 192.743114595 l 2
 98.5508228462 193.121198432 100.163415206 193.057841134 101.758663743 192.553042701 c 2
 105.843641904 189.845046235 l 2
 105.993799049 189.669235524 106.136717634 189.486833577 106.272397659 189.297840392 c 0
 106.408077684 189.108847207 106.536351916 188.913580659 106.657220355 188.712040746 c 0
 106.77701952 188.512283775 106.889590087 188.307197137 106.994932054 188.096780834 c 0
 107.100274021 187.886364531 107.198330344 187.670858878 107.289101023 187.450263876 c 0
 107.468475326 187.014340342 107.613967259 186.583476962 107.725576823 186.157673737 c 0
 107.837186387 185.731870512 107.91377235 185.31115709 107.955334712 184.895533471 c 0
 108.1124395 183.324485587 108.34101449 181.544502696 108.641059683 179.555584799 c 0
 108.941104875 177.566666902 109.313162393 175.36586397 109.757232238 172.953176003 c 0
 110.201302083 170.540488037 110.718258137 167.913369084 111.308100401 165.071819145 c 0
 111.897942665 162.230269206 112.560163218 159.177052366 113.29476206 155.912168625 c 0
 113.336856453 155.678145595 113.401828079 155.366146114 113.48967694 154.976170181 c 0
 113.5775258 154.586194248 113.691335143 154.104657983 113.831104968 153.531561384 c 0
 114.109321098 152.390795002 114.484188834 150.917850009 114.955708177 149.112726404 c 0
 115.909834275 145.460033115 117.14452376 140.90621641 118.659776632 135.45127629 c 2
 120.964773505 129.008683037 l 1
 124.451174881 121.716498177 l 1
 124.63993911 121.370445606 l 1
 190.047551423 274.330738368 239.96362377 391.412745349 274.388156152 472.616466549 c 0
 291.711573615 513.480520888 305.081559625 545.186555434 314.498114184 567.734570187 c 0
 315.4376333 569.984255152 316.337993918 572.143264948 317.199196039 574.211599574 c 0
 318.06039816 576.2799342 318.879541013 578.250605263 319.656624598 580.123612764 c 0
 320.433708183 581.996620265 321.171200695 583.777848499 321.869102133 585.467297465 c 0
 322.567003572 587.156746431 323.22305319 588.74896501 323.837250987 590.243953201 c 0
 324.451448784 591.738941392 325.025580264 593.140943734 325.559645425 594.449960227 c 0
 326.093710586 595.758976719 326.586131375 596.971195999 327.03690779 598.086618067 c 0
 327.487684205 599.202040134 327.897919059 600.22326977 328.26761235 601.150306974 c 0
 328.637305641 602.077344179 328.965562006 602.908017346 329.252381445 603.642326475 c 0
 329.539200884 604.376635604 329.785003517 605.01554572 329.989789344 605.559056823 c 0
 330.19457517 606.102567925 330.358088849 606.55004568 330.480330382 606.901490087 c 0
 331.128750577 608.84675067 332.076154766 610.618051465 333.32254295 612.21539247 c 0
 334.568931135 613.812733475 336.090399533 615.210253514 337.886948144 616.407952589 c 0
 339.327955312 617.437243423 340.818220162 618.357099401 342.357742695 619.167520523 c 0
 343.897265228 619.977941646 345.469889949 620.669490556 347.075616858 621.242167255 c 0
 348.168725303 621.632020431 349.265050883 621.957130738 350.3645936 622.217498175 c 0
 351.464136317 622.477865612 352.567341883 622.673374442 353.6742103 622.804024665 c 0
 354.781078717 622.934674888 355.889675283 623 357 623 c 0
 358.345019938 623 359.637472049 622.930120317 360.877356332 622.79036095 c 0
 362.117240616 622.650601583 363.304610176 622.440213191 364.439465011 622.159195772 c 0
 366.729235002 621.592193517 368.808107785 620.717155179 370.67608336 619.53408076 c 0
 372.55706727 618.342767567 374.162573231 616.853078301 375.492601243 615.06501296 c 0
 376.270066006 614.019803549 376.935657443 612.909777413 377.489375554 611.734934553 c 0
 378.043093664 610.560091694 378.483068273 609.329243162 378.809299381 608.042388959 c 0
 379.13553049 606.755534756 379.351581614 605.408690036 379.457452753 604.0018548 c 0
 379.563323892 602.595019564 379.559396003 601.136401792 379.445669084 599.626001485 c 0
 379.331942165 598.115601178 379.109728604 596.550036562 378.779028401 594.929307637 c 0
 378.04814137 590.543985448 375.872795993 584.125002793 372.252992271 575.672359672 c 0
 368.655602092 567.272054659 363.580673327 556.691868154 357.028205977 543.931800157 c 0
 356.785549616 543.446487435 356.012922225 541.714539094 354.710323802 538.735955133 c 0
 353.407725379 535.757371172 351.626190173 531.646374926 349.365718184 526.402966394 c 0
 344.749085464 515.694188975 338.553757753 501.217237807 330.779735052 482.97211289 c 0
 320.842983239 459.651164756 312.678284943 439.923161843 306.285640164 423.78810415 c 1
 309.898624213 426.459670428 313.66494532 429.25430394 317.584603485 432.172004686 c 0
 321.50426165 435.089705432 325.596159971 438.14458681 329.86029845 441.33664882 c 0
 334.124436928 444.528710831 338.558364526 447.856013488 343.162081245 451.318556791 c 0
 347.765797963 454.781100094 352.570629549 458.402371938 357.576576003 462.182372321 c 0
 390.24721631 486.852039491 411.921690975 503.191248717 422.6 511.2 c 0
 456.47477973 536.606084797 482.59681682 558.109747923 500.966111269 575.710989377 c 0
 518.918905664 592.913145388 528.291072966 604.415028836 529.082613175 610.216639719 c 2
 529.142428036 610.529762084 l 2
 530.572657933 616.326249438 521.545037855 622.647616233 502.059567802 629.493862468 c 0
 496.519657997 631.393260115 490.633786547 633.059652157 484.401953452 634.493038593 c 0
 478.170120357 635.926425029 471.593009324 637.126095692 464.670620353 638.092050582 c 0
 461.20250482 638.575993795 457.650297185 638.999621158 454.013997449 639.362932671 c 0
 450.377714126 639.726220702 446.656621926 640.029171064 442.850720851 640.271783758 c 0
 439.044866316 640.514375037 435.15398856 640.696393079 431.178087583 640.817837884 c 0
 427.202206489 640.939266573 423.142843961 640.999987279 419 641 c 0
 385.771692564 641 348.869777774 636.430461931 308.29425563 627.291385793 c 0
 273.369086253 616.736012156 238.091513864 604.036319456 202.461538462 589.192307693 c 0
 184.517548128 581.715645054 170.456826841 575.850108644 160.279374601 571.595698464 c 0
 155.201199056 569.472903854 151.101097956 567.755950508 147.979071301 566.444838425 c 0
 144.857044646 565.133726343 142.730102486 564.235629374 141.598244821 563.750547517 c 0
 132.646238406 559.811664694 124.762855582 556.993720256 117.948096349 555.296714202 c 0
 114.447903835 554.42509898 111.151871606 553.861226326 108.059999662 553.60509624 c 0
 104.968127718 553.348966154 102.067095463 553.402652662 99.356902897 553.766155764 c 2
 97.1502045875 553.93267759 l 2
 96.6792819897 553.954954361 96.1810041574 553.971747231 95.6553710906 553.9830562 c 0
 95.12990957 553.994337378 94.5781192065 553.999985311 94 554 c 2
 93.0061162654 554.055046388 l 2
 88.5149625997 554.554063462 84.4247198014 555.322384113 80.7353878707 556.36000834 c 0
 79.5005675597 556.707301426 78.3071460193 557.087467562 77.1551232495 557.500506747 c 0
 76.0031004796 557.913545932 74.8904679705 558.360473471 73.8172257222 558.841289365 c 0
 72.7439834738 559.322105259 71.7123371466 559.836138047 70.7222867405 560.383387729 c 0
 67.7355150714 562.034323717 65.1833746281 563.975265317 63.0658654105 566.206212528 c 2
 60.2568854048 570.920886664 l 2
 59.8788015675 572.550822847 59.9421588655 574.163415206 60.4469572988 575.758663742 c 0
 60.7013990467 576.562742755 61.0558208925 577.307493469 61.5102228363 577.992915886 c 0
 61.9646247801 578.678338303 62.5128684228 579.295246975 63.1549537644 579.843641904 c 2
 64.8591180452 580.96980577 l 1
 165.032938348 627.379552315 250.787930349 658.323726366 322.124094049 673.802327923 c 0
 342.766197812 678.20146479 363.577465699 681.500876113 384.557897712 683.700561891 c 0
 405.538137857 685.900187297 426.685505287 687 448 687 c 0
EndSplineSet
EndChar

StartChar: C
Encoding: 67 67 11
Width: 432
VWidth: 875
Flags: HW
HStem: -9.21767 57.9198<146.486 271.142>
VStem: 61.7273 57.5804<77.3031 218.619>
LayerCount: 2
Fore
SplineSet
460.368056652 674.682874391 m 2
 462.954624185 673.977446882 465.462953171 673.22859429 467.893043611 672.436316613 c 0
 470.323216563 671.643971684 472.678606669 670.806622676 474.95921393 669.924269591 c 0
 477.239896043 669.041840684 479.442634981 668.115134588 481.567430744 667.144151303 c 0
 483.687901585 666.175083998 485.729137315 665.158832752 487.691137935 664.095397563 c 0
 489.653099254 663.031904273 491.526779481 661.925862798 493.312178616 660.777273137 c 0
 495.098963519 659.627676456 496.781888659 658.445545278 498.360954034 657.230879605 c 0
 521.086080285 640.998646568 532.448643411 627.494661581 532.448643411 616.718924644 c 0
 532.448643411 615.600772208 532.337317869 614.509070478 532.114666785 613.443819453 c 0
 531.8913361 612.375316947 531.557074429 611.345206909 531.111881774 610.353489338 c 0
 530.294792425 608.533329332 529.158813511 606.701510397 527.703945033 604.858032532 c 2
 527.390333967 604.5181845 l 2
 523.865246342 601.244888849 518.644204285 600.102312201 511.727207796 601.090454557 c 0
 510.240424951 601.437284626 l 2
 508.2689992 602.091587039 505.660147227 602.905679974 502.413869031 603.879563433 c 0
 498.93232575 604.924026417 494.785360215 606.305612871 489.972972427 608.024322795 c 0
 488.340426112 608.60737505 486.635751666 609.246420133 484.858949087 609.941458044 c 0
 483.082097058 610.636482813 481.235109674 611.386498993 479.317986936 612.191506582 c 0
 477.400840363 612.996504207 475.409762653 613.8579007 473.344753806 614.775696062 c 0
 472.148595833 615.366855806 471.097382528 615.879180017 470.191113891 616.312668695 c 0
 469.284845254 616.746157372 468.400609715 617.158855467 467.538407274 617.550762979 c 0
 465.818420879 618.332569613 464.191446425 619.030218547 462.657483913 619.643709782 c 0
 461.065026806 620.280692625 459.633920187 620.83724472 458.364164057 621.313366068 c 0
 457.765758123 621.537750761 457.209281135 621.742217726 456.694733092 621.926766961 c 0
 456.180185049 622.111316196 455.708523926 622.275641373 455.279749722 622.419742493 c 2
 453.007059279 622.957014582 l 1
 411.196162354 618.499631077 347.414533755 569.496924629 261.662173481 475.948895239 c 0
 256.226359829 469.936555897 250.919940351 463.883877967 245.742915047 457.790861449 c 0
 240.565873625 451.697845925 235.518404927 445.564765595 230.600508954 439.39162046 c 0
 225.68258315 433.218458635 220.893899631 427.005010831 216.234458398 420.751277047 c 0
 211.575005993 414.49754934 207.044765081 408.203486841 202.643735661 401.86908955 c 0
 198.242671004 395.534662869 193.97070156 389.159997653 189.827827329 382.7450939 c 0
 185.684940033 376.33019121 181.670897739 369.874654776 177.785700446 363.378484598 c 0
 173.900471965 356.882282955 170.144189835 350.345860772 166.516854057 343.769218048 c 0
 164.701609832 340.478048752 162.919293696 337.178067499 161.169905647 333.869274289 c 0
 159.420517598 330.560481079 157.700734089 327.236517443 156.010555119 323.89738338 c 0
 150.472855552 313.147731279 145.591292424 302.533544554 141.365865735 292.054823207 c 0
 137.140245885 281.576134142 133.56952915 271.233696356 130.653715529 261.027509849 c 0
 128.711152852 254.228540481 127.019778954 247.478589777 125.579593833 240.777657737 c 0
 124.139163558 234.07623787 122.953133074 227.447976469 122.021502382 220.892873534 c 0
 121.556834831 217.624002029 121.154286953 214.366068443 120.81385875 211.119072776 c 0
 120.473430547 207.872077109 120.197086843 204.65663525 119.98482764 201.4727472 c 2
 119.307692308 177.125150353 l 2
 119.307692308 171.954463484 119.408097295 166.92209543 119.60890727 162.028046193 c 0
 119.809638113 157.135925539 120.108853958 152.404858359 120.506554803 147.834844654 c 0
 120.904157073 143.264468927 121.399829323 138.842198944 121.993571552 134.568034705 c 0
 122.587193704 130.293627481 123.275885142 126.179847821 124.059645865 122.226695726 c 0
 124.843269182 118.273135844 125.722092046 114.470558554 126.696114457 110.818963855 c 0
 127.475451601 107.896449565 128.322734154 105.078216596 129.237962117 102.364264948 c 0
 130.15319008 99.6503133001 131.136155175 97.0407456539 132.186857402 94.5355620092 c 0
 134.285480879 89.5318253877 136.652147892 84.9415790782 139.286858443 80.7648230808 c 0
 141.043102741 77.9806827495 142.916279762 75.3690250031 144.906389506 72.9298498415 c 0
 146.8957321 70.4912592907 149.008088188 68.2167006232 151.243457769 66.1061738391 c 0
 153.478139446 63.9962965409 155.846160462 62.0408681636 158.347520819 60.2398887072 c 0
 159.21001083 59.5864871839 160.079653648 58.9661260172 160.956449273 58.378805207 c 0
 161.832906952 57.7917107703 162.723418205 57.2328832816 163.627983034 56.7023227407 c 0
 164.532724721 56.1716495629 165.451447054 55.6689538561 166.384150033 55.1942356203 c 0
 167.317021175 54.7194278588 168.269658162 54.2693945124 169.242060993 53.8441355811 c 0
 171.176093173 52.998359914 173.194192833 52.2554524518 175.296359974 51.6154131945 c 0
 177.398572765 50.9755289988 179.586788334 50.4391786464 181.861006681 50.0063621373 c 0
 184.13905222 49.5730063811 186.505869399 49.247286078 188.961458219 49.0292012279 c 0
 191.416932586 48.8113186515 193.961242046 48.7022941287 196.5943866 48.7021276596 c 0
 198.953685629 48.7021276596 201.376027154 48.7917542229 203.861411176 48.9710073496 c 0
 206.346795199 49.1502604763 208.895024702 49.4192957853 211.506099686 49.7781132764 c 2
 227.951048707 53.0216461746 l 2
 229.857581188 53.5016592021 231.795505306 54.0232792122 233.764821059 54.5865062047 c 0
 235.734136812 55.1497331972 237.726712707 55.7521431015 239.742548744 56.3937359177 c 0
 241.758384781 57.0353287339 243.79206991 57.7143295296 245.84360413 58.4307383048 c 2
 255.657483913 62.356290218 l 1
 265.309658092 66.2171598893 l 2
 267.411500351 67.2690224198 269.540120605 68.3609234296 271.695518856 69.4928629189 c 0
 273.863646548 70.6314926052 276.059524618 71.8110226845 278.283153066 73.0314531569 c 0
 280.506768339 74.2518809464 282.757300502 75.5127926538 285.034749555 76.8141882791 c 0
 291.981332279 80.7836641214 298.759595161 84.7514134722 305.369538201 88.7174363315 c 0
 308.625745025 90.6711604259 311.96738048 92.7496306815 315.394444566 94.9528470983 c 0
 318.821448889 97.1560524074 322.333290226 99.4837854029 325.929968578 101.936046085 c 0
 329.638797427 104.464793028 333.223409862 106.86853791 336.683805883 109.147280733 c 0
 340.14423975 111.426040512 343.480992149 113.58008031 346.694063078 115.609400127 c 0
 352.962811101 119.568609405 360.067356153 124.194960246 368.007698234 129.488452649 c 0
 376.079611946 134.869728457 382.801606445 139.239139888 388.173681731 142.596686942 c 2
 394.992802461 146.790218511 l 2
 395.508057579 147.084650007 395.990525441 147.369976746 396.440206048 147.646198728 c 0
 396.889886655 147.922420711 397.321314206 148.198261774 397.734488701 148.473721918 c 0
 398.13932434 148.743622612 398.520542832 149.00834905 398.878144178 149.267901232 c 0
 399.235943161 149.527541374 399.569143293 149.780847392 399.877744572 150.027819285 c 0
 401.496401285 151.322744655 403.283266562 152.784802066 405.238340403 154.413991517 c 0
 407.646188323 156.42053145 410.442471733 158.074044226 413.627190633 159.374529844 c 0
 414.692465374 159.901921299 415.821937575 160.452625179 417.015607235 161.026641484 c 0
 418.246709061 161.618676721 419.554966763 162.239805552 420.940380341 162.890027975 c 0
 422.325136204 163.539953734 423.776949018 164.214976584 425.295818781 164.915096523 c 0
 426.813822516 165.614822216 428.423248839 166.351241633 430.124097752 167.124354775 c 0
 431.608310659 167.866461228 433.187309314 168.551010355 434.861093719 169.178002156 c 0
 436.539988397 169.806908241 438.192016949 170.324668357 439.817179375 170.731282502 c 0
 441.891041307 170.994046278 l 2
 448.630347102 170.998015426 452 167.666666667 452 161 c 2
 452 160 l 2
 452.429292057 159.625498677 452.353171589 159.242815245 451.771638597 158.851949703 c 2
 450.014279284 154.609309016 l 1
 449.363961031 153.636038969 l 2
 448.332142888 152.604220826 446.944155877 150.92554117 445.2 148.6 c 0
 444.412308204 147.687944009 l 1
 339.810418865 43.0842000355 254.327994446 -9.21767195125 187.965034947 -9.21767195125 c 0
 169.455754578 -9.21767195125 152.433790418 -5.1490736783 136.899142467 2.98812286785 c 0
 116.622879102 13.1262545504 100.200693118 29.5066181343 87.6325845149 52.1292136194 c 0
 83.5555561556 59.4678646662 79.9646613949 67.1113512715 76.8599002328 75.0596734353 c 0
 73.7551390708 83.0079955992 71.1372720661 91.2576152058 69.0062992186 99.8085322553 c 0
 66.8753263712 108.359449305 65.2303095469 117.213197994 64.0712487458 126.369778323 c 0
 63.6800875535 129.459951742 63.3379253921 132.573493594 63.0447622618 135.710403879 c 0
 62.7515899139 138.847279552 62.5074441312 142.006474248 62.3123249135 145.187987967 c 0
 62.1172005216 148.36938889 61.9709103628 151.57299847 61.8734544369 154.798816705 c 0
 61.7759871702 158.024606314 61.7272599337 161.273485594 61.7272727273 164.545454545 c 0
 61.7272727273 180.21641967 62.8444981162 196.431092648 65.0789488939 213.189473481 c 0
 66.1457359116 218.619278242 l 2
 68.0113209211 229.812788299 70.3027999197 240.926574509 73.0201729074 251.960636873 c 0
 75.7375458951 262.994699237 78.8799549401 273.946109009 82.4474000422 284.814866188 c 0
 86.0148451444 295.683623367 90.0074402799 306.469704664 94.4251854486 317.173110079 c 0
 98.8429306175 327.876515494 103.684587228 338.493786254 108.950155281 349.024922359 c 0
 137.318375749 405.761363295 173.780811973 458.769946006 218.337463952 508.050670492 c 0
 278.326308595 574.105802797 336.065609659 622.697569219 391.555367143 653.825969758 c 0
 398.771815165 657.949654342 405.547680043 661.486840214 411.882961778 664.437527373 c 2
 429.73697498 671.56537756 l 2
 441.557112413 675.378325119 451.566469159 676.464941292 459.765045216 674.825226081 c 2
 460.368056652 674.682874391 l 2
436 150 m 1025
EndSplineSet
EndChar

StartChar: D
Encoding: 68 68 12
Width: 625
VWidth: 875
Flags: HW
HStem: -8 21G<98.5242 105.045> 620.472 58.5279<324.606 538.552>
VStem: 632.219 60.9555<311.093 519.092>
LayerCount: 2
Fore
SplineSet
378.457005346 515.92057994 m 0
 379.320641217 517.299964558 380.500828377 519.221172186 381.997566828 521.684202824 c 0
 383.510587487 524.174027441 384.619940426 525.976690175 385.325625644 527.092191025 c 2
 386.580769783 529.022677594 l 2
 387.055800752 529.737937371 387.58988661 530.528862855 388.183027357 531.395454048 c 0
 388.820502379 532.326846326 389.402009795 533.125644174 389.927549605 533.791847592 c 2
 391.470408271 535.529091663 l 2
 391.892055264 535.938100787 392.348970696 536.357842049 392.841154568 536.78831545 c 0
 393.333135576 537.218755687 393.862479709 537.662618729 394.429186966 538.119904576 c 0
 395.816704461 539.239716605 397.240652701 540.00833236 398.701031684 540.425751841 c 0
 399.377364501 540.619067752 400.075703101 540.76327868 400.796047483 540.858384625 c 0
 401.513051446 540.953049539 402.247702285 541.000254664 403 541 c 0
 411.666666667 541 416 534 416 520 c 0
 416 515.584183074 415.638574769 511.004226555 414.915724307 506.260130444 c 0
 414.735935701 505.080170728 414.533514345 503.888907044 414.308460239 502.686339392 c 0
 414.083406132 501.483771741 413.836833775 500.275203388 413.568743167 499.060634335 c 0
 413.300652559 497.846065282 413.011221095 496.625570884 412.700448775 495.399151141 c 0
 412.389676454 494.172731398 412.058386477 492.943858167 411.706578842 491.712531446 c 0
 410.687678951 487.467115235 409.461906444 483.068478575 408.029261319 478.516621468 c 0
 406.597179738 473.966554873 404.974724531 469.318001169 403.1618957 464.570960358 c 0
 399.528719941 455.056755004 395.158036281 445.191460765 390.049844719 434.975077641 c 2
 388.006021359 430.887430921 l 1
 311.516807352 285.890486108 261.390233803 173.405841571 237.62630071 93.4334973094 c 0
 236.559727722 90.5618422486 235.6890732 88.1961384208 235.014337144 86.336385826 c 0
 234.341226938 84.4811396519 233.849164451 83.0869944118 233.538149682 82.1539501057 c 2
 233.258037303 81.5482960315 l 1
 228.808578202 74.2030219405 l 2
 228.98630007 74.0044869474 228.838094346 73.8154926237 228.36396103 73.6360389693 c 0
 227.949361777 73.2214397159 227.514504793 72.8557469488 227.05939008 72.5389606681 c 1
 230.243880912 73.1019213012 233.17222186 73.6240761125 235.844412923 74.1054251022 c 0
 239.391965368 74.7444548713 242.486326375 75.3112363953 245.127495945 75.8057696743 c 0
 265.910009509 80.7574943818 285.192873651 85.8686407915 302.976088372 91.1392089033 c 0
 308.908091722 92.8972843152 314.673251736 94.672927152 320.271568415 96.4661374139 c 0
 325.869885094 98.2593476758 331.304141706 100.071035645 336.574338253 101.90120132 c 0
 341.844534799 103.731366996 346.952753197 105.580739693 351.898993447 107.449319412 c 0
 361.502106815 110.871118429 370.603354685 114.180295421 379.202737056 117.37685039 c 0
 387.802119428 120.573405359 395.909516543 123.660963901 403.5249284 126.639526017 c 0
 418.743554927 132.59187965 431.930578511 138.080346345 443.085999153 143.104926102 c 0
 454.226699984 148.122875821 463.355957439 152.68091837 470.473771516 156.779053747 c 0
 487.7975921 166.911854466 504.226814607 177.946899006 519.761439038 189.884187367 c 0
 523.644551665 192.86809183 527.47092407 195.90767375 531.240556254 199.002933129 c 0
 535.010188439 202.098192508 538.723088714 205.249134952 542.379257079 208.455760461 c 0
 546.035425444 211.66238597 549.634872672 214.92468393 553.177598762 218.242654341 c 0
 556.720324852 221.560624752 560.206471588 224.934393649 563.636038969 228.363961031 c 0
 570.261847501 234.989769562 576.47705198 242.526151031 582.281652405 250.973105437 c 0
 588.09239949 259.429004568 593.488690349 268.799395672 598.47052498 279.084278747 c 0
 603.468548506 289.402583422 608.032043497 300.644173415 612.161009953 312.809048725 c 0
 616.289976408 324.973924034 619.984554447 338.065769375 623.244744068 352.084584746 c 0
 624.321167977 356.605565167 625.290225322 361.200291632 626.151916103 365.868764143 c 0
 627.013588768 370.537237881 627.768012914 375.281061733 628.41518854 380.100235698 c 0
 629.062344839 384.919406598 629.601893561 389.812550214 630.033834706 394.779666547 c 0
 631.204188633 403.002148329 631.93268812 411.070493958 632.219333165 418.984703433 c 0
 632.506117824 426.899078809 632.357919155 434.71500872 631.77473716 442.432493167 c 0
 631.191645421 450.150186804 630.173533517 457.772146664 628.720401447 465.298372747 c 0
 627.267268996 472.824898129 625.379724843 480.25585499 623.057768988 487.591243331 c 0
 620.735560241 494.927424576 617.978250186 502.171015927 614.785838822 509.322017382 c 0
 595.623846239 552.11713415 572.631887208 580.687998186 545.809961727 595.034609489 c 0
 513.023926963 611.992903332 480.04557024 620.472050254 446.874891558 620.472050254 c 0
 442.469313638 620.472050254 438.060343171 620.322478626 433.647980157 620.023335369 c 0
 424.85563082 619.369358972 416.082676805 618.456618594 407.329118114 617.285114235 c 0
 398.575559423 616.113609876 389.84108749 614.683280593 381.125702317 612.994126386 c 0
 372.410317143 611.304972179 363.714100546 609.356990546 355.037052527 607.150181487 c 0
 329.003691895 600.529190574 303.137536641 591.574895359 277.438586766 580.287295844 c 0
 264.590511953 574.644111055 251.782666872 568.416063604 239.015051525 561.603153491 c 0
 226.247436178 554.790243378 213.528313311 547.396908933 200.857682926 539.423150156 c 0
 166.962898771 517.287780912 145.259474235 505.823760252 135.747409318 505.031088176 c 2
 127.904231239 506.175651243 l 2
 125.566515634 506.961570195 123.499808521 508.151264377 121.7041099 509.744733788 c 0
 117.919833195 513.102830245 116.374962931 517.560023187 117.06949911 523.116312612 c 2
 123.150912536 537.210892373 l 2
 126.298101033 542.136765172 130.513991068 547.365881542 135.798582639 552.898241483 c 0
 138.430703593 555.653769574 141.348027845 558.516957111 144.550555396 561.487804092 c 0
 147.753082947 564.458651074 151.241906762 567.538516185 155.017026843 570.727399426 c 0
 160.503178074 575.861208315 166.303264567 580.837461506 172.417286321 585.656158998 c 0
 178.531308074 590.47485649 184.958317595 595.135368927 191.698314882 599.637696309 c 0
 198.438312169 604.140023691 205.490803306 608.484412664 212.855788293 612.670863228 c 0
 220.22077328 616.857313792 227.89936993 620.886569066 235.891578244 624.758629051 c 0
 267.852472714 640.243021224 304.844023297 653.237993259 346.866229992 663.743545156 c 0
 368.212641675 668.826024127 388.033155063 672.637925869 406.327770158 675.17925038 c 0
 415.489004194 676.451847179 424.291697698 677.40677073 432.73585067 678.044021034 c 0
 441.180183855 678.681340345 449.268233632 679 457 679 c 0
 507.439123967 679 550.037664382 668.895537387 584.795621245 648.686612162 c 0
 619.579167118 628.462809008 646.36069042 598.180332574 665.140191149 557.83918286 c 0
 671.04780384 545.474412113 676.023857617 532.832353156 680.068352482 519.913005988 c 0
 684.113100797 506.992849218 687.220276734 493.820467309 689.389880291 480.395860262 c 0
 691.558714103 466.976016075 692.795471755 453.29999684 693.100153248 439.367802557 c 0
 693.149949656 437.090758336 693.17484786 434.807304393 693.17484786 432.517440728 c 0
 693.17484786 420.803962233 692.52333868 408.92276109 691.220320319 396.873837299 c 0
 689.66392032 382.480016981 687.178483235 367.839553131 683.764009065 352.952445749 c 0
 663.946770011 268.900018039 621.871246222 201.550922106 557.537437698 150.905157949 c 0
 555.552933379 149.35627653 553.58917145 147.838493453 551.64615191 146.351808718 c 0
 549.703127941 144.86512169 547.780340112 143.409160201 545.877788421 141.983924251 c 0
 543.975231552 140.558685652 542.093329877 139.164504016 540.232083394 137.801379343 c 0
 538.370832373 136.438252781 536.529788739 135.10586699 534.708952492 133.804221971 c 0
 532.888110048 132.502574146 531.087827281 131.23193792 529.308104192 129.992313295 c 0
 527.528375591 128.752686728 525.768820641 127.543816066 524.029439342 126.365701311 c 0
 522.290051061 125.187583994 520.571125282 124.040436819 518.872662006 122.924259786 c 0
 506.956512885 115.093356504 495.956648443 108.743937335 485.873068682 103.876002278 c 0
 428.154119311 76.3588287404 367.275794756 52.3757014883 303.238095017 31.9266205216 c 0
 238.989840742 11.407544549 182.889975452 -1.21836477652 134.938499148 -5.95110745498 c 0
 132.899319838 -6.17768293388 130.912181416 -6.3856569199 128.977083881 -6.57502941303 c 0
 127.041986346 -6.76440190617 125.159743497 -6.93506928222 123.330355333 -7.08703154119 c 0
 121.500967169 -7.23899380016 119.72743991 -7.3719702159 118.009773555 -7.48596078842 c 0
 115.428629082 -7.65725490243 112.9707621 -7.78575163286 110.636172611 -7.87145097972 c 0
 108.301583121 -7.95715032657 106.089525584 -8 104 -8 c 0
 93.0483955619 -8 84.8060991961 -4.97193465416 79.2731109026 1.08419603751 c 0
 73.6374200645 7.2527397689 71.9434670075 15.5069165002 74.1912517317 25.8467262314 c 2
 76.9498522173 32.1706949014 l 2
 77.7042770848 33.2462054877 78.4789162383 34.1899588274 79.2737696777 35.0019549203 c 0
 80.0686231171 35.8139510132 80.9168951134 36.552630383 81.8185856667 37.2179930296 c 0
 83.5287148834 38.4799072168 85.4871965985 39.6257922936 87.694030812 40.65564826 c 0
 88.6794400745 41.1155059158 89.7355100267 41.5713731879 90.8622406688 42.0232500762 c 0
 91.9888547817 42.4752129279 93.1815716354 42.922241744 94.4403912297 43.3643365245 c 0
 95.6990739596 43.8064522687 97.0322602835 44.2472818025 98.4399502014 44.6868251258 c 0
 102.62103244 45.9924825513 107.60091563 47.3457578265 113.379599769 48.7466509512 c 0
 116.456108076 49.4924711469 119.367521507 50.2250967751 122.113840061 50.944527836 c 0
 123.482551229 51.3030605499 124.675779737 51.6192468213 125.693525586 51.8930866503 c 0
 126.711271434 52.1669264792 127.543320076 52.395614527 128.189671512 52.5791507937 c 2
 130.371488544 53.2262546455 l 2
 130.924478153 53.4490310644 131.309818588 53.5915180254 131.527509849 53.6537155287 c 0
 132.973195919 54.0667686915 134.47392838 54.4807873555 136.029707232 54.8957715208 c 0
 137.585486085 55.3107556861 139.195909979 55.7266126203 140.860978914 56.1433423234 c 0
 142.526047849 56.5600720266 144.246349776 56.9778301859 146.021884695 57.3966168014 c 0
 147.797419614 57.8154034169 149.627588025 58.235093213 151.51238993 58.6556861895 c 0
 153.397191835 59.076279166 155.337413333 59.4979635537 157.333054422 59.9207393524 c 0
 167.285619989 62.0291865471 178.668790374 64.1793251289 191.482565575 66.3711550977 c 0
 202.312268793 68.2236043323 211.80110896 69.8627726705 219.949086077 71.2886601124 c 1
 215.577875624 72.7010638028 l 1
 215.314730522 72.8314014503 l 2
 214.53198852 73.3752726571 213.848409248 73.9344090754 213.263992705 74.5088107053 c 0
 212.679576162 75.0832123351 212.194683316 75.6788369544 211.809314165 76.2956845632 c 2
 211.000233646 77.5907528945 l 2
 210.46998975 78.7122554794 210.00882357 79.8050680355 209.616735106 80.869190563 c 0
 209.224646642 81.9333130905 208.839767254 83.083842958 208.462096942 84.3207801657 c 0
 208.084426629 85.5577173734 207.713831618 86.8789301928 207.350311907 88.2844186239 c 0
 206.986792196 89.689907055 206.628479025 91.1860202182 206.275372392 92.7727581136 c 0
 205.434347803 95.7341444996 204.752504434 98.8405783507 204.229842284 102.092059667 c 0
 203.707180134 105.343540983 203.343611831 108.735163407 203.139137374 112.266926938 c 0
 202.934662917 115.79869047 202.888159445 119.475873949 202.999626958 123.298477375 c 0
 203.333617499 134.752141459 205.070175484 147.629204219 208.209300911 161.929665654 c 2
 208.346284471 162.472490151 l 1
 210.392647345 169.634760209 l 1
 232.581089758 237.544841533 268.817381279 319.7726572 319.10152191 416.318207211 c 0
 327.098280358 430.269998546 334.303020392 442.760846117 340.715742013 453.790749924 c 0
 347.128463634 464.820653731 352.761317863 474.410521086 357.614304699 482.560351988 c 0
 362.487317299 490.743813023 366.652133316 497.602607657 370.108752751 503.136735888 c 0
 373.570462536 508.678926667 376.353213401 512.940208018 378.457005346 515.92057994 c 0
EndSplineSet
EndChar

StartChar: E
Encoding: 69 69 13
Width: 432
VWidth: 875
Flags: HW
HStem: -7 61<104.687 186.834> 632 54<386.529 527.724>
VStem: 48.4249 56.254<54.0289 146.406>
LayerCount: 2
Fore
SplineSet
251.984850301 583.094312401 m 0
 260.915762096 600.21189334 290.610868797 621.212703385 341.070170406 646.096742534 c 0
 354.849645213 652.731304478 367.804491016 658.53423943 379.934707816 663.505547389 c 0
 392.065561039 668.476931294 403.418181875 672.63175193 413.992570323 675.970009299 c 0
 424.57530417 679.310523515 434.361088525 681.81636905 443.349923386 683.487545903 c 0
 452.359157382 685.162515301 460.575849587 686 468 686 c 0
 480.561700899 686 492.212263563 683.77784957 502.951687994 679.333548711 c 0
 513.691112424 674.889247852 523.495203436 668.232718625 532.36396103 659.363961031 c 0
 535.428096229 656.299825832 538.068869257 653.460657798 540.286280114 650.846456929 c 0
 542.503690971 648.232256059 544.304834634 645.831188791 545.689711102 643.643255124 c 0
 548.55624548 639.114485071 549.570102613 635.172459822 548.731282502 631.817179375 c 0
 547.82114988 629.614045393 l 1
 547.761247368 629.494224922 l 2
 547.550755427 629.135487971 547.333313078 628.804856025 547.108920321 628.502329085 c 2
 546.363961031 627.636038969 l 1
 545.363961031 626.636038969 l 2
 542.741864884 624.013942822 539.671861242 623.289213272 536.153950107 624.461850318 c 0
 534.573179086 624.988773991 528.341172193 626.212521954 517.457929427 628.133094207 c 0
 510.049987118 629.421432 502.474714444 630.387998308 494.732111405 631.032793132 c 0
 486.989445234 631.677511091 479.078741432 631.999913381 471 632 c 0
 466.290897307 632 460.789104186 631.46902471 454.494620635 630.40707413 c 0
 451.338585102 629.874615234 447.975345541 629.205259016 444.404901954 628.399005476 c 0
 440.834458367 627.592751937 437.058275317 626.649724228 433.076352805 625.569922349 c 0
 425.10376108 623.407946696 416.366780329 620.707407203 406.865410554 617.468303871 c 0
 405.979548215 617.173016424 404.26993758 616.534660985 401.73657865 615.553237552 c 0
 399.193674293 614.56811622 395.895653438 613.264940297 391.842516087 611.643709782 c 0
 387.529886231 609.91865784 383.213826094 608.321790439 378.894335675 606.85310758 c 0
 374.594165975 605.391049908 370.291011547 604.056556883 365.98487239 602.849628505 c 2
 359.836177211 600.296081023 l 2
 359.719346541 599.724291568 359.63495803 599.358052614 359.583011679 599.197364161 c 0
 359.528494378 599.028722848 359.45703016 598.844308593 359.368619024 598.644121394 c 0
 359.280207888 598.443934196 359.168971629 598.211009137 359.034910248 597.945346217 c 2
 252.829917229 387.484075648 l 1
 257.094538243 385.085455171 263.574401916 383.964707118 272.269508248 384.121831491 c 0
 276.959020925 384.206573035 282.423859743 384.718902605 288.664024702 385.658820201 c 0
 294.90418966 386.598737797 301.906493 387.966278106 309.670934721 389.761441128 c 0
 317.4423903 391.558225776 325.869504494 393.771455942 334.952277303 396.401131626 c 0
 344.035050112 399.03080731 353.751506263 402.070668401 364.101645756 405.520714899 c 0
 364.942538665 405.835792234 365.814784578 406.025237351 366.718383495 406.08905025 c 0
 367.621982412 406.15286315 368.531283317 406.088814842 369.44628621 405.896905327 c 2
 369.608898464 405.847995806 l 1
 373.771738273 404.198934214 l 2
 374.249707959 403.915195219 374.658644831 403.635014164 374.998548889 403.358391049 c 0
 375.338452947 403.081767934 375.66112919 402.783047822 375.966577618 402.462230714 c 0
 376.270348293 402.143175775 376.555523522 401.805280211 376.822103306 401.448544023 c 0
 377.088683091 401.091807835 377.336248861 400.717076702 377.564800616 400.324350624 c 0
 378.041146566 399.505833713 378.399432951 398.647056674 378.63965977 397.748019506 c 0
 378.87988659 396.848982337 379 395.918988882 379 394.95803914 c 0
 377.475753366 389.571716509 l 1
 377.347944079 389.296729786 l 2
 375.28781898 386.201734503 373.494238953 383.482418386 371.967203998 381.138781437 c 0
 370.441136907 378.796644175 369.132178803 376.754690233 368.040329686 375.01291961 c 0
 366.95101641 373.275194285 366.028909884 371.759274672 365.274010109 370.46516077 c 0
 363.878236133 368.072405383 361.456961342 365.619787658 358.010185737 363.107307594 c 0
 354.563410132 360.59482753 350.058928759 357.96746801 344.496741617 355.225229033 c 0
 333.837998024 349.970313768 315.841775917 342.059839509 290.508075294 331.493806256 c 0
 286.800373573 329.924469437 283.172724642 328.336795948 279.625128502 326.730785789 c 0
 276.077527817 325.124780877 272.611126273 323.501036572 269.225923872 321.859552874 c 0
 265.840716496 320.218075497 262.535694846 318.55845169 259.310858923 316.880681454 c 0
 254.475783902 314.365174825 249.82667567 311.812616122 245.363534225 309.223005346 c 0
 240.900380299 306.633430839 236.623476239 304.007307702 232.532822046 301.344635933 c 0
 228.444306692 298.683412984 224.537427403 295.98682194 220.812184179 293.254862799 c 0
 217.086900442 290.522942269 213.543365487 287.756258377 210.181579316 284.954811122 c 0
 206.815416911 282.149805408 203.632728065 279.313443514 200.633512778 276.44572544 c 0
 197.634982429 273.578776747 194.799650753 270.660950659 192.127517749 267.692247176 c 0
 169.888060506 243.981791726 143.978924742 193.674105429 114.400110456 116.769188286 c 0
 111.134214543 108.277858911 108.693077369 100.582605192 107.076698934 93.6834271293 c 0
 106.544129721 91.4102652515 106.100169522 89.2359086783 105.744818339 87.1603574098 c 0
 105.389467156 85.0848061413 105.123255653 83.1152278855 104.946183831 81.2516226425 c 0
 104.769112009 79.3880173995 104.680005318 77.625805727 104.678863759 75.9649876251 c 0
 104.676054186 71.8774284403 105.140272402 68.4233784786 106.071518407 65.60283774 c 0
 106.530619525 64.2123207369 107.090175614 62.9729778253 107.750186673 61.8848090052 c 0
 108.410197732 60.7966401851 109.169646823 59.8532838712 110.028533944 59.0547400633 c 0
 113.662664565 55.6759345931 119.986486584 53.9910212387 129 54 c 2
 133 54 l 2
 135.957864955 54 139.144501998 54.2992150763 142.559911129 54.897645229 c 0
 143.701574268 55.0976814826 144.871168078 55.3322600743 146.068692558 55.6013810041 c 0
 147.266217037 55.8705019338 148.493031358 56.1745851828 149.749135519 56.5136307509 c 0
 151.00523968 56.852676319 152.288901093 57.2263283765 153.60011976 57.6345869235 c 0
 155.568827609 58.2475600504 157.592420341 58.9376979972 159.670897955 59.7050007639 c 0
 161.749375569 60.4723035305 163.882338638 61.3167397917 166.069787163 62.2383095474 c 0
 172.663026096 65.0160341539 179.701130653 68.5057206798 187.184100832 72.7073691252 c 0
 194.676689865 76.9144185061 202.592535501 81.8243718354 210.931637742 87.4372291129 c 0
 233.798951786 103.117673028 254.033752195 119.759917001 271.636038969 137.363961031 c 0
 273.678021626 139.405943688 275.842216945 141.527772799 278.128624925 143.729448365 c 0
 280.415074763 145.931214077 282.825245037 148.21456376 285.359135747 150.579497413 c 0
 287.824820709 152.880803379 290.002157626 154.934905106 291.891146497 156.741802595 c 0
 292.833552802 157.643246311 293.700484698 158.479479401 294.491942185 159.250501864 c 0
 295.283349737 160.021469831 295.998048665 160.72595622 296.636038969 161.363961031 c 0
 298.101623994 162.829546056 299.612905808 164.24923835 301.16988441 165.623037914 c 0
 302.726727263 166.996722817 304.328277286 168.323766831 305.974534478 169.604169956 c 0
 309.016076135 171.969813467 311.224564643 173.668423482 312.6 174.7 c 0
 314.035640934 175.776730701 315.540792467 176.594791632 317.115454598 177.154182793 c 0
 318.702747378 177.718060931 320.330929179 178 322 178 c 0
 328.021517073 178 332.076044825 176.152472037 334.163583258 172.45741611 c 0
 336.251121691 168.762360183 336.330906925 163.444489885 334.402938961 156.503805214 c 0
 334.115762114 155.355097829 333.642032704 154.075842322 332.98175073 152.666038691 c 0
 332.321468755 151.25623506 331.476734993 149.711901005 330.447549442 148.033036526 c 0
 328.478250979 144.820607789 325.874959108 141.157480461 322.637673827 137.043654542 c 0
 321.996393806 136.228738912 321.331211577 135.396727551 320.642127141 134.54762046 c 0
 319.953042705 133.698513369 319.240259822 132.832547941 318.503778493 131.949724175 c 0
 317.767297164 131.06690041 317.006851809 130.166891009 316.222442429 129.249695972 c 0
 315.438033049 128.332500935 314.629942525 127.398436518 313.798170856 126.447502722 c 0
 312.966399187 125.496568925 312.110601675 124.528359588 311.230778318 123.542874709 c 0
 309.038433617 121.087242525 306.713688655 118.544346228 304.256543433 115.914185819 c 0
 301.799398212 113.28402541 299.215085831 110.572122412 296.503606292 107.778476826 c 0
 292.812513119 103.863681037 289.124649882 100.026662733 285.440016582 96.2674219146 c 0
 281.755383283 92.5081810963 278.079851461 88.8327657611 274.413421118 85.2411759088 c 0
 267.074553266 78.0521116593 259.7550264 71.1836182637 252.45484052 64.6356957222 c 0
 248.797952739 61.355700279 245.155719664 58.165066056 241.528141296 55.0637930531 c 0
 239.711225573 53.5104871947 237.896810098 51.9785526651 236.084894869 50.4679894642 c 0
 234.272979641 48.9574262633 232.455042914 47.4611616337 230.631084688 45.9791955754 c 0
 208.843849664 28.617492666 188.536037155 15.4140583139 169.707647162 6.36889251898 c 0
 159.870951398 1.72700640105 150.819984079 -1.6602622925 142.554745206 -3.79291356168 c 0
 134.268553621 -5.93097118723 126.083638552 -7 118 -7 c 0
 84.8600398005 -7 62.9848827497 10.8102369069 52.3745288477 46.4307107206 c 0
 49.7414491605 55.2703353847 48.424909317 64.6230407592 48.424909317 74.4888268441 c 0
 48.424909317 84.1671587656 49.6918948104 94.3392591212 52.2258657973 105.005127911 c 0
 56.2434152925 123.307297834 118.493671138 250.998071408 238.976633335 488.077448633 c 0
 246.479522183 502.841197657 253.433912625 516.256421034 259.839804661 528.323118764 c 0
 265.514462456 539.012364883 270.633993963 548.417291547 275.198399182 556.537898756 c 1
 273.994521728 555.894365387 272.938406445 555.345148385 272.030053332 554.890247752 c 0
 268.793774511 553.269528602 265.966048546 552.054188258 263.546875436 551.24422672 c 0
 261.069391683 550.41474224 258.887099871 550 257 550 c 0
 246.970529637 550 243.424122023 555.924321408 246.360777157 567.772964224 c 0
 247.263672025 572.294219048 249.138363073 577.401335107 251.984850301 583.094312401 c 0
EndSplineSet
EndChar

StartChar: F
Encoding: 70 70 14
Width: 458
VWidth: 875
Flags: HW
HStem: 425 33.9997<514 533.845> 632 53<510.72 732.673>
VStem: 62.7364 63.2632<24.1923 49.8268>
LayerCount: 2
Fore
SplineSet
658 685 m 1
 675 685 l 2
 691.803264231 685 705.76633322 683.541858713 716.889206965 680.62557614 c 0
 728.01208071 677.709293567 736.452026377 673.183135935 742.209043965 667.047103244 c 0
 747.966061553 660.911070552 750.898614944 653.115953417 751.006704139 643.661751839 c 2
 750.912311979 642.746573549 l 2
 750.80780202 642.015003837 750.713678955 641.315197417 750.629942782 640.64715429 c 0
 750.546206609 639.979111162 750.470072542 639.321330042 750.40154058 638.673810929 c 0
 750.266232853 637.395366011 750.165465643 636.201339309 750.099238948 635.091730824 c 0
 750 632 l 2
 750.794834823 631.075775896 750.723396004 630.424984523 749.785683542 630.04762588 c 0
 748.655475659 624.961690411 746.685250533 621.029276476 743.875008164 618.250384077 c 0
 741.009451747 615.416794692 737.384449025 614 733 614 c 0
 726.030917302 614 718.399814993 617.731904864 710.106693073 625.195714592 c 0
 704.585529696 629.796684073 692.015566341 632.097168813 672.39680301 632.097168813 c 0
 670.068900589 632.097168813 667.641754804 632.064779209 665.115365657 632 c 2
 642.237847165 632 l 2
 617.259925166 630.672332979 584.642290972 626.874732292 544.384944583 620.607197938 c 0
 534.678016702 619.095463268 525.328984388 617.548438171 516.337847639 615.966122648 c 0
 507.346740453 614.383821603 498.714093645 612.766408766 490.439907214 611.113884138 c 0
 487.228585946 610.472522701 484.042447785 609.819247016 480.88149273 609.154057083 c 0
 477.720413873 608.488841587 474.641590332 607.824352915 471.645022106 607.160591067 c 0
 468.648258234 606.496787781 465.708968283 605.829212215 462.827152254 605.15786437 c 0
 459.945312501 604.486512455 457.15974156 603.820563544 454.470439432 603.160017637 c 0
 452.005369734 602.55455054 449.545951017 601.934733438 447.092183281 601.300566329 c 0
 446.662752697 600.508987012 446.183066807 599.627121944 445.653125611 598.654971125 c 0
 445.123184415 597.682820306 444.542772601 596.619987187 443.911890168 595.466471767 c 0
 443.281007735 594.312956347 442.599174074 593.067882159 441.866389187 591.731249204 c 0
 441.1336043 590.394616248 440.35009519 588.966833709 439.515861856 587.447901586 c 0
 438.681628521 585.928969463 437.795748039 584.317205556 436.858220409 582.612609865 c 0
 430.847889553 571.927577232 416.675955816 546.751547372 394.342419198 507.084520284 c 0
 389.790272261 498.999363784 385.41883272 491.260291635 381.228100575 483.867303837 c 0
 377.037377547 476.474333558 373.059563856 469.483886179 369.294659503 462.8959617 c 0
 365.529820344 456.30815394 361.96928389 450.106431688 358.613050141 444.290794943 c 0
 357.819880968 442.916403029 357.005550117 441.507522456 356.170057588 440.064153224 c 0
 355.3345934 438.620832895 354.53549448 437.24211757 353.772760828 435.92800725 c 0
 353.454964303 435.380477105 353.116169753 434.797110614 352.756377178 434.177907775 c 1
 366.478980419 437.649098792 379.473500631 440.764134563 391.739937815 443.523015088 c 0
 404.728943536 446.444410631 417.076336687 449.008605294 428.782117268 451.215599076 c 0
 431.120612731 451.65648749 433.443514618 452.085083379 435.750822929 452.501386742 c 0
 438.05813124 452.917690105 440.347660095 453.321316814 442.619409494 453.712266869 c 0
 444.891158893 454.103216924 447.1451797 454.481526348 449.381471914 454.84719514 c 0
 451.617764129 455.212863932 453.835198077 455.565694227 456.033773759 455.905686024 c 0
 458.232349441 456.245677821 460.411061515 456.572680881 462.56990998 456.886695203 c 0
 468.475670211 457.928888185 474.07952474 458.626704047 479.381473568 458.980142789 c 0
 484.683422396 459.333581531 489.669830155 459.340090596 494.340696844 458.999669984 c 0
 510.156419766 458.967749609 521.509520815 456.367859616 528.399999991 451.200000006 c 0
 529.312055991 450.412308204 l 2
 530.33648134 449.390254766 531.189517732 448.333951501 531.871165168 447.243398409 c 0
 532.215047812 446.693227954 532.518810707 446.127674378 532.782453852 445.546737682 c 0
 533.046096997 444.965800987 533.268887979 444.370751899 533.450826796 443.761590418 c 0
 533.816942265 442.535774817 534 441.281911345 534 440 c 0
 534 439.7582111 533.990315094 439.517094984 533.970945283 439.276651652 c 0
 533.835453705 438.320633756 533.691188505 437.613066574 533.538149682 437.153950106 c 0
 532.645457683 434.475874108 530.736021484 432.17568636 527.809841086 430.253386861 c 0
 524.995648021 428.404655346 521.254411316 426.780047537 516.586130971 425.379563434 c 0
 516.166472352 425.253665848 515.740069984 425.158930879 515.306923867 425.095358527 c 0
 514.873777751 425.031786176 514.438136462 425 514 425 c 0
 513.238460085 424.610030001 l 2
 511.70609056 424.095186728 508.177437562 423.07197341 502.652501089 421.540390047 c 0
 497.140255896 420.012324871 489.686918704 417.989267139 480.292489511 415.471216852 c 0
 470.897446798 412.952985407 459.400302471 409.895623121 445.80105653 406.299129995 c 0
 432.396435878 402.754106352 420.144509946 399.464577302 409.045278733 396.430542846 c 0
 397.946300875 393.396589664 388.034065144 390.62788428 379.308571539 388.124426693 c 0
 377.564598126 387.62406487 375.867043379 387.134028358 374.215907298 386.654317159 c 0
 372.56477282 386.174606628 370.961218058 385.705563623 369.405243012 385.247188142 c 0
 367.849269268 384.788813319 366.340416513 384.340979124 364.878684746 383.903685557 c 0
 363.41695802 383.466393862 362.003091706 383.039865273 360.637085804 382.62409979 c 0
 359.270978363 382.208303909 357.953441407 381.803497378 356.684474938 381.409680198 c 0
 337.931318924 375.549318943 323.474280341 370.122802429 313.31335919 365.130130655 c 0
 310.670867957 360.92581113 307.979735203 356.663591195 305.239960927 352.343470851 c 0
 302.50018665 348.023350506 299.71167154 343.645175696 296.874415596 339.208946419 c 0
 294.037159652 334.772717142 291.15116888 330.278432935 288.216443279 325.7260938 c 0
 285.281717678 321.173754665 282.298005238 316.562975999 279.265305958 311.893757802 c 0
 276.232606678 307.224539606 273.151089443 302.49712733 270.020754253 297.711520975 c 0
 266.890419064 292.92591462 263.710851028 288.08148367 260.482050147 283.178228126 c 0
 257.253249266 278.274972582 253.975547303 273.313383809 250.648944259 268.293461806 c 0
 247.322341216 263.273539803 243.9462695 258.194423511 240.520729113 253.05611293 c 0
 205.909644543 199.656153879 179.079304368 156.007207322 160.029708589 122.10927326 c 0
 141.016414538 88.2759365589 129.922935528 64.5358906745 126.749271559 50.8891356067 c 0
 126.256037572 48.9161996567 126.00616707 46.9651281747 125.999660055 45.0359211606 c 0
 125.993153039 43.1067141465 126.228944911 41.1880097403 126.707035672 39.2798079422 c 0
 127.858396011 23.9528182876 l 2
 128.203814657 23.8030252257 128.180801659 23.5061596459 127.789357017 23.0622215482 c 0
 124.755121836 12.2581946958 119.485235192 4.06897648308 111.979697087 -1.5054330901 c 0
 109.595406272 -3.0283572877 107.534591308 -4.152965169 105.797252193 -4.87925673401 c 0
 104.067261918 -5.60247612915 101.987493316 -6.27072982857 99.5579463854 -6.88401783227 c 0
 94.8713833358 -7.89272571374 90.1836469543 -8.26468158225 85.4947372409 -7.9998854378 c 0
 70.322542862 -7.96041116309 62.7364456725 1.86339952661 62.7364456725 21.4715466313 c 0
 62.7364456725 29.1269277272 63.8927680233 38.2737011164 66.2054127247 48.9118667987 c 0
 65.7218372576 49.1232280999 65.8073164552 49.434622465 66.4618503175 49.8460498941 c 0
 70.0853780878 60.7166332049 74.1789711186 71.602715641 78.74262941 82.5042972024 c 0
 83.3062877013 93.4058787638 88.337538643 104.318513559 93.8363822351 115.242201588 c 0
 99.335225827 126.165889617 105.303277228 137.105050679 111.740536438 148.059684773 c 0
 130.842994821 180.567377108 155.117873832 218.404755399 184.565173473 261.571819646 c 0
 194.200938172 275.696974715 202.959692386 288.692351451 210.841436115 300.557949852 c 0
 212.577899255 303.172110959 214.291069236 305.761076729 215.980946058 308.324847161 c 0
 217.67082288 310.888617593 219.292639663 313.358869162 220.846396406 315.735601868 c 0
 222.40015315 318.112334574 223.889003462 320.399556883 225.312947342 322.597268796 c 0
 226.736891222 324.794980709 228.075844218 326.872281988 229.32980633 328.829172635 c 2
 180.819904886 305.850869576 l 2
 158.113381761 295.207186861 140.418379013 287.431891291 127.734896643 282.524982867 c 0
 114.767738335 277.508327622 105.189439454 275 99 275 c 2
 97 275 l 1
 96 275 l 1
 93.8106446266 275.280657545 l 2
 92.9642813296 275.500722186 92.205649639 275.802440245 91.5347495548 276.185811721 c 0
 87.2087277163 278.6578242 84.366200114 282.243879172 83.0071667477 286.943976639 c 2
 82.1836663897 291.450317338 l 2
 82.1247867882 292.207048672 82.1051315972 292.963831095 82.1247008165 293.720664608 c 0
 82.1442700358 294.477498121 82.2030327102 295.23384854 82.3009888395 295.989715864 c 0
 82.3981715091 296.739614875 82.5335719871 297.487688147 82.7071902735 298.23393568 c 0
 82.8808085598 298.980183212 83.0924069603 299.724112421 83.341985475 300.465723306 c 0
 84.0811475459 303.209969723 85.8118721264 306.167963609 88.5341592165 309.339704962 c 0
 91.2095777576 312.456839104 94.7225741685 315.736598584 99.0731484494 319.178983402 c 0
 101.237722968 320.891699467 103.653053327 322.693833888 106.319139526 324.585386665 c 0
 108.985225725 326.476939442 111.903764471 328.459386069 115.074755765 330.532726547 c 0
 121.35812654 334.033385405 128.859222748 338.003961956 137.57804439 342.444456201 c 0
 146.293783953 346.883380743 156.284254335 351.827613321 167.549455534 357.277153934 c 0
 173.184099217 360.002934083 179.140121549 362.856462697 185.417522529 365.837739776 c 0
 191.694923509 368.819016855 198.29948006 371.930781617 205.231192182 375.173034061 c 0
 239.532432941 390.764507133 263.943474904 402.589062337 278.464318071 410.646699674 c 0
 279.788557716 412.905644583 281.08538358 415.118695219 282.354795663 417.285851583 c 0
 283.624207747 419.453007947 284.875510865 421.59014739 286.108705018 423.697269911 c 0
 287.341899171 425.804392432 288.574598849 427.911583449 289.806804052 430.018842964 c 0
 293.520077973 436.369109771 297.138401415 442.565660928 300.661774379 448.608496435 c 0
 304.185148622 454.651334086 307.614185236 460.541432462 310.94888422 466.278791563 c 0
 314.283584734 472.016153232 317.547403216 477.641046076 320.740339667 483.153470093 c 0
 333.526292082 505.227692838 344.800203943 524.847853379 354.562075248 542.013951718 c 0
 362.619586655 556.182936371 369.867985543 569.065999869 376.30727191 580.663142212 c 1
 361.408278267 575.877778969 347.51426412 571.271675674 334.625229469 566.844832327 c 0
 319.358616955 561.601390605 304.193179492 556.173581647 289.128917079 550.561405454 c 0
 258.538472709 539.218881137 234.044238047 530.805112751 215.646213092 525.320100297 c 0
 197.039200507 519.773366766 183.49046281 517 175 517 c 0
 170.882299481 517 167.430028836 518.025120053 164.643188067 520.075360159 c 0
 161.856347298 522.125600264 159.795901382 525.151796913 158.461850318 529.153950106 c 0
 157.975274277 530.61367823 157.609988547 532.081292532 157.365993128 533.556793013 c 0
 157.121997709 535.032293494 157 536.513362489 157 538 c 0
 157 538.296749809 157.01457963 538.592364682 157.04373889 538.886844619 c 0
 157.072898151 539.181324556 157.116576494 539.474058089 157.174773919 539.765045216 c 0
 157.729859054 542.540470896 158.784538577 545.205362471 160.338812488 547.75971994 c 0
 160.720516023 548.387027178 161.130660368 549.005977066 161.569245525 549.616569605 c 0
 162.007830682 550.227162144 162.474682906 550.829328911 162.969802199 551.423069908 c 0
 163.956777162 552.606638208 165.055097322 553.758565178 166.264762681 554.878850818 c 0
 168.603649541 557.044922075 171.186918874 559.093430647 174.014570679 561.024376534 c 0
 176.798757488 562.925641061 180.030429926 564.888041794 183.709587994 566.911578731 c 0
 188.337805355 569.403695772 193.789105636 571.872927522 200.063488839 574.319273983 c 0
 206.323595902 576.760054258 213.409018363 579.18425233 221.319756224 581.591868201 c 0
 237.483483792 586.757595568 252.780205061 591.613305324 267.209920032 596.15899747 c 0
 281.639635003 600.704689616 295.194882621 604.938005676 307.875662886 608.85894565 c 0
 333.24310412 616.702643932 355.113227869 623.296914605 373.486034133 628.64175767 c 0
 385.782491316 632.218908851 399.095183616 635.868510333 413.424111032 639.590562117 c 0
 427.753204385 643.312701889 443.096088629 647.106922471 459.452763764 650.973223863 c 0
 475.80953695 654.839570854 493.185781136 658.779543517 511.581496323 662.793141852 c 0
 539.27041827 668.834361186 565.261799475 673.704626207 589.555639938 677.403936916 c 0
 613.864210326 681.104938516 636.678997013 683.636959544 658 685 c 1
EndSplineSet
EndChar

StartChar: G
Encoding: 71 71 15
Width: 501
VWidth: 965
Flags: HW
HStem: -5 58.9003<127.779 221.516> 622 58.0002<489.546 574.466>
VStem: 59.127 58.7458<62.3189 186.542> 323 52.2375<-12.1464 111.22>
LayerCount: 2
Fore
SplineSet
611.97775671 630.669777286 m 0
 612.331860839 627.12166846 612.504784087 623.750966215 612.496526456 620.55767055 c 0
 612.492385607 618.956369449 612.441482408 617.420035686 612.343816859 615.948669259 c 0
 612.24615131 614.477302832 612.101394173 613.070149023 611.909545448 611.727207831 c 0
 611.586908535 610.227769724 611.173943471 608.840897038 610.670650256 607.566589773 c 0
 610.16735704 606.292282508 609.562103175 605.06091251 608.85488866 603.87247978 c 0
 608.147674145 602.68404705 607.339183092 601.539191217 606.429415502 600.43791228 c 0
 599.410628308 594.426521059 l 1
 595.90912422 592.975591037 l 2
 594.097058371 592.325197012 592.794016964 592 592 592 c 0
 590.925718842 592 589.849800943 592.087290346 588.772246302 592.261871038 c 0
 587.697883725 592.435934566 586.63211438 592.693219238 585.574938267 593.033725055 c 0
 585.048022344 593.203439386 584.522389757 593.393634836 583.998040506 593.604311407 c 0
 583.473691255 593.814987978 582.950719329 594.04602481 582.42912473 594.297421902 c 0
 581.674249443 594.661255141 580.932904192 595.051596895 580.205088978 595.468447166 c 0
 579.477273765 595.885297436 578.763182372 596.328532475 578.0628148 596.798152283 c 0
 576.663015891 597.736764121 575.320273654 598.778705109 574.034588088 599.923975246 c 0
 571.56108631 602.127334915 568.926064758 604.881516442 566.129523432 608.186519827 c 2
 565.583622682 608.901240594 l 2
 562.826052925 612.912251151 559.638249538 616.003948496 556.020212523 618.176332629 c 0
 552.402175507 620.348716762 548.326416566 621.623215705 543.7929357 621.999829456 c 0
 517.345912843 621.924362075 475.015540924 597.630910736 416.801819945 549.119475439 c 0
 412.007422117 545.02884243 407.25101809 540.90021886 402.532607863 536.733604727 c 0
 397.814205651 532.566997671 393.135890704 528.364195196 388.497663022 524.125197301 c 0
 383.859433031 519.88619754 379.261898403 515.611586272 374.70505914 511.301363499 c 0
 370.148222388 506.99114335 365.632116864 502.645288749 361.156742567 498.263799697 c 0
 356.681368768 493.882311346 352.247910753 489.466326808 347.856368524 485.015846081 c 0
 325.891411401 462.756100484 304.952609938 439.612943104 285.039964137 415.586373941 c 0
 281.057577382 410.781241285 277.11641829 405.940958145 273.216486861 401.06552452 c 0
 269.31655479 396.190090042 265.457981898 391.279672243 261.640768184 386.334271124 c 0
 257.823553625 381.388868819 254.047700878 376.408495286 250.313209943 371.393150523 c 0
 246.578718764 366.37780529 242.885653051 361.327568548 239.234012805 356.242440296 c 0
 235.582359454 351.157293605 231.972375573 346.037604296 228.404061161 340.883372368 c 0
 172.330125246 259.741088632 136.442662853 189.730592634 120.741673984 130.851884374 c 0
 118.829076591 122.351451516 117.872777894 114.531110124 117.872777894 107.390860199 c 0
 117.872777894 94.4765841095 121.001066917 83.7870550341 127.257644963 75.3222729727 c 0
 130.426963876 71.0004744549 133.824573872 67.3207220032 137.450474952 64.2830156177 c 0
 141.076376032 61.2453092322 144.932995764 58.8421303038 149.020334149 57.0734788325 c 0
 157.198544166 53.5346470014 166.411915681 52.4769347673 176.660448696 53.9003421304 c 0
 187.898698504 55.7227610183 200.092562776 61.0705276526 213.242041513 69.9436420335 c 0
 226.39152025 78.8167564144 240.44732299 91.2118916599 255.409449733 107.12904777 c 0
 280.057503618 133.77559251 297.87622462 153.093083806 308.865612738 165.081521657 c 0
 311.566608919 168.028062945 314.51072758 171.352485839 317.697968719 175.05479034 c 0
 320.885209858 178.757094841 324.314354746 182.835999004 327.985403382 187.291502829 c 0
 335.330160559 196.205738771 343.633636113 206.617059668 352.895830044 218.525465521 c 0
 357.515927517 224.465590845 362.113614143 230.547478522 366.68888992 236.771128551 c 0
 371.264121357 242.99475054 375.821747636 249.3670331 380.361768757 255.88797623 c 0
 384.901720504 262.408852412 389.423936421 269.078871754 393.92841651 275.898034255 c 0
 395.43071935 278.172324017 396.930828411 280.462852126 398.428743694 282.769618582 c 0
 399.926658977 285.076385039 401.423323823 287.400858186 402.918738232 289.743038024 c 0
 404.414152641 292.085217861 405.908601452 294.44556293 407.402084663 296.82407323 c 0
 414.145746656 307.44534087 420.571424186 317.284543346 426.679117252 326.341680658 c 0
 432.786810317 335.39881797 438.577439901 343.675060131 444.051006003 351.17040714 c 0
 455.036798162 366.21404101 464.857296966 378.236564779 473.512502416 387.237978447 c 0
 475.954292899 389.77744055 478.344480931 391.903450839 480.683066512 393.616009314 c 0
 481.862228721 394.479515979 483.046649253 395.24319373 484.236328108 395.907042567 c 0
 485.426006963 396.570891404 486.62105859 397.134062797 487.821482989 397.596556748 c 0
 490.24995082 398.532185583 492.642789824 399 495 399 c 2
 497 399 l 1
 498.106538175 398.949004151 l 2
 506.505746199 396.887513728 512.656916408 391.953636124 516.560048801 384.147371339 c 0
 517.188939956 382.889589028 517.651117815 381.582336588 517.946582377 380.225614018 c 0
 518.241523708 378.871294035 518.369623317 377.490458693 518.330881204 376.083107991 c 2
 517.738796779 371.847326974 l 1
 517.330865935 369.650159986 l 2
 517.201684092 368.547931673 516.300456595 366.681140428 514.627183443 364.049786251 c 2
 511.276086891 358.740492546 l 2
 502.744145535 344.774176441 494.886585058 331.818713469 487.703405461 319.874103629 c 0
 480.520850376 307.930532265 474.02375603 297.016483006 468.212122422 287.131955852 c 0
 462.400678997 277.247786196 457.272362602 268.38965102 452.827173237 260.557550325 c 0
 445.903207803 248.358182656 438.808353832 234.909286068 431.542611325 220.210860563 c 0
 424.276868818 205.512435058 416.842556738 189.568660438 409.239675086 172.379536705 c 0
 404.478576169 161.543932272 400.210991129 151.346028619 396.436919966 141.785825748 c 0
 392.662875941 132.225863381 389.383485021 123.308311787 386.598747206 115.033170965 c 0
 381.051920034 98.5510135392 377.487006909 84.7694380567 375.904007832 73.6884445176 c 0
 374.992664923 67.8180944332 374.7705303 60.8726666406 375.237603962 52.8521611398 c 0
 375.354901935 50.8379412799 375.516645933 48.7674014095 375.722835955 46.6405415285 c 0
 375.929050328 44.51372491 376.179884489 42.3299479724 376.475338437 40.0892107157 c 0
 376.770802084 37.8485707703 377.111211873 35.5507135139 377.496567806 33.1956389466 c 0
 377.880248165 30.8509135029 378.308242789 28.4515600125 378.780551679 25.9975784753 c 0
 380.594370727 19.0706002346 381.758287609 13.2979629114 382.272302324 8.67966650577 c 0
 382.807040229 3.8751800794 382.636891494 -0.700460304557 381.761856119 -5.04725464609 c 0
 381.095592467 -6.91840083063 l 1
 379.743759379 -9.79750688276 l 2
 378.219122228 -13.1411597589 376.303231375 -15.6774884975 373.99608682 -17.4064930985 c 0
 371.688942265 -19.1354976995 369.023579991 -20 366 -20 c 0
 365.201552025 -20 364.410603028 -19.9739738969 363.627153008 -19.9219216907 c 0
 362.843702988 -19.8698694844 362.067922415 -19.7917548164 361.29981129 -19.6875776865 c 0
 359.761802921 -19.4789811798 358.25515165 -19.1652762576 356.779857476 -18.7464629201 c 0
 356.041876703 -18.5369615228 355.313214313 -18.3013635915 354.593870308 -18.0396691263 c 0
 353.874526303 -17.777974661 353.164731885 -17.490268202 352.464487054 -17.1765497493 c 0
 341.447979219 -9.32467735893 l 2
 338.152386079 -5.86408632977 335.291446216 -1.70750422935 332.86515963 3.14506894234 c 0
 325.694695883 19.1407188391 322.10946401 37.0537700615 322.10946401 56.8842226093 c 0
 322.10946401 62.5904920657 322.406327336 68.4555256288 323.00005399 74.4793232987 c 0
 323.040532667 75.9361669312 323.151505763 77.4639666702 323.332973278 79.0627225157 c 0
 323.515680749 80.674750032 323.769162154 82.3587573121 324.093417493 84.114744356 c 0
 324.417414815 85.870258322 324.809518238 87.6957280251 325.269727761 89.5911534652 c 0
 325.729831235 91.4865562195 326.259921981 93.4628383977 326.86 95.5199999999 c 0
 327.449450639 97.5409736212 328.01766235 99.4666593969 328.564635132 101.297057327 c 0
 329.111641973 103.127555097 329.639225801 104.868657742 330.147386617 106.520365263 c 0
 330.655623304 108.172297928 331.144205183 109.733555784 331.613132254 111.204138833 c 2
 331.744095814 111.614083353 l 2
 330.8884317 110.666530243 330.170270354 109.870933315 329.589611775 109.22729257 c 0
 329.008953196 108.583651825 328.385876337 107.892568444 327.720381197 107.154042427 c 0
 325.606252946 104.80791152 323.67745162 102.662289084 321.933977217 100.717175121 c 0
 320.19063365 98.772207723 318.641757216 97.0370171013 317.287347915 95.5116032559 c 0
 315.932854624 93.986097208 314.728097693 92.6210646379 313.67307712 91.4165055455 c 0
 312.618148275 90.2120560926 311.671559042 89.1208467903 310.833309421 88.1428776388 c 0
 307.755983746 84.8743805897 304.579874827 81.5919128072 301.304982664 78.2954742914 c 0
 298.030090501 74.9990357755 294.559409135 71.5808034658 290.892938566 68.0407773622 c 0
 283.569462675 60.9698639753 275.452321451 53.3993250673 266.541514894 45.3291606382 c 0
 248.247042387 28.7605817644 230.552806436 16.290006761 213.458807039 7.91743562814 c 0
 209.948282062 6.19799482295 206.481557036 4.65019884696 203.058631959 3.27404770017 c 0
 199.635706882 1.89789655337 196.253618621 0.692638408304 192.912367176 -0.341726735028 c 0
 189.571115731 -1.37609187836 186.273700741 -2.23820717251 183.020122208 -2.92807261746 c 0
 179.766543675 -3.61793806241 176.554046265 -4.13572565407 173.382629977 -4.48143539244 c 0
 170.211213689 -4.82714513081 167.083670363 -5 164 -5 c 0
 129.231563657 -5 101.322779472 7.3391463608 80.2736474448 32.0174390824 c 0
 66.1758575208 47.2209380201 59.1269625588 67.6579799586 59.1269625588 93.3285648981 c 0
 59.1269625588 134.707968811 77.4424284308 189.685926644 114.073360175 258.262438397 c 0
 152.39592628 329.528964837 200.104928688 397.740213675 257.2003674 462.896184912 c 0
 298.937534934 511.0285636 340.380972232 551.94727549 381.530679293 585.652320582 c 0
 422.680386354 619.357365674 463.538263041 645.84432422 504.104309355 665.113196219 c 0
 524.662276481 675.037732073 543.960840029 680 562 680 c 0
 577.749738951 680 589.810017658 675.866640888 598.18083612 667.599922665 c 0
 606.551654583 659.333204442 611.150628113 647.023155982 611.97775671 630.669777286 c 0
366 -11 m 1025
573 614 m 1025
EndSplineSet
EndChar

StartChar: H
Encoding: 72 72 16
Width: 592
VWidth: 965
Flags: HW
HStem: -9 56.9993<140.304 167.43> 633 49<684.989 791.104>
VStem: 52 49.5616<63.858 171.991> 356.241 55.5082<46.2813 183.326> 794.053 51.2666<563.456 621.271>
LayerCount: 2
Fore
SplineSet
448 642 m 0
 454.133936619 642 458.800959331 640.114685072 462.001068137 636.344055215 c 0
 465.201176944 632.573425359 466.914453063 627.052984694 467.140896494 619.782733219 c 0
 467.367339925 612.512481744 466.239615289 603.56017152 463.757722587 592.925802545 c 0
 454.276209722 559.717662192 442.988908252 526.161744813 429.895818176 492.258050408 c 0
 425.536373587 480.968206731 421.417625525 470.532297113 417.53957399 460.950321554 c 0
 413.661522454 451.368345996 410.022068787 442.635449211 406.621212988 434.751631198 c 0
 403.220357189 426.867813185 400.058836326 419.835130602 397.136650399 413.653583448 c 0
 394.702479628 408.504376049 391.806462369 402.470645466 388.44859862 395.552391699 c 0
 385.090639291 388.633913232 381.298596189 380.886943486 377.072469314 372.311482463 c 0
 375.796005705 369.721339606 374.45324764 367.001746389 373.044195121 364.15270281 c 0
 371.635142602 361.303659231 370.198714941 358.403673954 368.73491214 355.452746979 c 0
 367.271109339 352.501820004 365.787140252 349.514337189 364.283004879 346.490298532 c 1
 365.514902388 347.02407427 366.488971806 347.445548564 367.205213132 347.754721415 c 0
 367.921454458 348.063894266 368.728208923 348.411237549 369.625476527 348.796751262 c 0
 371.936212347 349.789565828 374.462025092 350.867929102 377.202914761 352.031841085 c 0
 384.171581548 354.991071131 391.955722311 358.252025327 400.55533705 361.814703673 c 0
 422.778126903 371.02128804 443.656451162 380.15736784 463.190309827 389.222943073 c 1
 475.21516859 410.259359569 484.090886746 425.730246531 489.817464293 435.63560396 c 0
 495.54404184 445.540961389 498.794513322 451.027031666 499.568878739 452.093814793 c 0
 513.061417474 470.681438087 529.248025307 494.19560679 548.128702239 522.636320902 c 0
 554.426738038 532.123467681 560.346645632 540.924859577 565.888425021 549.040496592 c 0
 571.43020441 557.156133606 576.595984049 564.589008404 581.38576394 571.339120987 c 0
 586.175543831 578.08923357 590.588464299 584.155238786 594.624525345 589.537136637 c 0
 600.68620745 597.620105037 606.750523694 605.011670403 612.817474076 611.711832735 c 0
 618.884424458 618.411995066 624.948320394 624.413694384 631.009161885 629.716930688 c 0
 640.514514999 638.358160792 650.301081263 645.939078417 660.368860678 652.459683564 c 0
 670.436640093 658.980288711 680.776530193 664.432899317 691.388530979 668.81751538 c 0
 702.021771156 673.210907035 712.89040808 676.506335718 723.99444175 678.703801431 c 0
 735.098475421 680.901267144 746.433661504 682 758 682 c 0
 784.264086803 682 806.626070324 673.877652694 825.085950565 657.632958082 c 0
 828.052639007 654.795256095 830.692093734 651.829854028 833.004314745 648.736751882 c 0
 835.316535756 645.643649737 837.303565815 642.41935791 838.96540492 639.063876402 c 0
 840.627244026 635.708394894 841.96410237 632.220466368 842.975979951 628.600090823 c 0
 844.538625754 623.00913323 845.319948656 617.181059416 845.319948656 611.115869381 c 0
 845.319948656 605.461262231 844.640828524 599.600555402 843.282588263 593.533748896 c 0
 840.554319898 581.347483532 834.645719456 568.972432149 825.556786938 556.408594748 c 0
 816.467854421 543.844757346 804.207161069 531.074193135 788.774706884 518.096902116 c 0
 719.247235583 459.934498239 622.807168856 402.106083374 499.454506703 344.611657523 c 1
 455.357590792 251.622939648 428.460276435 185.733155108 418.762563633 146.942303901 c 0
 414.087241997 124.881130067 411.749581178 106.838522384 411.749581178 92.8144808501 c 0
 411.749581178 90.8086309366 411.797403647 88.8849904482 411.893048584 87.0435593835 c 0
 412.631152926 72.8329977711 415.788123742 62.9397983201 421.363961031 57.3639610305 c 0
 421.669174559 57.0587475023 422.094276934 56.6439468589 422.639268156 56.1195591003 c 0
 423.184259378 55.5951713417 423.845062249 54.9652062999 424.621676769 54.2296639748 c 0
 426.181303527 52.752519957 428.187699355 50.8691311035 430.640864253 48.5794974142 c 0
 435.71504281 43.8435974277 440.289408402 39.4384186332 444.363961031 35.3639610307 c 2
 444.913991517 34.7616595969 l 2
 450.387036594 28.1940055038 452.282369796 22.3866104448 450.599991121 17.3394744199 c 0
 448.631318724 10.4491210322 444.253071832 5.06456679911 437.465250445 1.18581172077 c 0
 437.106625823 0.980883365479 436.736743141 0.801846850591 436.3556024 0.648702176104 c 0
 435.974461659 0.495557501618 435.5835344 0.368895942488 435.182820625 0.268717498713 c 0
 433.504054184 -0.150974111636 431.903521642 -0.466978153257 430.381222999 -0.679294626151 c 0
 428.848261852 -0.893098208717 427.387854186 -1 426 -1 c 2
 422 -1 l 1
 420.610178971 -0.883268259082 l 1
 420.333664671 -0.844395206681 l 2
 377.605497619 7.20583916544 356.241414093 33.4213835768 356.241414093 77.8022380273 c 0
 356.241414093 87.2425205784 357.208050025 97.504707864 359.141321889 108.588799884 c 0
 359.825261991 112.350470445 360.594086244 116.196310124 361.447794647 120.126318922 c 0
 362.30139865 124.055941797 363.232920026 128.039630733 364.242358775 132.07738573 c 0
 371.651097184 165.079947731 383.754624728 202.758755401 400.552941407 245.113808739 c 0
 408.551174238 268.554429024 418.166230384 293.376026194 429.398109844 319.578600249 c 1
 417.405779669 314.438753428 402.4658987 307.993219802 384.578466939 300.241999372 c 0
 372.368874662 294.951176052 362.120395301 290.537899825 353.833028856 287.002170691 c 0
 345.545662411 283.466441558 339.290183929 280.837383699 335.06659341 279.114997114 c 1
 323.535974989 257.316145543 306.197058758 223.269505719 283.049844719 176.975077641 c 0
 265.578090304 142.03156881 245.09245986 106.095916453 221.592953389 69.1681205702 c 0
 209.736927492 50.5372227322 199.189137649 35.4310442589 189.949583859 23.8495851504 c 0
 180.710030069 12.2681260419 172.699934724 4.13915649136 165.919297825 -0.537323501286 c 0
 161.46918695 -3.3692122401 157.606460124 -5.48763050792 154.331117349 -6.89257830475 c 0
 151.055774573 -8.29752610158 148.278735457 -9 146 -9 c 0
 144.207514913 -9 142.425875366 -8.9296886305 140.655081357 -8.78906589149 c 0
 138.884349971 -8.64842499441 137.124897883 -8.43740541373 135.376725093 -8.15600714946 c 0
 133.628615757 -7.8746082617 131.89302347 -7.52295400304 130.169948233 -7.10104437347 c 0
 127.588281306 -6.46890236569 125.046970732 -5.68489420621 122.54601651 -4.74901989502 c 0
 120.045062289 -3.81314558383 117.585336609 -2.72584153738 115.166839472 -1.48710775568 c 0
 110.356414227 0.976751376173 105.704102937 4.00813712651 101.2099056 7.60704949534 c 0
 96.7400969906 11.1864315937 92.434516233 15.3168873288 88.2931633272 19.9984167005 c 0
 62.6831469815 48.453990418 49.8781388087 80.4757686855 49.8781388087 116.063751503 c 0
 49.8781388087 124.427699034 50.5854258725 132.988626552 52 141.746534057 c 1
 52 143 l 1
 52.1864576901 144.752738979 l 2
 54.5092143194 154.490257241 59.2447931315 164.537865204 66.3931941266 174.895562869 c 0
 73.441680231 185.108488545 82.9218225435 195.995677135 94.833621064 207.55712864 c 0
 95.6945285007 208.341510971 96.5647682305 209.124584817 97.4443402533 209.906350176 c 0
 98.323912276 210.688115535 99.2129549359 211.468701117 100.111468233 212.248106921 c 0
 101.00998153 213.027512725 101.918130496 213.80586767 102.835915132 214.583171756 c 0
 103.753699768 215.360475842 104.681096494 216.136733807 105.618105311 216.911945652 c 0
 106.555114128 217.687157497 107.502072785 218.461584374 108.458981283 219.235226283 c 0
 109.415889782 220.008868193 110.382551824 220.781597639 111.35896741 221.553414622 c 0
 112.335382996 222.325231605 113.322062594 223.096529512 114.319006204 223.867308343 c 0
 115.315949814 224.638087174 116.322788421 225.408087199 117.339522026 226.177308417 c 0
 118.356255631 226.946529636 119.383556624 227.715489405 120.421425005 228.484187725 c 0
 129.751294664 235.394365606 139.89210459 242.247859161 150.843854782 249.044668392 c 0
 161.79551381 255.841708723 173.553209769 262.583206498 186.116942659 269.269161717 c 0
 188.631340231 270.607265793 191.177656941 271.94307019 193.75589279 273.276574908 c 0
 196.334128639 274.610079625 198.945527129 275.94191976 201.59008826 277.272095311 c 0
 204.23464939 278.602270863 206.912555637 279.930847677 209.623807 281.257825754 c 0
 212.335058363 282.584803831 215.080223914 283.910477899 217.859303655 285.234847956 c 0
 220.638383395 286.559218013 223.452234229 287.882690275 226.300856158 289.205264742 c 2
 258.392630494 303.245416014 l 2
 269.095841439 307.928070803 277.634126941 311.611171591 284.007487 314.294718376 c 0
 287.930760678 315.946623083 291.553006489 317.455454998 294.874224434 318.82121412 c 0
 305.883133465 340.259001107 316.99256904 363.009138626 328.202531159 387.071626677 c 0
 339.512287859 411.348326504 351.188181798 437.508165559 363.230212975 465.55114384 c 0
 371.280003678 484.297231779 378.467095018 501.794235266 384.791486994 518.042154302 c 0
 391.115843128 534.289823919 396.565715905 549.253299551 401.141105326 562.932581196 c 0
 403.426753239 569.765891495 405.496270441 576.284092401 407.349656933 582.487183915 c 0
 409.203043425 588.690275429 410.836897093 594.566065919 412.251217937 600.114555386 c 0
 415.188653368 612.965835391 419.477424024 623.051589277 425.117529906 630.371817042 c 0
 426.601322866 632.297614651 428.19397737 633.986577654 429.895493417 635.438706053 c 0
 431.597009464 636.890834452 433.402476892 638.1028827 435.3118957 639.074850797 c 0
 437.221314507 640.046818895 439.235242288 640.777335787 441.353679043 641.266401472 c 0
 443.472115797 641.755467157 445.687556116 642 448 642 c 0
101 201 m 1025
433 9 m 1025
442 20 m 1025
455 595 m 1025
534.80692743 417.273612517 m 1
 545.517820419 421.69332959 556.37114767 426.466222566 567.366909183 431.592291447 c 0
 579.30593148 437.158095197 591.552440534 443.203007271 604.106436343 449.727027668 c 0
 616.660489178 456.251128661 629.517792195 463.248803774 642.678345394 470.720053006 c 0
 649.261893617 474.45755311 655.941054251 478.323965429 662.715827298 482.319289964 c 0
 669.490600345 486.314614498 676.368564482 490.443366255 683.349719707 494.705545234 c 0
 688.262371734 497.653136451 693.064596005 500.636131665 697.75639252 503.654530876 c 0
 702.448189035 506.672930087 707.030040393 509.727065569 711.501946595 512.816937323 c 0
 715.973852797 515.906809076 720.335772662 519.032358211 724.587706191 522.193584727 c 0
 728.83963972 525.354811244 732.982199616 528.552182931 737.015385879 531.785699789 c 0
 741.048572142 535.019216648 744.972204815 538.288675238 748.786283897 541.594075559 c 0
 752.600362979 544.89947588 756.305631278 548.241421237 759.902088794 551.619911631 c 0
 764.762939607 556.010357527 769.09894226 560.272022444 772.910096753 564.404906382 c 0
 776.721251246 568.53779032 780.012985164 572.545701263 782.785298507 576.42863921 c 0
 784.168483356 578.36594581 785.423367187 580.269088374 786.549949999 582.138066903 c 0
 787.676532812 584.007045432 788.673746828 585.839621782 789.541592047 587.635795954 c 0
 790.409437267 589.431970125 791.149756781 591.192210718 791.762550589 592.916517733 c 0
 792.375344398 594.640824747 792.861972548 596.332041987 793.222435041 597.990169453 c 0
 793.912876107 600.835212622 794.189851536 603.60881769 794.053361327 606.310984655 c 0
 793.916729696 609.015951442 793.423412833 611.606093026 792.573410739 614.081409406 c 0
 791.755646975 616.462843587 790.547692372 618.898419067 788.949546929 621.388135846 c 0
 785.582130055 625.079079917 780.321035846 627.930446698 773.166264301 629.94223619 c 0
 769.552182598 630.958449153 765.479713687 631.722129695 760.948857567 632.233277817 c 0
 756.418001447 632.744425939 751.435048925 633 746 633 c 0
 743.198764956 633 740.372006615 632.839860175 737.519724978 632.519580526 c 0
 734.667443341 632.199300877 731.787823127 631.718495786 728.880864338 631.077165255 c 0
 725.973905549 630.435834724 723.039478768 629.633151722 720.077583995 628.669116251 c 0
 717.115689222 627.705080779 714.127420977 626.579919572 711.112779258 625.293632631 c 0
 705.077137328 622.718345706 698.935751992 619.488248198 692.688623251 615.603340107 c 0
 686.44149451 611.718432016 680.089559163 607.177533037 673.632817208 601.980643171 c 0
 669.449841513 598.62393428 665.284250861 595.101572467 661.136045253 591.413557732 c 0
 656.987839644 587.725542997 652.856272532 583.871096307 648.741343916 579.850217662 c 0
 644.626415299 575.829339017 640.529003375 571.642769226 636.449108142 567.290508289 c 0
 630.328011831 560.760779744 624.24677672 553.857674213 618.205402808 546.581191694 c 0
 612.164028897 539.304709176 606.162746747 531.654940144 600.201556358 523.631884598 c 0
 596.926806283 519.224459229 593.659264487 514.694550006 590.398930969 510.042156929 c 0
 587.138575334 505.389716955 583.895983795 500.630675644 580.671156354 495.765032995 c 0
 577.446280181 490.899305772 574.233281009 485.919656347 571.03215884 480.826084719 c 0
 567.831046092 475.732516946 564.650000089 470.537969801 561.489020831 465.242443283 c 0
 558.32800366 459.946844725 555.183665085 454.546078413 552.056005107 449.040144346 c 0
 548.928354428 443.534218331 545.823059244 437.932935178 542.740119555 432.236294888 c 0
 541.458530413 429.86817819 540.119942697 427.367446635 538.724356408 424.734100222 c 0
 537.328770119 422.100753809 536.022960459 419.613924574 534.80692743 417.273612517 c 1
265.051849314 253.520369476 m 1
 224.304161045 240.42252429 184.739087301 219.838224818 146.35662808 191.76747106 c 0
 145.302741165 190.977055874 144.262497507 190.181972695 143.235897106 189.382221522 c 0
 142.209296704 188.58247035 141.20181265 187.782286396 140.213444944 186.981669661 c 0
 138.232733916 185.377215786 136.331578294 183.773669526 134.509978079 182.171030882 c 0
 132.687828725 180.56794427 130.946197517 178.967811095 129.285084454 177.370631357 c 0
 127.623971392 175.773451618 126.043452336 174.179402057 124.543527287 172.588482672 c 0
 123.045447578 170.999520575 121.62147111 169.411902763 120.271597885 167.825629235 c 0
 118.921669243 166.23935159 117.64578791 164.654803006 116.443953885 163.071983482 c 0
 115.244695176 161.492632981 114.120913775 159.916152576 113.07260968 158.342542267 c 0
 112.024212896 156.768898419 111.0510128 155.198459167 110.153009392 153.631224512 c 0
 109.553977835 152.585858441 108.986817123 151.542662122 108.451527256 150.501635556 c 0
 107.916186384 149.460551723 107.413297899 148.423166904 106.942861802 147.389481099 c 0
 106.4723727 146.355732715 106.033449303 145.324193551 105.626091611 144.294863608 c 0
 105.014609038 142.749827065 104.472917092 141.208969094 104.001015775 139.672289695 c 0
 103.529155204 138.13597325 103.124044459 136.594418645 102.785683542 135.04762588 c 0
 101.902833843 131.102969697 101.494799843 126.910380333 101.56158154 122.469857786 c 0
 101.628363237 118.029335239 102.165498104 113.359481555 103.172986139 108.460296734 c 0
 104.180474174 103.561111913 105.669084479 98.4158962452 107.638817056 93.0246497297 c 0
 109.608549632 87.6334032143 112.05494195 82.0147278971 114.97799401 76.1686237781 c 0
 116.741104201 72.9362550935 118.879921609 69.6486126972 121.394446233 66.3056965893 c 0
 123.908615786 62.963252528 126.772794914 59.6075568918 129.986983619 56.2386096807 c 2
 135.719709772 50.9905049027 l 2
 136.157541138 50.652477756 136.569449507 50.3417589238 136.955434879 50.0583484063 c 0
 137.34142025 49.7749378888 137.700381614 49.5195410213 138.032318971 49.2921578038 c 0
 138.686811144 48.8438185815 139.173802183 48.5391861713 139.493292088 48.378260573 c 2
 140.303593651 47.9992883317 l 2
 143.483046059 48.1166600588 146.192854064 48.6412559367 148.433017667 49.5730759652 c 0
 150.838053062 50.5734761807 153.115165993 52.0483506829 155.264356462 53.997699472 c 0
 171.624329929 75.0376633654 187.42569498 99.0166742811 202.668451613 125.934732219 c 0
 207.861935391 135.106203572 212.686995953 143.798923948 217.1436333 152.012893345 c 0
 221.600224982 160.2267011 225.679271714 167.94354124 229.380773495 175.163413767 c 0
 233.08077936 182.380212355 236.409308012 189.110000133 239.36635945 195.352777102 c 0
 240.857928978 198.501646106 242.416054931 201.848577231 244.040737308 205.393570478 c 0
 245.665418295 208.938575822 247.340413317 212.645377109 249.065722373 216.51397434 c 0
 250.791055449 220.382632786 252.569663845 224.418374102 254.401547562 228.621198288 c 0
 256.233421607 232.824005188 258.107205908 237.167878266 260.022900465 241.652817521 c 0
 261.640638918 245.44019761 263.316955201 249.396048261 265.051849314 253.520369476 c 1
135.719709772 50.9905049027 m 1
 135.719709772 50.9905049027 l 1
129.986983619 56.2386096807 m 1
 129.986983619 56.2386096807 l 1
156.009721422 53.3271884405 m 1025
EndSplineSet
EndChar

StartChar: I
Encoding: 73 73 17
Width: 276
VWidth: 965
Flags: HW
HStem: -7 21G<118.642 125.211> 650 20G<356.513 365.265>
VStem: 97.1818 56.8182<17.0655 57.5577> 109 45<17.0655 57.5577>
LayerCount: 2
Fore
SplineSet
126.487652189 135.922318884 m 0xd0
 130.4925409 147.603244291 134.326779209 158.772559213 137.990367116 169.43026365 c 0
 141.654087275 180.088353415 145.159874152 190.271786012 148.507727749 199.980561441 c 0
 155.254266071 218.870868744 174.67387204 265.088877581 206.766545657 338.634587953 c 0
 239.373157502 412.498545396 269.319937988 485.036665052 296.606887115 556.248946923 c 0
 320.605214146 618.244625087 334.269548289 653.571913351 337.599889544 662.230811714 c 0
 339.470376884 665.016315836 341.836270576 666.91101998 344.697570619 667.914924147 c 0
 345.347550989 668.216573873 345.786870977 668.409492074 346.015530583 668.493678749 c 0
 346.244190188 668.577865424 346.55753553 668.666159303 346.955566607 668.758560384 c 0
 347.648924082 668.919520128 348.33040188 669 349 669 c 2
 352 669 l 2
 352.359667373 669 353.077650741 669.179383227 354.153950105 669.538149682 c 0
 355.07765074 669.846049894 356.026334039 670 357 670 c 2
 362 670 l 1
 363 670 l 1
 365 670 l 2
 365.530179239 670 366.057532511 669.967633507 366.582059817 669.902900521 c 0
 367.106587123 669.838167535 367.627153556 669.741234135 368.143759116 669.61210032 c 0
 368.647356507 669.486218106 369.139448209 669.334705712 369.620034224 669.157563138 c 0
 370.100620238 668.980420564 370.568916283 668.777847758 371.024922359 668.549844719 c 2
 372.024922359 668.049844719 l 2
 372.457781517 667.83341514 372.870284782 667.583878434 373.262432155 667.301234599 c 0
 373.654579528 667.018590765 374.02175582 666.706166242 374.363961031 666.363961031 c 2
 374.87835028 665.675482249 l 1
 378.327809381 659.330208158 l 1
 378.731282501 658.182820625 l 2
 379.738465956 654.154086806 379.044531861 647.916865684 376.649480218 639.471157257 c 0
 374.967464984 632.406693274 372.344327306 623.422329493 368.780067184 612.518065914 c 0
 365.215807062 601.613802335 360.714140306 588.799615946 355.275066916 574.075506747 c 0
 344.399309621 544.63375692 329.744298117 507.456594682 311.310032404 462.544020034 c 0
 263.311505518 347.880872474 228.678291255 262.63154648 207.410389615 206.796042051 c 0
 203.885339604 197.542785774 200.586963675 188.786074713 197.515261828 180.525908868 c 0
 194.443559981 172.265743023 191.59991401 164.50597663 188.984323913 157.24660969 c 0
 186.368733817 149.987242749 183.980434459 143.226304887 181.819425838 136.963796103 c 0
 175.353324422 118.225316058 171.001697905 104.221976255 168.764546286 94.953776693 c 2
 154 22.2711758325 l 1
 154 19 l 2
 154.794834823 18.0757758959 154.723396004 17.4249845225 153.785683542 17.0476258796 c 0
 152.977281532 13.4098168354 151.696282263 10.0864876949 149.942685735 7.07763845813 c 0
 148.914424826 5.4096703144 147.931560685 4.04794659311 146.994093311 2.99246729426 c 0
 146.056625938 1.93698799541 144.944440038 0.91848464159 143.657535613 -0.0630427672092 c 0
 142.32296336 -1.11970773463 140.94522347 -2.05497455199 139.524315941 -2.86884321929 c 0
 138.103408413 -3.6827118866 136.648673424 -4.36875167954 135.160110975 -4.92696259812 c 0
 131.474711149 -6.30898753271 127.421340824 -7 123 -7 c 0
 114.28431582 -7 107.463624285 -4.6834449491 102.537925396 -0.0503348473022 c 0
 97.3925724212 4.78938178553 95.6071925971 11.408155639 97.1817859238 19.8059867132 c 0xe0
 99.8723607379 31.9135733783 103.552109091 48.3056937549 108.221030982 68.982347843 c 2
 108.461850318 69.8460498938 l 2
 108.644012073 70.3925351591 108.779418556 70.9285263225 108.868069768 71.4540233841 c 0
 108.956023256 71.9753845518 109 72.4907100904 109 73 c 0
 109.149880157 74.5732269605 l 2
 113.260126772 93.8074958075 119.039384116 114.257193115 126.487652189 135.922318884 c 0xd0
106 18 m 1025
105 18 m 1025
104 18 m 1025
102 18 m 1025
101 18 m 1025
EndSplineSet
EndChar

StartChar: J
Encoding: 74 74 18
Width: 362
VWidth: 965
Flags: HW
HStem: -128 56<173.362 235.057> 653 20G<400.025 404.012>
VStem: 28.9065 56.5801<-25.9351 73.3533>
LayerCount: 2
Fore
SplineSet
368.207240602 625.921490495 m 0
 368.916425659 629.290119516 369.583297107 632.32662658 370.207854946 635.031011687 c 0
 370.832412785 637.735396794 371.413531965 640.102180916 371.951212486 642.131364053 c 0
 372.494890481 644.183181398 373.010884514 645.938896922 373.499194586 647.398510627 c 0
 373.987504658 648.858124332 374.455188572 650.034988941 374.902246328 650.929104452 c 0
 375.739425291 652.708109747 376.617930328 654.383267978 377.537761441 655.954579144 c 0
 378.457592554 657.52589031 379.420069437 658.995046359 380.425192092 660.362047292 c 0
 381.430314746 661.729048225 382.478932004 662.991593046 383.571043866 664.149681757 c 0
 384.663155728 665.307770468 385.795867266 666.357565137 386.969178479 667.299065764 c 0
 391.705567646 671.099688588 397.04917482 673 403 673 c 0
 405.02430762 673 407.251678292 672.555868091 409.682112016 671.667604274 c 0
 414.309410997 670.730816433 418.005685308 669.168570755 420.770934949 666.98086724 c 0
 423.53618459 664.793163725 425.333117101 662.015339798 426.161732481 658.647395459 c 0
 426.990347861 655.27945112 426.846864535 651.336045761 425.731282503 646.817179382 c 2
 425.538149682 646.153950106 l 1
 423.538149682 640.153950106 l 1
 423.482686424 640.001440311 l 2
 422.971799799 638.706777824 422.093929983 635.93489891 420.849076977 631.685803567 c 0
 419.591940498 627.394780665 418.281516615 622.673820648 416.917805328 617.522923515 c 2
 416.700834693 615.73816871 l 2
 413.368904205 603.715259713 410.05033675 591.09339637 406.745132328 577.872578683 c 0
 392.175761389 516.283874259 378.911089864 428.347433071 366.951117753 314.063255119 c 0
 360.933340572 256.560050942 354.581766666 205.327977846 347.896396035 160.367035831 c 0
 345.666293508 145.369288539 343.397483996 131.062137386 341.089967501 117.445582372 c 0
 338.782451006 103.829027359 336.435167934 90.8974991875 334.048118285 78.6509978588 c 0
 331.661068636 66.4044965301 329.234185194 54.8432555955 326.767467958 43.9672750551 c 0
 316.594755293 0.563701018767 306.004794612 -31.8013194256 294.997585913 -53.127786278 c 0
 285.111909118 -69.6279643047 274.662453495 -83.3484264074 263.649219044 -94.2891725862 c 0
 252.556435622 -105.308944151 240.678981822 -113.675349106 228.016857645 -119.388387449 c 0
 225.898726501 -120.344069472 223.762512846 -121.220395306 221.60821668 -122.017364951 c 0
 219.453920515 -122.814334596 217.281731112 -123.531844967 215.091648471 -124.169896062 c 0
 213.631464198 -124.595301093 212.16362609 -124.98529632 210.688134147 -125.339881744 c 0
 209.212642204 -125.694467168 207.729559542 -126.013627834 206.23888616 -126.297363742 c 0
 204.748212779 -126.581099649 203.25001507 -126.829397729 201.744293034 -127.04225798 c 0
 197.227735791 -127.68075266 192.646304779 -128 188 -128 c 0
 173.361931385 -126.977351972 l 1
 172.727207794 -126.909545443 l 2
 162.875497682 -125.502158284 153.372093626 -123.330668 144.216995627 -120.395074589 c 0
 135.061897627 -117.459481178 126.256968424 -113.760244969 117.802208018 -109.297365962 c 0
 109.347447613 -104.834486954 101.245702437 -99.6092199709 93.4969724903 -93.6215650126 c 0
 70.3012816692 -75.6976221054 52.8957185142 -53.7122835884 41.2802830253 -27.6655494617 c 0
 33.031096359 -9.16737330094 28.9065030259 8.05661471458 28.9065030259 24.0064145849 c 0
 28.9065030259 30.9337383483 29.6845424985 37.6207066167 31.2406214439 44.06731939 c 0
 41.3252828014 87.2872966367 65.4243464011 113.819080914 103.537812243 123.662672223 c 0
 105.588211979 124.192230388 107.185163974 124.590557367 108.328668229 124.857653162 c 0
 109.472172484 125.124748957 110.86338795 125.381914054 112.502314628 125.629148453 c 0
 114.141241307 125.876382852 115.640469764 126.000000034 117 126 c 2
 118.765045216 125.825226081 l 1
 123.765045216 124.825226081 l 2
 124.472237237 124.683787677 125.151113515 124.461492354 125.801674049 124.158340112 c 0
 126.452234582 123.855187869 127.059095042 123.478347594 127.622255428 123.027819285 c 0
 137.037858319 115.495336972 141.122954948 107.992866915 139.877545314 100.520409114 c 2
 139.861663605 100.443756153 l 1
 139.559978598 99.2291259233 l 2
 138.227758137 95.2260051598 135.705199193 91.9868123023 131.992301766 89.511547351 c 2
 131.244870253 89.0639382226 l 2
 105.374383875 75.2262362063 90.6018978758 60.1079067666 86.9274122563 43.7089499036 c 0
 85.9668540456 39.4220498328 85.4865749402 35.0548658848 85.4865749402 30.6073980596 c 0
 85.4865749402 21.2790171865 87.5994830147 11.5974407432 91.8252991635 1.56266872979 c 0
 98.0988353732 -13.3346915343 106.626301664 -26.2489406607 117.407698036 -37.1800786494 c 0
 139.699012933 -59.7809951418 164.929051765 -71.387635592 193.097814532 -72 c 0
 194.933099551 -72 196.780154895 -71.8720545498 198.638980564 -71.6161636494 c 0
 200.497806233 -71.3602727489 202.370317779 -70.9752865744 204.256515201 -70.4612051257 c 0
 206.142712624 -69.947123677 208.036183023 -69.3047555394 209.9369264 -68.5341007128 c 0
 215.666200115 -66.2111714336 221.463192778 -62.7038221499 227.327904389 -58.0120528616 c 0
 232.18106765 -54.0153301765 237.077866953 -48.0698282545 242.018302299 -40.1755470956 c 0
 247.045243226 -32.1430393765 252.052026936 -22.181576453 257.038653429 -10.2911583251 c 0
 259.542472832 -4.32089773666 262.036740786 2.18350755527 264.521457289 9.2220575507 c 0
 267.006173792 16.2606075461 269.480545814 23.8317610672 271.944573354 31.935518114 c 0
 276.880651725 48.1694194149 281.64350234 66.2026358319 286.233125198 86.0351673648 c 0
 290.523210801 104.515536114 293.98664833 121.254546908 296.623437786 136.252199746 c 0
 297.149773006 139.245913517 297.643013023 142.168191595 298.103157837 145.019033979 c 0
 298.56330265 147.869876364 298.990224253 150.648372331 299.383922646 153.35452188 c 0
 299.777621039 156.060671429 300.138221983 158.695179629 300.465725478 161.25804648 c 0
 300.793228973 163.820913331 301.087558335 166.311436148 301.348713562 168.729614933 c 0
 301.609868789 171.147793718 301.837924321 173.494125498 302.032880159 175.768610272 c 0
 302.703100849 183.587851655 303.817183917 195.287343943 305.375129364 210.867087136 c 0
 306.933202786 226.44871895 308.935357682 245.914540909 311.381594051 269.264553013 c 0
 311.789464348 273.157795107 312.209642047 277.158690015 312.642127148 281.267237736 c 0
 313.074612249 285.375785457 313.51951323 289.593012771 313.976830093 293.918919678 c 0
 314.434146955 298.244826585 314.903853757 302.679163664 315.385950499 307.221930914 c 0
 315.868047241 311.764698164 316.362632271 316.416823051 316.86970559 321.178305574 c 0
 317.376778909 325.939788098 317.896325381 330.810484773 318.428345005 335.790395598 c 0
 318.96036463 340.770306423 319.504945626 345.86025955 320.062087993 351.060254978 c 0
 332.773715676 448.739078223 348.822099879 540.359490062 368.207240602 625.921490495 c 0
117 117 m 1025
174 -118 m 1025
188 -119 m 1025
287 -49 m 1025
EndSplineSet
EndChar

StartChar: K
Encoding: 75 75 19
Width: 468
VWidth: 965
Flags: HW
HStem: -7 21G<36.2891 41.1406>
LayerCount: 2
Fore
SplineSet
215.435720079 346.265765405 m 1
 217.680939683 342.939085511 219.889580836 338.993975475 222.061643537 334.430435298 c 0
 224.333432286 329.65736902 226.561817179 324.269059004 228.746798216 318.265505251 c 0
 230.78919232 312.653729869 232.877377768 306.319897789 235.01135456 299.26400901 c 1
 286.965554247 340.094016937 331.337053513 382.275726885 368.125852359 425.809138852 c 2
 368.636038969 426.363961031 l 1
 371.803793646 429.766025386 l 2
 373.072661447 431.193317684 374.500066392 432.858529088 376.086008483 434.761659597 c 0
 446.963516086 511.612029418 500.542647839 586.947282824 536.82340374 660.767419813 c 0
 538.877079933 665.51311181 541.315547656 670.067568394 544.13880691 674.430789564 c 0
 548.099066769 680.551190649 551.177016596 684.834277099 553.372656391 687.280048914 c 0
 555.621735743 689.785348236 559.090168272 692.160954286 563.777953979 694.406867063 c 0
 568.552349921 696.694274706 573.556024137 696.411570282 578.788976626 693.558753791 c 0
 581.651570012 692.621063412 584.162649113 691.326202231 586.32221393 689.674170246 c 0
 587.448886626 688.812283945 588.493536829 687.852176284 589.45616454 686.793847263 c 0
 590.418792251 685.735518242 591.297721867 684.581528965 592.092953389 683.33187943 c 0
 592.800527726 682.219976901 593.376032783 681.047813629 593.819468561 679.815389613 c 0
 594.262178397 678.584983181 594.570558718 677.306184029 594.744609523 675.978992158 c 0
 594.91712713 674.663491405 594.96840652 673.300525095 594.898447694 671.890093226 c 0
 594.82886252 670.487194506 594.636421857 669.035264831 594.321125705 667.534304202 c 0
 594.008352325 666.045353177 593.586331217 664.520035234 593.055062381 662.958350374 c 2
 591.124354775 658.124097752 l 2
 582.084457285 640.044302772 572.285031887 622.128821555 561.726078582 604.3776541 c 0
 551.168153988 586.62821606 539.840616934 569.01837925 527.743467419 551.548143671 c 0
 515.647998961 534.080101318 502.753025877 516.70284421 489.058548167 499.416372346 c 0
 453.566431204 454.548979205 420.664952343 415.452438804 390.354111585 382.126751143 c 0
 360.009661591 348.764111327 332.187413528 321.119438095 306.887367397 299.192731448 c 0
 295.342945165 289.208366275 284.467405121 279.916669333 274.260747266 271.317640622 c 0
 269.43749969 267.254105583 264.787624757 263.365519305 260.311122467 259.65188179 c 0
 256.114240859 256.170215118 252.072563885 252.844340395 248.186091546 249.67425762 c 1
 255.2397987 223.18616135 262.303861171 199.507992152 269.37827896 178.639750025 c 0
 271.796438347 171.506620896 274.208785164 164.710273516 276.61531941 158.250707883 c 0
 279.021853657 151.791142251 281.421394651 145.671134042 283.813942394 139.890683255 c 0
 286.206490137 134.110232468 288.592638564 128.667524722 290.972387674 123.562560017 c 0
 294.527647605 115.935925601 298.077171637 109.022377101 301.620959768 102.821914518 c 0
 305.1647479 96.6214519344 308.704223071 91.1297873827 312.239385282 86.3469208628 c 2
 320.454783828 75.0428049979 l 2
 329.306342607 61.7654668298 339.501545702 49.8419930687 351.040393113 39.2723837148 c 0
 362.586762779 28.6958839587 373.859422667 20.3282924921 384.858372777 14.169609315 c 0
 390.214005664 11.1708098079 395.624936262 8.53843461009 401.091164569 6.27248372162 c 0
 406.555508502 4.00712169102 411.810511915 2.18926385223 416.856174809 0.818910205237 c 0
 421.596473582 -0.275924755301 425.667582264 -2.06736514301 429.069500854 -4.55541095788 c 0
 436.584851688 -9.3173479914 440.342527106 -15.0940225452 440.342527106 -21.8854346192 c 0
 440.342527106 -27.6573430136 437.628351402 -34.1621981415 432.199999998 -41.4000000031 c 2
 432.106047095 -41.518892075 l 1
 426.076132091 -46.8021954114 l 2
 423.814082768 -48.2141177169 421.337386424 -49.2678425897 418.646043057 -49.9633700299 c 0
 415.971883341 -50.6544566766 413.089868989 -51 410 -51 c 0
 407.947943673 -51 405.807900437 -50.8605568184 403.579870292 -50.5816704552 c 0
 401.351840147 -50.302784092 399.034706705 -49.8851515711 396.628469968 -49.3287728926 c 0
 395.435600575 -49.0529533583 394.211848946 -48.7436784818 392.95721508 -48.4009482633 c 0
 391.702581214 -48.0582180448 390.416820869 -47.6820239086 389.099934045 -47.2723658548 c 0
 388.218465402 -46.9981579868 387.322965666 -46.7091586749 386.413434836 -46.4053679192 c 0
 385.503904006 -46.1015771635 384.575043016 -45.7811875117 383.626851867 -45.4441989639 c 0
 382.678660718 -45.107210416 381.707273541 -44.7522317912 380.712690336 -44.3792630895 c 0
 338.239252511 -26.97211644 303.816851669 1.85697141003 277.445487808 42.1080004607 c 2
 261.349463888 67.2580378342 l 2
 254.319047193 78.9753989939 247.449381137 92.3784182875 240.740465722 107.467095715 c 0
 234.031550307 122.555773143 227.498348801 139.282105548 221.140861205 157.646092929 c 0
 214.783373608 176.010080311 208.588401817 196.034990295 202.555945832 217.72082288 c 1
 194.179115639 212.519242327 186.346613594 208.10101165 179.058439698 204.466130848 c 0
 171.770265802 200.831250046 164.9686613 197.943145962 158.653626193 195.801818597 c 0
 152.338591086 193.660491231 146.385459763 192.211994431 140.794232225 191.456328196 c 1
 109.895751901 129.416066952 86.3118095984 77.9109701752 70.0424053175 36.9410378662 c 1
 71.9461074289 32.9422569411 72.8979584847 29.0455755564 72.8979584847 25.250993712 c 0
 72.8979584847 17.4849339542 68.9109918335 10.1465329775 60.9370585311 3.2357907822 c 0
 53.2602154445 -3.58806973927 45.2811959341 -7 37 -7 c 0
 35.5782143709 -7 34.1617497861 -6.8979235424 32.7506062456 -6.69377062719 c 0
 31.3394627051 -6.48961771198 29.9353102613 -6.18379945354 28.5381489141 -5.77631585186 c 0
 27.155632438 -5.37310344251 25.7909962673 -4.87906972421 24.4442404019 -4.29421469698 c 0
 23.0979864744 -3.70967707503 21.7716265972 -3.0362755454 20.4651607703 -2.27401010809 c 0
 11.8497620698 2.75163913382 9.77956980837 10.3787656719 14.2545839859 20.6073695061 c 0
 16.5367999621 25.8238631662 20.8215213733 36.5393235609 27.1087482195 52.7537506904 c 0
 33.4800303593 69.1849519983 38.6863458628 82.1154596639 42.7276947299 91.5452736873 c 0
 44.678627097 96.0974492105 46.8254254957 100.989153256 49.1680899259 106.220385825 c 0
 51.5107543561 111.451618393 54.0498937894 117.023877458 56.7855082258 122.93716302 c 0
 62.2545547331 134.759016757 68.4273186046 147.77481932 75.3037998402 161.98457071 c 0
 78.5719342371 168.738003939 82.0574131109 175.879885173 85.7602364614 183.410214412 c 0
 89.463059812 190.940543651 93.2511156757 198.592069727 97.1244040524 206.36479264 c 1
 89.805223669 215.479368122 86.1456334772 226.705003077 86.1456334772 240.041697502 c 0
 86.1456334772 247.140888861 87.1825739344 254.838246369 89.2564548485 263.133770025 c 0
 90.041728059 266.431917509 90.9470203724 269.709745467 91.9723317885 272.9672539 c 0
 92.9975919506 276.224599494 94.1413322644 279.456282896 95.40355273 282.662304107 c 0
 96.6657468754 285.868293927 98.0447907542 289.044375234 99.5406843663 292.190548029 c 0
 101.785248785 296.911385656 104.28669332 301.561598249 107.04501797 306.14118581 c 0
 109.803192042 310.720652818 112.817125226 315.228741988 116.086817521 319.66545332 c 0
 122.61458398 328.523395459 130.174569867 337.132358303 138.76677518 345.49234185 c 0
 144.738477397 351.14974395 150.787067059 355.684097385 156.912544165 359.095402156 c 0
 162.838151631 362.395398657 168.52188597 364.52998684 173.963747181 365.499166705 c 1
 204.59434883 433.545545631 224.372984086 484.14683441 233.299652949 517.303033043 c 0
 236.292747624 528.61027959 239.035451016 539.08206502 241.527763127 548.718389333 c 0
 244.020075238 558.354713646 246.258273787 567.141045778 248.242358775 575.07738573 c 0
 251.667155308 590.33329756 253.985853906 602.612160796 255.198454569 611.913975437 c 0
 256.411055232 621.215790078 256.525523439 627.219235743 255.541859189 629.924312432 c 2
 255.498449038 630.052640843 l 2
 254.576868641 632.994205393 254.007524088 635.875772874 253.790415379 638.697343286 c 0
 253.572484128 641.529603532 253.714293442 644.310441772 254.215843321 647.039858006 c 0
 255.247785649 652.590026085 257.790681155 657.265351696 261.84452984 661.065834837 c 0
 265.257539055 664.265530976 268.996367528 666.775183083 273.061015259 668.59479116 c 0
 277.12566299 670.414399236 281.500384 671.537148469 286.185178287 671.963038858 c 0
 286.728392761 672.012421992 287.271607237 672.012421992 287.814821714 671.963038859 c 0
 295.125714428 671.298412248 300.406384278 667.349874317 303.656831264 660.117425064 c 0
 306.90727825 652.884975811 308.185999599 642.609176295 307.492995312 629.290026516 c 0
 306.799991025 615.970876737 304.220377207 599.510422833 299.754153859 579.908664805 c 0
 298.739840926 575.851413074 297.666352862 571.64104769 296.533689667 567.277568655 c 0
 295.401026472 562.91408962 294.206058371 558.385322993 292.948785365 553.691268774 c 0
 290.437196893 544.314202372 287.668532897 534.246576691 284.642793377 523.48839173 c 0
 280.039933136 508.145524259 274.298865136 491.092165735 267.419589379 472.328316159 c 0
 260.544920692 453.577032784 252.7003997 433.531805804 243.886026401 412.192635217 c 0
 239.598946082 401.813499103 235.022061068 390.988790659 230.155371358 379.718509885 c 0
 227.787678476 374.235396688 225.35488983 368.655876496 222.85700542 362.97994931 c 0
 220.35912101 357.304022123 217.88535923 351.732627488 215.435720079 346.265765405 c 1
183.949544102 279.282194518 m 1
 183.746938522 278.867671795 183.591901358 278.550531428 183.484432611 278.330773416 c 0
 183.162014018 277.671474121 182.744107093 276.817528947 182.230711836 275.768937894 c 0
 180.686923682 272.61580672 179.177963455 269.540970064 177.703831155 266.544427925 c 0
 176.229843292 263.548179786 174.795352793 260.638461132 173.400359658 257.815271963 c 0
 172.999507532 257.004222193 l 2
 173.599620474 257.32198349 174.368467963 257.736746542 175.30605 258.248511349 c 0
 176.991630986 259.168559935 178.699572175 260.127759473 180.429873568 261.126109963 c 0
 181.293073033 261.624171889 182.144880446 262.121600492 182.985295807 262.618395772 c 0
 183.825711168 263.115191051 184.647672175 263.607152317 185.451178829 264.094279569 c 2
 188.358163122 265.885106155 l 1
 188.10029696 266.695605992 l 2
 187.946202121 267.179048978 187.787183685 267.676029875 187.623241652 268.186548682 c 0
 187.148432482 269.665113211 186.691443641 271.072382086 186.25227513 272.408355308 c 0
 185.812556509 273.746016062 185.383235316 275.039131765 184.964311553 276.287702417 c 0
 184.638741046 277.258046582 184.300485229 278.256210615 183.949544102 279.282194518 c 1
EndSplineSet
EndChar

StartChar: L
Encoding: 76 76 20
Width: 451
VWidth: 965
Flags: HW
HStem: -7.98492 46.9849<282.107 406.377> 301.829 20G<173.262 179.879>
LayerCount: 2
Fore
SplineSet
161.873373489 250.079216956 m 1
 161.573547336 249.804101536 161.310385604 249.558156566 161.083888294 249.341382047 c 0
 160.857390983 249.124607527 160.617415229 248.889493168 160.363961031 248.63603897 c 0
 157.614775618 245.886853557 154.42179412 242.052679089 150.785016539 237.133515566 c 0
 147.148238958 232.214352044 143.089700154 226.234534548 138.609400127 219.194063078 c 0
 134.689268322 212.987187719 130.595599368 206.024884437 126.328393266 198.307153234 c 0
 122.061187164 190.58942203 117.616111713 182.107611628 112.993166913 172.861722028 c 0
 103.045428328 154.292610003 94.7749004926 137.755405196 88.1815834061 123.250107606 c 0
 80.1214164991 105.6642889 74.1902886675 91.0787497068 70.3881999114 79.4934900274 c 1
 71.0507713167 80.1453951145 71.6391891499 80.7312806319 72.1534534112 81.2511465796 c 0
 72.6677176724 81.7710125273 73.2152113027 82.3327805477 73.7959343022 82.936450641 c 0
 74.5651816524 83.7360945677 75.3577666054 84.5735333202 76.1736891613 85.4487668984 c 0
 76.9895712578 86.3239663561 77.8314343463 87.2398870214 78.6992784269 88.1965288944 c 0
 79.5670761412 89.1531268261 80.4603462585 90.1500160439 81.3790887787 91.187196548 c 0
 82.2978191394 92.2243684048 83.2437883463 93.3038274568 84.2169963996 94.4255737041 c 0
 85.1903176062 95.5474542194 86.1940938291 96.7154432479 87.2283250683 97.9295407896 c 0
 99.1565115294 111.183081301 111.388001724 125.726563512 123.922795653 141.559987423 c 0
 135.726916894 156.643031231 147.223850237 173.070527459 158.413595681 190.842476106 c 0
 159.662830806 192.773112208 160.862718773 194.606541214 162.013259582 196.342763125 c 0
 163.164747213 198.080413836 164.188385701 199.605422475 165.084175046 200.917789044 c 0
 165.531768253 201.573517592 165.953410745 202.18706077 166.349102522 202.758418577 c 0
 166.745069877 203.330170949 167.211699899 203.996548889 167.748992587 204.757552397 c 2
 168.425611297 205.701469446 l 1
 168.122454686 207.520409114 l 2
 167.052950741 218.34297605 165.93477841 227.535610652 164.767937694 235.09831292 c 0
 163.774212204 241.538994938 162.809357469 246.532629617 161.873373489 250.079216956 c 1
212.987828949 276.939177065 m 0
 213.154827844 276.073139912 213.323127578 275.166472343 213.492728152 274.219174359 c 0
 213.662328726 273.271876374 213.817879934 272.368251918 213.959381776 271.508300991 c 2
 214.258724593 269.636856705 l 1
 221.617267948 280.338418597 228.906663988 290.846520062 236.126912715 301.161161099 c 0
 238.44734348 304.476062192 240.742706518 307.7964112 243.013001827 311.122208124 c 0
 245.283277812 314.447975559 247.534376792 317.787945537 249.766298767 321.142118057 c 0
 251.998170597 324.496215339 254.210585968 327.864426405 256.403544879 331.246751256 c 0
 258.596526678 334.629111542 260.773130418 338.030182041 262.933356097 341.449962754 c 0
 265.09360856 344.869786752 267.246202224 348.322458327 269.391137087 351.80797748 c 0
 277.423703578 364.191517487 285.431925417 376.620664813 293.415802603 389.095419459 c 0
 295.011395463 391.588522618 296.607862395 394.086324439 298.205203399 396.588824921 c 0
 299.80254457 399.091325666 301.399731238 401.596911043 302.996763404 404.105581052 c 0
 304.593795979 406.614251706 306.190714707 409.1260645 307.787519588 411.641019435 c 0
 309.384324297 414.155974101 310.980463989 416.673205478 312.575938666 419.192713567 c 0
 314.171413539 421.712221967 315.764472364 424.231235032 317.355115141 426.749752763 c 2
 361.295112138 498.651375915 l 2
 369.255030978 511.917907316 377.04875051 525.266778225 384.676270735 538.697988642 c 0
 392.30378726 552.129190483 399.778580137 565.66762864 407.100649367 579.313303115 c 2
 437.090817536 633.295605819 l 1
 439.848504264 637.930993174 l 2
 437.400445462 636.732294765 434.833523188 635.426159837 432.147737443 634.012588392 c 0
 430.42216881 633.176173839 428.701092553 632.875075981 426.98450867 633.109294819 c 0
 425.351605866 633.332095813 423.874618652 633.93972097 422.553547027 634.932170289 c 2
 422.366863998 635.115147708 l 1
 419.78486624 638.412330308 l 1
 419.643709782 638.657483913 l 2
 416.841014938 645.664221022 419.505124667 653.233046728 427.636038969 661.363961031 c 0
 428.460717789 662.18863985 429.297169987 662.9964131 430.145395564 663.787280781 c 0
 430.993621141 664.578148461 431.853629768 665.352118213 432.725421444 666.109190036 c 0
 433.59721312 666.866261859 434.48079346 667.606427628 435.376162463 668.329687344 c 0
 436.271531466 669.05294706 437.178616948 669.759238793 438.097418909 670.448562544 c 0
 441.773072242 673.206191771 445.620200727 675.680989194 449.638804362 677.872954813 c 0
 455.958254323 681.427645416 461.817265932 683.779564798 467.215839187 684.928712958 c 0
 468.575370712 685.218104817 469.913913729 685.429383317 471.231468239 685.562548458 c 0
 472.549022749 685.695713599 473.846007788 685.750705716 475.122423355 685.727524808 c 0
 476.398838922 685.7043439 477.654405453 685.602040172 478.889122949 685.420613624 c 0
 480.123840446 685.239187076 481.335164291 684.978734917 482.523094484 684.639257148 c 0
 485.780869135 683.708464391 488.684297995 682.245856243 491.233381063 680.251432706 c 0
 492.504338756 679.257024963 493.674338764 678.140204955 494.743381087 676.900972681 c 0
 495.812423409 675.661740407 496.778740813 674.303309492 497.642333299 672.825679937 c 0
 500.547447486 668.325289764 502.000003053 663.716729785 502 659 c 0
 502 653.991071463 500.892609518 649.75691791 498.677828555 646.297539342 c 0
 491.02959884 632.996739541 483.547167008 620.027547634 476.230533061 607.38996362 c 0
 468.913899113 594.752379605 461.763909653 582.447863693 454.78056468 570.476415884 c 0
 438.14976277 541.871436599 422.499982192 514.233711278 407.831222946 487.563239921 c 0
 403.131596217 479.506736957 398.438898578 471.536329139 393.75313003 463.652016468 c 0
 389.067341141 455.767669571 384.386392369 447.96573693 379.710283714 440.246218545 c 0
 378.152136718 437.673963677 376.593551406 435.109246693 375.034527778 432.552067594 c 0
 373.475504149 429.994888495 371.916997601 427.446808423 370.359008133 424.907827378 c 0
 368.801018665 422.368846333 367.243891863 419.839522938 365.687627727 417.319857194 c 0
 360.362975164 408.445436255 355.104811513 399.743669759 349.913136775 391.214557707 c 0
 344.721328954 382.685227021 339.598412078 374.332726859 334.544386149 366.15705722 c 0
 332.016802231 362.068300485 329.508453003 358.027056403 327.019338465 354.033324972 c 0
 324.530223927 350.039593541 322.058234999 346.08999564 319.60337168 342.184531269 c 0
 313.272340736 332.188166622 307.107948329 322.441766523 301.110194459 312.945330972 c 0
 295.112143418 303.448424951 289.283270282 294.205508081 283.623575051 285.216580361 c 0
 273.311340752 268.781456946 263.162565904 253.103924302 253.177250508 238.183982428 c 0
 243.321959799 223.458360337 233.601832156 209.433914867 224.016867578 196.110646018 c 0
 224.033806025 194.695516425 224.060736096 193.324384882 224.09765779 191.997251387 c 0
 224.134579485 190.670117893 224.182404355 189.349587583 224.241132401 188.035660456 c 0
 224.371587072 185.116988017 224.556043161 182.270713321 224.794500667 179.496836368 c 0
 225.032989778 176.721694618 225.323534263 174.017662948 225.66613412 171.384741357 c 0
 226.008765186 168.750913878 226.407737822 166.144022761 226.863052029 163.564068005 c 2
 226.886976551 163.403096303 l 2
 227.646802936 157.123765942 228.552928546 151.134216358 229.60535338 145.434447551 c 0
 230.657778214 139.734678743 231.854987077 134.329907053 233.19697997 129.22013248 c 0
 234.538972863 124.110357907 236.026189862 119.291638583 237.658630965 114.763974508 c 0
 240.093632278 108.010366097 242.829353688 101.888835944 245.865795195 96.3993840467 c 0
 246.472279022 95.3029480434 247.090535597 94.2317063971 247.72056492 93.1856591077 c 0
 248.350594244 92.1396118183 248.992021475 91.1193019271 249.644846613 90.124729434 c 0
 250.297671752 89.1301569409 250.962226051 88.1607445831 251.63850951 87.2164923604 c 0
 252.31479297 86.2722401378 253.002414478 85.353628537 253.701374034 84.4606575579 c 0
 254.40033359 83.5676865788 255.110978719 82.6998415133 255.833309421 81.8571223612 c 0
 257.542856661 79.8626505811 259.488301229 77.920160748 261.669643126 76.0296528617 c 0
 263.867677421 74.1246781409 266.308563635 72.2776114033 268.992301766 70.488452649 c 0
 271.852639502 68.3547466979 274.664318525 66.3124774956 277.427338835 64.3616450419 c 0
 280.19055064 62.4106924345 283.008838118 60.4774284143 285.882201268 58.5618529812 c 0
 288.257265654 57.0774377399 290.824021222 55.6469978674 293.582467972 54.2705333638 c 0
 296.343172229 52.8929423648 299.263188267 51.5881946495 302.342516087 50.356290218 c 0
 321.26966645 42.7854300727 340.10378565 39 358.844873686 39 c 0
 360.348032484 39.051833062 361.864387774 39.1140799216 363.393939556 39.1867405787 c 0
 364.923491165 39.2594012277 366.421314381 39.3405169521 367.887409203 39.4300877518 c 0
 370.849667381 39.6110613716 373.72499634 39.8274909595 376.513396079 40.0793765155 c 0
 379.302338272 40.3312642894 382.011523455 40.6182387459 384.640951629 40.940299885 c 0
 387.270150511 41.2622795627 389.807485972 41.6178813159 392.252958013 42.0071051446 c 0
 394.698859006 42.3963149424 397.053913103 42.8183476432 399.318120303 43.2732032469 c 0
 401.581988269 43.7278829469 403.748341293 44.2139093651 405.817179375 44.7312825014 c 1
 411.017468918 44.5580078435 l 1
 415.699508895 41.7031817729 l 2
 418.927954346 38.6784154387 419.874167942 35.1620048829 418.538149682 31.1539501054 c 0
 418.079297061 30.0396078039 l 2
 414.901704244 23.6806718506 410.58093956 18.1310694303 405.117003007 13.3908005431 c 0
 402.738539848 11.0453186002 400.095553949 8.90632322129 397.188045311 6.97381440631 c 0
 395.729495879 6.00437266364 394.205906401 5.08670248422 392.617276876 4.22080386804 c 0
 391.028647351 3.35490525186 389.368014466 2.53692591486 387.635378221 1.76686585704 c 0
 381.04541869 -1.0483463504 374.841123002 -3.26745373362 369.022491156 -4.89045629261 c 0
 363.203859309 -6.51345885161 357.757132462 -7.54127665207 352.682310615 -7.97390969398 c 2
 352.065160522 -7.98492278052 l 2
 324.855227157 -7.9306985749 300.884823685 -4.44844087554 280.153950106 2.46185031755 c 0
 274.834473307 4.23500925046 269.669315922 6.27507421457 264.658477951 8.5820452099 c 0
 259.647639979 10.8890162052 254.790344647 13.4633312762 250.086591955 16.3049904228 c 0
 245.382839263 19.1466495693 240.832709836 22.2557925764 236.436203675 25.6324194441 c 0
 232.039697514 29.0090463117 227.796543262 32.6533521699 223.70674092 36.5653370187 c 0
 222.378090934 37.8939870046 221.08798127 39.2334112672 219.836411928 40.5836098067 c 0
 218.58472759 41.9339324038 217.365465954 43.3012896988 216.17862702 44.6856816916 c 0
 214.991834883 46.0700269714 213.831595632 47.4780247905 212.697909268 48.9096751488 c 0
 209.308818131 53.1895099647 206.207308135 57.6157445687 203.393379278 62.1883789607 c 0
 198.874502577 69.1404969611 194.776963243 76.5561776009 191.100761275 84.43542088 c 0
 187.430074466 92.3028434585 184.197539893 100.602777152 181.403157555 109.335221959 c 0
 179.350672528 116.176838714 177.6954385 123.294910368 176.437455471 130.689436919 c 1
 158.286969287 107.037966434 147.915684543 93.3977728799 145.32360124 89.7688562564 c 2
 145.06394489 89.4232014028 l 2
 114.565267405 50.7915432557 85.0161416726 20.9211094988 56.4165676917 -0.188099868045 c 0
 54.7983902152 -1.43285177308 53.2161043518 -2.58341336914 51.6697101016 -3.63978465621 c 0
 50.1215052433 -4.69739280407 48.6033834995 -5.66279023104 47.1153448702 -6.53597693712 c 0
 45.6266755174 -7.40938062684 44.1794297663 -8.18169408518 42.773607617 -8.85291731214 c 0
 40.5985878143 -9.89096911545 38.448648275 -10.6741393079 36.3237889991 -11.2024278895 c 0
 34.1851491773 -11.7341426298 32.0772195109 -12 30 -12 c 0
 23.1059500966 -10.5970863507 l 2
 21.933742856 -10.0879237702 20.8299130573 -9.49721089594 19.7944607006 -8.82494772779 c 0
 18.7590083439 -8.15268455964 17.7049612557 -7.36604341123 16.6323194358 -6.46502428254 c 0
 14.4899425915 -4.5266833282 13.0070532224 -2.4372011292 12.1836513283 -0.19657768555 c 0
 11.0775360256 2.81335937709 10.9184389984 6.14345968763 10.9184389984 10.0645404436 c 0
 10.9184389984 23.0576257971 14.3916585388 42.1840577061 21.3380976197 67.4438361708 c 0
 25.4589381794 81.8667781295 34.2771411239 104.283260105 47.7927064534 134.693282096 c 0
 53.8429342786 148.138232819 61.2127809033 163.550173604 69.9022463275 180.929104452 c 0
 80.7434614118 203.966686507 94.9746456303 228.362474215 112.595798983 254.116467576 c 0
 121.003805941 266.223997596 128.498759747 276.666185802 135.080660402 285.443032195 c 0
 141.684171106 294.248508254 147.370012545 301.375916097 152.13818472 306.825255724 c 0
 160.375577307 316.827803866 168.878075135 321.829077937 177.645678204 321.829077937 c 0
 182.112937071 321.829077937 186.649019761 320.53069998 191.253926274 317.933944067 c 0
 192.179398611 317.462121839 193.108119418 316.906519699 194.040088694 316.267137647 c 0
 194.972057971 315.627755595 195.888137713 314.917647684 196.788327922 314.136813914 c 0
 197.691459917 313.353428409 198.579546514 312.502170149 199.452587712 311.583039136 c 0
 200.32562891 310.663908123 201.184039428 309.676980228 202.027819267 308.622255451 c 2
 202.488452649 307.992301766 l 2
 202.984183552 307.248705411 203.461392234 306.463021586 203.920078695 305.635250289 c 0
 204.378581797 304.808100648 204.814948667 303.948049182 205.229179305 303.055095889 c 0
 205.435047382 302.611394729 205.637010083 302.156499499 205.835067406 301.690410199 c 0
 206.033124729 301.224320898 206.224822657 300.752983848 206.41016119 300.276399048 c 2
 210.481127839 290.002501216 l 1
 210.538149682 289.846049894 l 2
 212.004948994 285.445651959 212.82150875 281.143361016 212.987828949 276.939177065 c 0
EndSplineSet
EndChar

StartChar: M
Encoding: 77 77 21
Width: 444
VWidth: 965
Flags: HW
HStem: -6.98877 32.9294<304.554 331.097> 232.006 49.9936<229.579 277.194> 674 20G<551.98 554.282>
VStem: 174.228 48.8912<285.922 310.037> 250.549 51.2784<27.9228 131.452>
LayerCount: 2
Fore
SplineSet
524.875940106 678.595141425 m 1
 532.616750457 685.177516368 l 2
 535.08544325 687.064331749 537.484452448 688.665564304 539.813778051 689.981214033 c 2
 546.621635536 692.980901552 l 2
 548.834554091 693.660300517 550.960675579 694 553 694 c 0
 555.564124985 694 557.965776644 693.527366598 560.204954975 692.582099794 c 0
 562.444133306 691.636832991 564.497135325 690.230786736 566.363961031 688.363961031 c 0
 566.558898008 688.169024054 566.723883635 687.9512182 566.858917912 687.710543471 c 0
 566.99395219 687.469868741 567.093859529 687.215549708 567.158639929 686.947586372 c 2
 568.62817061 680.868890603 l 2
 568.692951011 680.600927266 568.720250863 680.329055302 568.710070167 680.05327471 c 0
 568.699889471 679.777494117 568.652618433 679.508375006 568.568257052 679.245917377 c 0
 567.353075643 675.465352992 566.071691208 671.619859127 564.724103747 667.709435781 c 0
 563.376541725 663.799029986 561.965769884 659.831875747 560.491788224 655.807973064 c 0
 559.017912845 651.784321161 557.479695919 647.698887381 555.877137445 643.551671724 c 0
 554.274536212 639.404312741 552.609206649 635.200047204 550.881148758 630.938875111 c 0
 549.153225829 626.67801075 547.362896086 622.358799378 545.510159529 617.981240993 c 0
 543.657358722 613.603510828 541.742296424 609.168749335 539.764972635 604.676956513 c 0
 537.787770851 600.185424257 535.750088873 595.639024466 533.651926702 591.03775714 c 0
 531.55371918 586.436377573 529.393708997 581.777866876 527.171896154 577.062225051 c 0
 524.950158576 572.346731659 522.669864201 567.57988122 520.331013029 562.761673735 c 0
 518.00494473 557.969791445 515.618287531 553.12154308 513.171041433 548.216928641 c 0
 509.328760069 539.19825744 504.904669972 529.193609163 499.898771141 518.202983812 c 0
 494.887665304 507.200811438 489.292905045 495.208951927 483.114490362 482.227405279 c 0
 476.936026861 469.245714728 470.174788936 455.275680497 462.830776588 440.317302586 c 0
 455.486735226 425.358847802 447.557111717 409.406160046 439.041906062 392.459239319 c 0
 405.125222754 324.958389205 376.531491841 263.947909313 353.260713324 209.427799644 c 0
 332.185188183 160.690647756 317.042518802 115.966508099 307.832705183 75.2553806717 c 0
 307.500810302 73.320926605 307.041137279 71.190233059 306.453686114 68.8633000339 c 0
 305.862206067 66.5204044453 305.282239911 64.4592059002 304.713787646 62.6797043985 c 0
 302.789402845 56.6555474793 301.827210444 50.8689118221 301.827210444 45.3197974269 c 0
 301.827210444 39.9804298625 302.718039153 34.8609671311 304.49969657 29.9614092327 c 0
 305.623484255 26.5900461775 308.775990286 25.2497796084 313.957214663 25.9406095253 c 0
 327.255402481 27.2704283071 333.298135137 23.1250327762 332.085412631 13.5044229327 c 0
 331.98067223 12.6735102322 331.797241069 11.8117396056 331.535119146 10.9191110528 c 0
 328.797425736 -0.15350565606 318.768865545 -6.12279968996 301.449438573 -6.98877104891 c 0
 300.401896544 -6.99340441668 299.503212245 -7.04264831267 298.753385676 -7.13650273687 c 0
 298.003559107 -7.23035716108 297.367780513 -7.36423947626 296.846049894 -7.53814968242 c 0
 296.616668803 -7.6146100461 296.384863335 -7.68166974848 296.15063349 -7.73932878957 c 0
 295.916403645 -7.79698783065 295.680076159 -7.84516288693 295.441651034 -7.88385395842 c 0
 294.964501595 -7.96128465281 294.483951251 -8 294 -8 c 0
 287.185225998 -8 281.076880321 -7.04444201222 275.674962968 -5.13332603665 c 0
 272.96881276 -4.17593136412 270.451162566 -2.97372988601 268.122012386 -1.52672160233 c 0
 265.792862206 -0.0797133186573 263.673280517 1.59879742202 261.763267319 3.50881061969 c 0
 254.286958345 10.4100189035 250.548803858 20.5720854475 250.548803858 33.9950102518 c 0
 250.548803858 40.5099397866 251.429411351 47.7930388093 253.190626339 55.8443073199 c 0
 253.874725452 59.2648028824 254.561843026 62.3553227341 255.251979061 65.1158668749 c 0
 258.267659914 78.0162794111 261.391233346 90.4676729368 264.622699359 102.470047452 c 0
 267.85476423 114.474646261 271.197353232 126.036716529 274.650466366 137.156258258 c 0
 278.103816273 148.276247334 281.669073855 158.950072167 285.346239112 169.177732756 c 0
 287.186878589 174.297089499 289.053282301 179.298338801 290.945450248 184.181480662 c 0
 292.837740499 189.064917251 294.76115261 193.843578338 296.715686582 198.517463923 c 0
 299.601875646 205.213422552 302.954165565 212.774529766 306.772556338 221.200785567 c 0
 310.590947111 229.627041368 314.855003981 238.874378676 319.564726948 248.94279749 c 0
 324.274449916 259.011216303 329.425843504 269.893319621 335.018907711 281.589107442 c 0
 340.611971918 293.284895264 346.631563135 305.762381199 353.077681361 319.021565247 c 1
 351.419153614 317.049775305 349.724567977 315.05549366 347.993924452 313.038720313 c 0
 346.263280927 311.021946966 344.498024327 308.984388235 342.698154653 306.926044121 c 0
 340.898284979 304.867700007 339.065689124 302.79068163 337.200367087 300.694988989 c 0
 335.33504505 298.599296349 333.436737198 296.484740214 331.50544353 294.351320584 c 0
 329.574149863 292.217900953 327.613461721 290.0696245 325.623379106 287.906491223 c 0
 322.443244526 284.449823201 319.259942804 281.149800053 316.073473939 278.006421778 c 0
 312.886928358 274.863020719 309.69378722 271.873534402 306.494050526 269.037962827 c 0
 303.294231296 266.202376754 300.090397901 263.523685915 296.882550342 261.001890311 c 0
 293.674623787 258.480101906 290.459536918 256.113325819 287.237289733 253.901562051 c 0
 284.014957445 251.689814146 280.787795907 249.635379444 277.555805119 247.738257946 c 0
 269.264887087 242.871849535 261.02837403 239.126889799 252.846265947 236.503378736 c 0
 244.649864119 233.875284527 236.482666753 232.376283039 228.34467385 232.00637427 c 2
 226 232 l 2
 223.851686792 232 221.751181998 232.12937579 219.698485617 232.388127371 c 0
 218.671871144 232.517651154 217.656996408 232.679946366 216.653861409 232.875013007 c 0
 215.65072641 233.070079648 214.659517558 233.297915058 213.680234855 233.558519236 c 0
 211.720182629 234.08012326 209.815386368 234.732120217 207.965846073 235.514510108 c 0
 205.183985008 236.691288997 202.574499984 238.148190714 200.137391001 239.885215259 c 0
 197.700282017 241.622239805 195.443022596 243.6333275 193.365612738 245.918478343 c 0
 190.475890601 249.070902493 187.939956357 252.550208936 185.757810004 256.356397673 c 0
 183.586931196 260.142933099 181.785243462 264.186082438 180.352746801 268.48584569 c 2
 180.32865037 268.570401848 l 1
 177.120196542 282.052021399 l 2
 176.76595764 284.340202333 176.445429912 286.574559602 176.158613357 288.755093205 c 0
 175.871796802 290.935626808 175.613377999 293.090211093 175.383356948 295.21884606 c 0
 175.153335898 297.347481027 174.951896114 299.448933657 174.779037597 301.523203948 c 0
 174.548630158 304.288050675 174.364902857 307.126060238 174.227855695 310.037232637 c 1
 138.981648414 225.96021643 104.778765331 128.751062936 71.6192064438 18.4097721568 c 0
 71.0862793524 17.0699386157 l 2
 62.9517119775 1.59437570716 53.4161491553 -7.0547856029 42.4795908857 -8.87754531449 c 0
 41.5066246638 -8.97764078146 l 1
 39 -9 l 2
 26.5646376721 -9 20.3469565081 -1.75667950012 20.3469565081 12.7299614997 c 0
 20.3469565081 15.622191076 20.5947891911 18.8031346448 21.090454557 22.2727922061 c 0
 21.2066943214 23.0864705567 21.3321384301 23.9263597896 21.4667868832 24.7924599048 c 0
 21.6014326007 25.6585646303 21.7451456329 26.5501659226 21.8979259796 27.4672637818 c 0
 22.050704091 28.3843628807 22.2127086742 29.3280516335 22.3839397292 30.2983300402 c 0
 22.8968077463 33.2045215168 23.4937524761 36.3600932421 24.1747739188 39.7650452162 c 2
 24.3094581733 40.339761261 l 1
 57.119860464 162.20696977 109.974306875 300.715829048 182.872797407 455.866339097 c 0
 215.445390192 524.335258623 238.687754237 576.456749495 252.599889544 612.230811714 c 0
 259.894185356 631.195980825 266.835041399 645.642185023 273.422457672 655.569424309 c 0
 280.009873945 665.496663595 286.394351923 670.935786291 292.575891606 671.886792396 c 0
 295.352625039 672.354413357 298.005052276 672.404441478 300.533173317 672.036876757 c 0
 303.061294359 671.669312036 305.428408551 670.884062247 307.634515893 669.68112739 c 0
 312.640426261 666.951530349 314.735824106 662.326273116 313.920709428 655.805355689 c 0
 312.542066686 646.154856492 310.493743942 635.553851059 307.775741196 624.00233939 c 0
 306.951582612 620.256164007 306.055951436 616.399103227 305.088847667 612.43115705 c 0
 304.121743898 608.463210874 303.083664332 604.38642288 301.974608967 600.200793067 c 0
 300.865553602 596.015163254 299.686172582 591.723185509 298.436465905 587.324859833 c 0
 294.689319598 574.136829302 290.316752567 560.008704998 285.318764811 544.940486922 c 0
 282.821986142 537.413056421 280.167597551 529.645383236 277.355599039 521.637467366 c 0
 274.543982014 513.630616433 271.578049873 505.39256969 268.457802616 496.923327135 c 0
 258.536651127 469.474808016 250.26273823 445.398535805 243.636063924 424.694510504 c 0
 240.329485997 414.364178081 237.439867051 404.899405601 234.967207088 396.300193063 c 0
 232.497812504 387.712521944 230.445876585 379.996080536 228.811399332 373.150868841 c 0
 228.556940048 371.747832887 228.315446075 370.385171805 228.086917414 369.062885595 c 0
 227.854004965 367.715258152 227.634571187 366.409867022 227.428616081 365.146712206 c 0
 227.222660686 363.883590933 227.02978884 362.660434254 226.850000544 361.477242167 c 0
 226.760538889 360.888516929 226.673955201 360.30729527 226.590249478 359.733577191 c 0
 226.506543755 359.159859112 226.426802883 358.601163408 226.351026861 358.05749008 c 2
 225.924906684 354.839597265 l 2
 224.055905407 340.737133092 223.120619711 328.538272529 223.119049594 318.243015578 c 0
 223.117795215 310.018049293 223.66865038 303.188840001 224.77161509 297.755387703 c 0
 225.8745798 292.321935406 227.444942784 288.337674381 229.482704041 285.802604628 c 0
 231.520465299 283.267534876 234.026230619 282 237 282 c 0
 243.143817446 282 251.798013683 285.819459878 262.96258871 293.458379633 c 0
 296.025439674 315.500280276 333.867095296 357.666951571 376.487555577 419.95839352 c 0
 404.284614845 463.639486656 431.108938565 510.668760161 456.960526737 561.046214034 c 0
 463.319612187 573.931729288 469.471809935 586.006482741 475.41711998 597.270474394 c 0
 481.366180578 608.541571849 487.121573206 619.023911434 492.683297865 628.717493148 c 0
 495.466226943 633.567886161 498.200343073 638.218269112 500.885646256 642.668642001 c 0
 503.570983284 647.11904884 506.207932749 651.369960157 508.79649465 655.421375952 c 0
 509.833081804 657.043749251 510.861693218 658.633743613 511.882328891 660.191359037 c 0
 512.902964564 661.74897446 513.915838434 663.274525362 514.920950502 664.768011741 c 0
 515.926062571 666.26149812 516.923239173 667.722648766 517.912480308 669.151463679 c 0
 518.901721443 670.580278591 519.883213237 671.977017478 520.856955688 673.341680341 c 0
 521.830698139 674.706343204 522.796545397 676.038713538 523.754497464 677.338791343 c 0
 523.852921813 677.472367244 523.979298532 677.626535099 524.133627621 677.801294908 c 0
 524.287956711 677.976054717 524.488628939 678.194285032 524.735644305 678.455985854 c 2
 524.875940106 678.595141425 l 1
EndSplineSet
EndChar

StartChar: N
Encoding: 78 78 22
Width: 538
VWidth: 965
Flags: HW
VStem: 232.852 87.5904<573.607 603.461> 237.862 51.0698<93.6961 366.011> 262 58.9221<476.075 580.685>
LayerCount: 2
Fore
SplineSet
384.210068902 20.4855286409 m 0x40
 381.653951621 18.0175533348 379.126253427 15.6983030052 376.626974322 13.527777652 c 0
 374.127695217 11.3572522987 371.66182716 9.34010379392 369.229370152 7.47633213755 c 0
 366.791712119 5.60857540613 364.385617021 3.89448713242 362.011084856 2.33406731641 c 0
 359.636552692 0.773647500408 357.292877889 -0.633177020956 354.980060448 -1.88640624768 c 0
 345.527219308 -7.00854713956 336.442465198 -9.37869424448 327.725798118 -8.99684756243 c 0
 327.725798118 -8.99684756243 327.725798118 -8.99684756243 327.481390605 -8.97610375133 c 2
 318.196541404 -7.80410087491 l 2
 308.289623687 -5.43886752761 299.465587604 -0.771878172513 291.724433156 6.19686719038 c 0
 283.983278708 13.1656125533 277.225186083 22.4250160366 271.450155281 33.9750776405 c 0
 260.703212498 55.4689632062 252.923753152 81.3392588467 248.111777243 111.585964562 c 0
 246.930674524 119.010038791 245.855126052 126.663182443 244.885131825 134.545395517 c 0
 243.915137598 142.427608591 243.050835797 150.537460573 242.292226424 158.874951462 c 0
 241.533617051 167.212442351 240.880600609 175.777356434 240.333177097 184.569693709 c 0
 239.785753585 193.362030984 239.34390872 202.381860126 239.007642502 211.629181134 c 0
 238.243571933 230.157892441 237.861536648 248.73308929 237.861536648 267.354771683 c 0x40
 237.861536648 300.096470296 239.042586036 332.98187742 241.404684811 366.010993055 c 1
 158.586545988 216.443709332 104.642962018 102.527924459 79.573932901 24.2636384358 c 0
 76.8167577947 15.6244897697 73.9256998309 7.99361399747 70.9007590094 1.37101111922 c 0
 67.8758181879 -5.25159175906 64.7078777111 -10.8763179113 61.3969375791 -15.5031673374 c 0
 59.1776850295 -18.6044458191 56.873816327 -21.2449300271 54.4853314715 -23.4246199613 c 0
 52.096846616 -25.6043098954 49.6070482329 -27.3260401222 47.0159363223 -28.5898106416 c 0
 44.4248244116 -29.853581161 41.7508068824 -30.6386288178 38.9938837346 -30.944953612 c 2
 38 -31 l 1
 37 -31 l 2
 31.1965688069 -31 25.8773920321 -28.2364710091 21.0424696757 -22.7094130274 c 0
 17.9847321914 -19.0401280463 16.4558634493 -13.709740936 16.4558634493 -6.71825169652 c 0
 16.4558634493 -1.79470580583 17.2140687124 3.95262327975 18.7304792387 10.5237355603 c 0
 21.838540784 23.9920022564 32.983180524 54.2820172787 52.1643984589 101.393780627 c 0
 71.304454087 148.404443574 109.612075693 225.0359143 167.087263276 331.288192806 c 0
 221.981677069 432.581456351 253.619255977 500.174343877 262 534.066855383 c 1
 262 535 l 1x20
 262.346637839 537.377913326 l 1
 262.461850318 537.846049893 l 2
 263.05564898 539.62744588 263.652885458 541.719492464 264.253559753 544.122189643 c 0
 266.634801318 554.242466295 266.921350602 564.727033616 265.113207604 575.575891606 c 2
 263.75374673 580.766274285 l 1
 259.034937884 578.303645715 l 2
 258.351026633 577.594557336 257.796724979 577.010355847 257.372032922 576.551041249 c 0
 256.947340865 576.091726651 256.468964898 575.560853392 255.936905021 574.958421471 c 0
 255.409488898 574.36124888 254.810281374 573.669034064 254.139282449 572.881777021 c 0
 253.468283524 572.094519978 252.72651988 571.213374439 251.913991517 570.238340403 c 2
 251.363961031 569.636038969 l 1
 249.363961031 567.636038969 l 2
 247.606601718 565.878679656 245.485281374 565 243 565 c 0
 240.991645024 565 239.220441977 565.360957393 237.686390858 566.082872179 c 2
 234.072025563 569.583710352 l 2
 233.398340145 570.906472602 232.991650097 572.247631157 232.85195542 573.607186018 c 0x80
 232.712260742 574.966740879 232.844109787 576.32838116 233.247502556 577.692106863 c 2
 233.6032962 579.080266988 l 1
 234.137114828 581.07849772 l 2
 240.022281617 604.025309731 249.728589418 623.15240388 263.256038231 638.459780168 c 0
 264.111511103 639.427815261 264.946395116 640.360928795 265.760690269 641.259120771 c 0
 266.575006643 642.157331181 267.369829796 643.021783631 268.145159727 643.852478121 c 0
 268.920536245 644.683216008 269.676310184 645.479949238 270.412481545 646.24267781 c 0
 271.148680702 647.005426009 271.865163712 647.734007182 272.561930575 648.42842133 c 0
 275.366920806 651.22388782 278.195462069 653.761456413 281.047554364 656.041127108 c 0
 282.513300244 657.212475897 283.958206385 658.254074386 285.382272787 659.165922576 c 0
 286.813866134 660.082590366 288.229063236 660.868591361 289.627864093 661.523925561 c 0
 291.04796165 662.189237204 292.463131724 662.725179743 293.873374315 663.131753179 c 0
 295.291223709 663.54051966 296.70158778 663.815046837 298.104466529 663.955334712 c 2
 299 664 l 1
 300 664 l 2
 306.668815037 664 311.626462562 661.011635532 314.872942575 655.034906595 c 0
 315.830768505 653.271561086 316.693009376 651.32183379 317.459665188 649.185724709 c 0
 318.226321001 647.049615628 318.896929099 644.734525256 319.471489484 642.240453594 c 0
 320.046049869 639.746381931 320.529601183 637.06002455 320.922143424 634.181381449 c 0x20
 321.63217111 628.737835854 321.472235402 618.49763128 320.442336301 603.460767729 c 0x80
 319.4124372 588.423904178 317.524811412 568.650259928 314.779458938 544.13983498 c 0
 312.034106464 519.629410033 308.415646187 490.193949653 303.924078107 455.833453842 c 0
 297.951371111 422.295448518 293.76435703 388.786131035 291.363035865 355.305501394 c 0
 289.741935184 332.70316385 288.931384843 310.092706192 288.931384843 287.47412842 c 0
 288.931384843 276.588020055 289.119141227 265.700030742 289.494653994 254.810160483 c 0
 290.648862525 221.338113085 292.907490964 191.572273496 296.270539309 165.512641716 c 0
 299.630921518 139.468744365 304.083802753 117.150128782 309.629183014 98.5567949672 c 0
 314.251258909 82.9572888235 318.991177692 71.0383285247 323.848939365 62.799914071 c 0
 324.948556884 60.9350418379 326.038548071 59.2390415896 327.118912927 57.7119133259 c 0
 328.1930727 56.1935561332 329.179636433 54.9329175154 330.078604124 53.9299974727 c 0
 330.972793175 52.9324086493 331.786720781 52.1224206868 332.520386943 51.5000335852 c 2
 333.874484931 50.4956088903 l 1
 350.649867198 54.6894544572 368.079232627 72.9990345977 386.162581218 105.424349312 c 0
 397.725626853 125.907458723 408.002023488 145.551161644 416.991771122 164.355458076 c 0
 425.974792901 183.145685706 433.668548327 201.080570006 440.073037402 218.160110975 c 0
 453.056690219 252.783185154 463.205061182 280.399711031 470.518150291 301.009688607 c 0
 471.980293824 305.130274927 473.509185249 309.477651833 475.104824566 314.051819324 c 0
 476.700463883 318.625986815 478.362580323 323.426167379 480.091173886 328.452361014 c 0
 481.819767449 333.47855465 483.6146804 338.730286472 485.475912739 344.20755648 c 0
 487.337145078 349.684826488 489.264637172 355.387476133 491.258389023 361.315505415 c 0
 493.252140874 367.243534698 495.311783608 373.395849767 497.437317227 379.772450624 c 0
 504.741418498 403.01277285 511.480413708 424.561202031 517.654302856 444.417738167 c 0
 523.829436666 464.278277396 529.405118721 482.336389835 534.381349021 498.592075483 c 0
 544.120920248 530.976149811 551.835395441 556.313561764 557.524774601 574.604311341 c 0
 558.473703362 577.654996274 559.402638838 580.619553233 560.311581028 583.497982218 c 0
 561.220525159 586.376416221 562.109721363 589.169486072 562.979169638 591.87719177 c 0
 563.848621005 594.584905624 564.698199486 597.206821816 565.52790508 599.742940346 c 0
 566.357613375 602.279065146 567.167557817 604.72972965 567.957738405 607.094933858 c 0
 568.747923985 609.460150319 569.518375893 611.73994819 570.269094128 613.934327471 c 0
 571.019817776 616.128718832 571.75078479 618.237610599 572.461995169 620.261002772 c 0
 573.927919471 624.431543653 575.228993273 627.985965734 576.365216575 630.924269015 c 0
 576.74512495 631.906722046 577.115293395 632.839878326 577.475721909 633.723737855 c 0
 577.836150423 634.607597384 578.187744817 635.444217917 578.530505091 636.233599455 c 0
 578.873265366 637.022980994 579.206730103 637.763896296 579.530899303 638.456345363 c 0
 580.023977998 639.509597437 580.491231943 640.434531338 580.932661138 641.231147065 c 0
 581.374090333 642.027762792 581.797832268 642.707185432 582.203886945 643.269414984 c 0
 583.727998542 645.379723349 585.140948397 647.279012126 586.44273651 648.967281313 c 2
 590.188495646 653.601053112 l 2
 591.41265178 655.035452309 592.561832888 656.289754949 593.636038969 657.363961031 c 0
 595.17751847 658.905440531 596.644491276 660.269109933 598.036957387 661.454969238 c 0
 599.429423498 662.640828543 600.753003781 663.65198968 602.007698234 664.488452649 c 0
 603.387910135 665.408593916 604.944601034 666.25380939 606.677770929 667.02409907 c 0
 608.410940824 667.794388749 610.322973525 668.493167915 612.41386903 669.120436567 c 2
 616.429802408 670.337762009 l 1
 618.661833854 671.040777598 l 1
 622.222469955 671.929579624 l 2
 622.840347614 672.043645483 623.640504352 672.180946186 624.622940169 672.341481734 c 0
 625.605375985 672.502017282 626.774891042 672.686638464 628.131485341 672.895345279 c 0
 630.234604393 673.218902056 632.211923102 673.541626298 634.063441467 673.863518004 c 1
 639.224577427 674.82315061 l 1
 647.829994809 676.73448636 l 2
 650.343108834 677.362764866 652.704668561 676.953433221 654.914673988 675.506491424 c 0
 657.124679416 674.059549627 658.444996752 672.054406181 658.875625997 669.491061086 c 0
 659.122369954 668.022303637 659.028725563 666.609224371 658.594692826 665.251823286 c 0
 658.160660089 663.894422201 657.417082824 662.689160762 656.363961031 661.636038969 c 2
 652.363961031 657.636038969 l 1
 651.37062983 656.781362297 l 2
 646.088783953 652.919095121 641.546000505 649.347381519 637.742279488 646.066221492 c 0
 635.847958881 644.432145537 634.178791985 642.919343066 632.7347788 641.52781408 c 0
 631.290765615 640.136285094 630.077485898 638.872684783 629.094939648 637.737013148 c 0
 627.178807169 635.522260096 626.020639475 633.747878723 625.620436567 632.41386903 c 0
 623.606219576 625.699812395 613.936298895 593.855705808 596.610674524 536.881549267 c 0
 587.941019758 508.371723016 579.854579222 481.903296963 572.351352915 457.476271108 c 0
 568.599162256 445.260878727 564.992502414 433.554957376 561.531373388 422.358507057 c 0
 558.070244363 411.162056738 554.752921606 400.469502479 551.579405118 390.28084428 c 0
 538.647164487 349.477395395 525.89783385 311.454639729 513.331413206 276.212577281 c 0
 500.764992562 240.970514834 488.380481676 208.507134698 476.177880549 178.822436873 c 0
 463.975279421 149.137739048 451.956286439 122.236696153 440.120901604 98.1193081871 c 0
 439.362193262 96.4880852508 438.586268801 94.8637807768 437.793128221 93.2463947651 c 0
 436.99997918 91.6289914994 436.19123922 90.0219995721 435.366908343 88.4254189832 c 0
 434.542582848 86.8288496528 433.702766791 85.2428232683 432.847460173 83.6673398297 c 0
 431.992146292 82.0918437456 431.121365649 80.5270272088 430.235118244 78.9728902191 c 0
 429.348878479 77.4187672586 428.447425016 75.8756907303 427.530757857 74.343660634 c 0
 426.614080008 72.8116133029 425.682060242 71.2905137987 424.734698558 69.7803621216 c 0
 423.78734227 68.270219495 422.825049487 66.7716269388 421.847820208 65.2845844529 c 0
 420.870581335 63.7975279042 419.8781261 62.3216874491 418.870454503 60.8570630877 c 0
 417.862780598 59.3924356486 416.840438272 57.9398473372 415.803427525 56.4992981535 c 0
 406.459061459 43.5187048466 395.927941918 31.514115009 384.210068902 20.4855286409 c 0x40
EndSplineSet
EndChar

StartChar: O
Encoding: 79 79 23
Width: 405
VWidth: 965
Flags: HW
HStem: -8 60.4636<131.692 206.898> 630 52<324.545 439.19>
VStem: 60.6986 56.9506<61.406 268.383> 455.187 57.7758<515.064 614.404>
LayerCount: 2
Fore
SplineSet
386 607 m 1029,0,-1
312 605 m 1029,1,-1
407.642254301 587.046302963 m 1029,2,-1
357.923629689 561 m 1029,3,-1
354.236916258 561 m 1029,4,-1
283.936374395 573.138191686 m 1,5,-1
 283.532482547 574.19161124 l 2,6,-1
 283.177494182 575.307919736 283 576.244049323 283 577 c 0,9,-1
 283 577.692720757 283.046078703 578.485419384 283.13823611 579.378095881 c 0,12,-1
 283.183686701 579.81834996 283.239116777 580.278716578 283.304526338 580.759195735 c 0,15,-1
 283.369935899 581.239674892 283.445336831 581.740760111 283.530729134 582.262451394 c 0,18,-1
 283.700420368 583.299154161 283.915101963 584.466685436 284.174773919 585.765045217 c 2,21,-1
 284.346284471 586.472490151 l 2,22,-1
 284.60034164 587.36169024 284.890360613 588.306574387 285.216341391 589.307142591 c 0,25,-1
 285.542286314 590.307806714 285.904733672 591.366932238 286.303683463 592.484519164 c 2,28,-1
 289.080580807 599.7783889 l 2,29,-1
 289.608343183 601.095606852 290.17609232 602.484621308 290.783828218 603.945432267 c 0,32,-1
 291.391574071 605.406284558 292.039529575 606.939565032 292.72769473 608.545273687 c 2,35,-1
 304.702372638 636.486188807 l 2,36,-1
 305.411188731 638.207599318 306.230273422 639.890653594 307.159626711 641.535351634 c 0,39,-1
 308.08898 643.180049674 309.124283271 644.778628154 310.265536523 646.331087075 c 0,42,-1
 311.407332634 647.884284452 312.652034339 649.389426211 313.99964164 650.846512352 c 0,45,-1
 315.347248941 652.303598493 316.797179282 653.712410186 318.349432663 655.072947432 c 0,48,-1
 321.411445372 657.756776237 324.844528429 660.271263258 328.648681836 662.616408495 c 0,51,-1
 332.452835242 664.961553733 336.62769676 667.138985252 341.173266391 669.148703051 c 0,54,-1
 346.912885388 672.004833402 352.884875472 674.385263896 359.089236644 676.289994535 c 2,57,-1
 378.381997246 680.575144474 l 2,58,-1
 381.70661363 681.050180762 385.087121947 681.406415737 388.523522198 681.6438494 c 0,61,-1
 391.959922449 681.881283063 395.452081716 681.999999929 399 682 c 0,64,-1
 454.596307087 682 490.76121549 657.991051274 507.494725207 609.973153822 c 0,67,-1
 508.51329858 607.062944185 509.400889733 604.084179465 510.157498665 601.036859664 c 0,70,-1
 510.914107598 597.989539863 511.539768381 594.874287241 512.034481016 591.691101798 c 0,73,-1
 512.529193651 588.507916355 512.893279417 585.255216845 513.126738314 581.93300327 c 0,76,-1
 513.360197211 578.610789695 513.463211292 575.220319898 513.435780557 571.761593879 c 0,79,-1
 513.408349822 568.302867859 513.25064757 564.77366879 512.962673801 561.173996671 c 0,82,-1
 508.901007219 522.249691926 500.135265954 480.796309011 486.665450007 436.813847924 c 0,85,-1
 473.201022792 392.848982451 455.026534367 346.299312608 432.141984732 297.164838393 c 0,88,-1
 416.989010918 265.175227008 400.156710738 234.286732298 381.645084193 204.499354264 c 0,91,-1
 363.133786002 174.712810511 342.936662234 146.016447509 321.053712889 118.410265258 c 0,94,-1
 311.576806756 106.451312281 302.429432489 95.5009742904 293.611590086 85.5592512853 c 0,97,-1
 284.793747683 75.61752828 276.296335889 66.6757282049 268.119354704 58.73385106 c 0,100,-1
 259.942373519 50.791973915 252.089386607 43.8550685452 244.560393968 37.9231349506 c 0,103,-1
 205.595309767 7.3077116502 173.741845111 -8 149 -8 c 0,106,-1
 143.071947145 -8 137.339705881 -7.43087664621 131.803276206 -6.29262993863 c 0,109,-1
 126.254142197 -5.1517713192 120.939144483 -3.45184187976 115.858283062 -1.19284162031 c 0,112,-1
 113.318893165 -0.063804246534 110.838839136 1.20393186455 108.418120974 2.61036671293 c 0,115,-1
 105.997402813 4.01680156131 103.636605979 5.56148075522 101.335730473 7.24440429465 c 0,118,-1
 99.0400835069 8.9235035364 96.8113584785 10.7360049889 94.6495553878 12.681908652 c 0,121,-1
 92.4877522971 14.6278123151 90.3931047472 16.7066688789 88.3656127382 18.9184783434 c 0,124,-1
 69.9209398597 41.0453555782 60.6986034204 75.568454293 60.6986034204 122.487774488 c 0,127,-1
 60.6986034204 148.364442005 63.503741417 178.011641221 69.11401741 211.429372136 c 2,130,-1
 70.1940172178 218.029387914 l 2,131,-1
 70.5787349043 220.250077557 70.9851980395 222.473706338 71.4134066234 224.700274259 c 0,134,-1
 71.8423111924 226.930464727 72.291444069 229.155610751 72.7608052532 231.375712332 c 0,137,-1
 73.230145554 233.595714634 73.7182350308 235.803866199 74.2250736835 238.000167028 c 0,140,-1
 95.2274638178 330.139685035 149.568782067 426.45696984 237.24902843 526.952021442 c 0,143,-1
 242.552503707 532.904901855 247.865450401 538.626395371 253.187868514 544.11650199 c 0,146,-1
 258.510399374 549.606724909 263.77527442 554.803347295 268.982493651 559.706369149 c 0,149,-1
 273.929741246 564.364547262 278.91436816 568.841821441 283.936374395 573.138191686 c 1,5,-1
318.462650782 598.432044815 m 2,152,-1
 318.745463317 598.60524412 l 1,153,-1
 319.256691156 598.917080087 l 2,154,-1
 321.398308382 600.219011174 323.528931266 601.46498438 325.648559809 602.654999704 c 0,157,-1
 327.768805921 603.845318039 329.852858572 604.96439596 331.900717761 606.012233467 c 2,160,-1
 336.617315084 608.44200578 l 2,161,-1
 337.834671669 609.070423937 338.842948782 609.58938715 339.642146423 609.998895419 c 0,164,-1
 340.441344064 610.408403688 341.035572941 610.710542563 341.424833054 610.905312042 c 0,167,-1
 342.200008439 611.293177381 343.610405379 611.981095719 345.656023875 612.969067058 c 0,170,-1
 347.770053969 613.990079112 349.326438751 614.688557846 350.325178221 615.06450326 c 0,173,-1
 351.242698892 615.409876303 352.55357404 615.900860551 354.257803663 616.537456005 c 0,176,-1
 355.174408936 616.879844374 356.016737476 617.168535122 356.784789282 617.403528248 c 0,179,-1
 357.173451975 617.522443483 357.547820735 617.628533322 357.907895562 617.721797763 c 0,182,-1
 358.26797039 617.815062204 358.61459963 617.895563596 358.947783283 617.963301941 c 0,185,-1
 359.53674857 618.083042311 360.163166649 618.20014559 360.82703752 618.314611779 c 0,188,-1
 361.490908391 618.429077968 362.192878803 618.541073889 362.932948756 618.650599542 c 2,191,-1
 367.520403276 619 l 1,192,-1
 375.933496331 618.656547709 l 2,193,-1
 377.255925741 618.536386921 378.536051961 618.374230356 379.77387499 618.170078015 c 0,196,-1
 381.011786502 617.965851435 382.223778651 617.718143559 383.409851436 617.426954388 c 2,199,-1
 390.02492236 615.049844719 l 2,200,-1
 390.3143632 615.457648589 390.58334889 615.305351479 390.831879429 614.592953389 c 0,203,-1
 392.360659787 613.620093162 393.818669218 612.557422824 395.205907723 611.404942376 c 0,206,-1
 396.593146228 610.252461928 397.908312658 609.011488119 399.151407015 607.68202095 c 0,209,-1
 400.394501372 606.352553781 401.565479674 604.934865579 402.664341923 603.428956344 c 0,212,-1
 405.923981295 598.961862273 408.537364701 593.801155847 410.504492142 587.946837066 c 2,215,-1
 411.589390907 578.572614065 l 2,216,-1
 411.362719378 576.175319831 410.706127849 573.402370562 409.619616319 570.253766257 c 0,219,-1
 407.266581394 559.381122122 400.577099569 545.330793237 389.551170844 528.102779604 c 2,222,-1
 383.111656302 518.35622354 l 2,223,-1
 382.228773076 517.030291651 381.438069332 515.849132755 380.73954507 514.812746852 c 0,226,-1
 380.041020808 513.776360949 379.433964607 512.883713893 378.918376466 512.134805682 c 0,229,-1
 376.847609174 509.126950173 374.085965975 505.438184366 370.633446869 501.068508261 c 2,232,-1
 361.045441153 491.660165692 l 2,233,-1
 359.606664132 490.788013852 358.131585089 490.127405225 356.620204022 489.678339812 c 0,236,-1
 355.098183815 489.226113271 353.558115808 489 352 489 c 0,239,-1
 351.403478459 489 350.809937782 489.063614224 350.219377967 489.190842673 c 0,242,-1
 349.628818153 489.318071122 349.045466031 489.507037575 348.469321602 489.757742034 c 0,245,-1
 347.342212172 490.248194331 346.397784628 490.87429331 345.63603897 491.636038969 c 0,248,-1
 342.567229964 494.704847974 341.944789474 499.887108526 343.768717499 507.182820625 c 0,251,-1
 344.824604707 511.406369458 346.722315647 517.627445881 349.461850318 525.846049894 c 2,254,-1
 349.529934736 526.030021801 l 2,255,-1
 350.480109523 528.360433338 351.38115257 530.602345399 352.233063877 532.755757982 c 0,258,-1
 353.084975183 534.909170565 353.887407254 536.973162962 354.64036009 538.947735173 c 0,261,-1
 355.393312925 540.922307384 356.097022636 542.808032649 356.751489222 544.604910968 c 0,264,-1
 357.651247357 547.075252342 358.485637902 549.462300073 359.254660859 551.76605416 c 0,267,-1
 360.022896277 554.067390683 360.618161267 555.937644417 361.040455828 557.376815363 c 0,270,-1
 361.076289649 557.498936266 361.068615562 557.79513953 361.017433567 558.265425155 c 0,273,-1
 359.93955148 559.332182125 358.894434092 559.91037374 357.882081403 560 c 2,276,-1
 354.268680191 560 l 2,277,-1
 345.068128573 559.405469969 330.436695586 550.465977231 310.374381231 533.181521786 c 0,280,-1
 299.762649028 524.03910635 289.779421379 514.505505891 280.424698283 504.58072041 c 0,283,-1
 277.30396058 501.2699583 274.251735654 497.914547379 271.268023507 494.514487646 c 0,286,-1
 268.284312134 491.114432647 265.366087532 487.666174998 262.5133497 484.169714699 c 0,289,-1
 261.085381397 482.419525192 259.674915284 480.658680918 258.281951361 478.887181878 c 0,292,-1
 256.888987438 477.115682838 255.50955987 475.328445117 254.143668657 473.525468714 c 0,295,-1
 232.16198635 445.169098538 212.933876877 417.600388401 196.459340239 390.819338304 c 0,298,-1
 179.98731221 364.042366208 166.28270842 338.090895064 155.345528867 312.964924871 c 0,301,-1
 149.878910558 300.407566379 145.09783622 288.047966927 141.002305851 275.886126515 c 0,304,-1
 136.906775482 263.724286103 133.499324403 251.769522832 130.779952614 240.021836702 c 0,307,-1
 126.834908161 222.269136667 123.75477769 206.388608007 121.5395612 192.380250722 c 0,310,-1
 119.325847075 178.383167496 117.975931088 166.280388474 117.489813239 156.071913656 c 0,313,-1
 117.172323779 149.404634991 117.225443571 142.679113354 117.649172616 135.895348747 c 0,316,-1
 118.073227135 129.107346855 118.870604885 122.253113978 120.041305864 115.332650117 c 0,319,-1
 120.431587428 113.025545647 120.863574057 110.711203783 121.337265752 108.389624524 c 0,322,-1
 121.810957447 106.068045265 122.325912141 103.741278251 122.882129836 101.409323483 c 0,325,-1
 123.438347531 99.0773687143 124.03547742 96.7416475141 124.673519501 94.4021598823 c 0,328,-1
 128.243979765 81.6080106019 132.436847554 71.7546947422 137.252122869 64.8422123031 c 0,331,-1
 139.632156291 61.4255978498 142.122724771 58.7188104703 144.72382831 56.7218501646 c 0,334,-1
 147.324931849 54.7248898589 150.029850299 53.4211126015 152.83858366 52.8105183924 c 0,337,-1
 153.821849705 52.6138651833 154.883856913 52.4982172351 156.024605283 52.4635745478 c 0,340,-1
 157.165353653 52.4289318605 158.393546494 52.4777502652 159.709183807 52.6100297617 c 0,343,-1
 161.02482112 52.7423092583 162.411466942 52.958945694 163.869121271 53.2599390689 c 0,346,-1
 168.286545968 54.1721001629 173.313052675 55.8820433699 178.948641393 58.38976869 c 0,349,-1
 190.473472035 63.5180899809 203.998183321 72.1019903545 219.522775251 84.1414698107 c 0,352,-1
 238.717821473 98.7817593022 258.305024692 118.068090174 278.284384908 142.000462427 c 0,355,-1
 288.281935595 153.976076364 298.371749109 167.112378333 308.553825449 181.409368334 c 0,358,-1
 318.735901788 195.706358335 329.010964492 211.165749812 339.379013561 227.787542763 c 0,361,-1
 344.734796214 236.313074332 350.014183145 245.287545909 355.217174352 254.710957494 c 0,364,-1
 360.420067299 264.134340159 365.547856578 274.010143085 370.600542189 284.338366272 c 0,367,-1
 375.653148334 294.666551821 380.627982362 305.442816393 385.525044275 316.667159988 c 0,370,-1
 390.42456812 327.897248326 395.242435952 339.570410021 399.978647773 351.686645072 c 0,373,-1
 404.714859594 363.802880123 409.369335521 376.362139418 413.942075556 389.364422956 c 0,376,-1
 418.514815591 402.366706493 423.00501761 415.809919065 427.412681611 429.694060671 c 0,379,-1
 438.032361256 463.544289538 446.307487827 492.001074663 452.238061326 515.064416046 c 2,382,-1
 455.186862702 528.825489134 l 2,383,-1
 457.34029811 539.621047564 458.361776842 549.585518394 458.251298899 558.718901624 c 0,386,-1
 458.140820955 567.852284854 456.904826306 576.173786641 454.543314953 583.683406985 c 0,389,-1
 449.830559642 598.669997293 440.631125657 610.62615527 426.945012999 619.551880917 c 0,392,-1
 426.129325543 620.127660298 425.288890009 620.676478354 424.423706397 621.198335085 c 0,395,-1
 423.558522785 621.720191816 422.664512553 622.21762487 421.741675702 622.690634249 c 0,398,-1
 420.818838851 623.163643627 419.861169263 623.615468405 418.868666938 624.046108584 c 0,401,-1
 415.898965448 625.334642373 412.619646477 626.4233118 409.030710025 627.312116866 c 2,404,-1
 397.25264325 629.32384024 l 2,405,-1
 392.989764768 629.774613413 388.405550351 630 383.5 630 c 0,408,-1
 378.663687067 630 374.216832129 629.865579404 370.159435186 629.596738212 c 0,411,-1
 366.102038243 629.32789702 362.439102769 628.925808346 359.170628764 628.39047219 c 2,414,-1
 344.76999046 623.868015264 l 2,415,-1
 342.28229915 622.313208195 339.990773052 620.79856739 337.895412166 619.324092847 c 0,418,-1
 335.802911991 617.851782381 333.921666764 616.433149137 332.251676484 615.068193115 c 0,421,-1
 330.588949679 613.709173848 329.126377861 612.3984558 327.863961031 611.13603897 c 0,424,-1
 325.997540049 609.269617987 324.406645192 607.470910647 323.091276461 605.73991695 c 0,427,-1
 322.443770037 604.887814028 321.865608944 604.062289391 321.356793181 603.263343039 c 2,430,-1
 320.049844719 600.975077641 l 2,431,-1
 319.73565075 600.456989486 319.443448273 599.983915865 319.173237288 599.555856778 c 0,434,-1
 318.903026303 599.127797691 318.666164135 598.753193703 318.462650782 598.432044815 c 2,152,-1
EndSplineSet
EndChar

